<svg width="59" height="57" viewBox="0 0 59 57" fill="none" xmlns="http://www.w3.org/2000/svg"><rect x="-1.5" y="1.5" width="55.5" height="54" rx="27" transform="matrix(-1 0 0 1 55.5 0)" fill="#8a827f" fill-opacity=".05"/><rect x="-1.5" y="1.5" width="55.5" height="54" rx="27" transform="matrix(-1 0 0 1 55.5 0)" fill="#8a827f" fill-opacity=".05"/><rect x="-1.5" y="1.5" width="55.5" height="54" rx="27" transform="matrix(-1 0 0 1 55.5 0)" fill="#8a827f" fill-opacity=".05"/><rect x="-1.5" y="1.5" width="55.5" height="54" rx="27" transform="matrix(-1 0 0 1 55.5 0)" fill="#8a827f" fill-opacity=".05"/><rect x="-1.5" y="1.5" width="55.5" height="54" rx="27" transform="matrix(-1 0 0 1 55.5 0)" fill="#8a827f" fill-opacity=".05"/><path d="M23 28.5H35.5m0 0L30 23m5.5 5.5L30 34" stroke="#8a827f" stroke-width="3" stroke-linecap="round"/><rect x="-1.5" y="1.5" width="55.5" height="54" rx="27" transform="matrix(-1 0 0 1 55.5 0)" stroke="#8a827f" stroke-width="3"/></svg>