<svg width="301" height="228" viewBox="0 0 301 228" fill="none" xmlns="http://www.w3.org/2000/svg"><path d="M174.867 212.837 174.772 212.853 170.815 220.123 164.5 221.199 169.381 213.022 161.557 205.438 168.003 204.338 174.463 211.038 174.562 211.022 173.272 203.435 178.507 202.547 182.591 226.54 177.354 227.428 174.867 212.837zM134.892 225.13 135.262 220.93 131.509 220.599 131.852 216.687 135.605 217.018 136.146 210.902C136.242 210.309 136.14 209.701 135.857 209.171 135.678 208.945 135.449 208.764 135.188 208.642 134.926 208.521 134.639 208.462 134.351 208.471 134.078 208.445 133.804 208.441 133.531 208.461 133.28 208.471 133.032 208.515 132.793 208.591L133.067 204.737C133.529 204.626 134 204.554 134.474 204.52 135.034 204.473 135.596 204.473 136.156 204.52 137.072 204.576 137.972 204.792 138.813 205.158 139.465 205.448 140.032 205.9 140.46 206.471 140.861 207.031 141.131 207.675 141.248 208.354 141.38 209.132 141.408 209.925 141.329 210.71L140.734 217.461 143.298 217.688 142.958 221.6 140.424 221.376 140.054 225.576 134.892 225.13zM150.283 221.601C149.309 221.249 148.424 220.687 147.69 219.955 146.938 219.185 146.348 218.271 145.955 217.268 145.508 216.101 145.271 214.864 145.255 213.615L145.234 212.97C145.227 212.767 145.233 212.563 145.252 212.361L156.871 212.03C156.817 211.598 156.666 211.184 156.43 210.818 156.192 210.456 155.888 210.141 155.534 209.891 155.166 209.63 154.758 209.429 154.325 209.298 153.88 209.162 153.416 209.099 152.951 209.113 152.214 209.112 151.489 209.292 150.839 209.638 150.293 209.949 149.822 210.375 149.458 210.886L145.725 208.672C146.442 207.56 147.443 206.659 148.625 206.063 149.955 205.41 151.414 205.065 152.896 205.055 154.056 205.016 155.214 205.173 156.321 205.522 157.369 205.847 158.342 206.377 159.184 207.081 160.022 207.796 160.697 208.682 161.161 209.681 161.672 210.809 161.942 212.031 161.955 213.269 162.006 214.485 161.81 215.698 161.382 216.837 160.989 217.868 160.391 218.807 159.622 219.598 158.854 220.369 157.94 220.981 156.935 221.398 155.858 221.845 154.707 222.085 153.542 222.108 153.442 222.108 153.353 222.108 153.259 222.108 152.245 222.117 151.237 221.946 150.283 221.601zM150.175 215.501C150.179 216.294 150.482 217.057 151.023 217.637 151.336 217.943 151.712 218.176 152.125 218.32 152.538 218.464 152.978 218.515 153.413 218.47 153.896 218.464 154.374 218.368 154.822 218.188 155.23 218.027 155.606 217.793 155.931 217.498 156.241 217.217 156.494 216.877 156.673 216.498 156.854 216.129 156.954 215.726 156.965 215.315L150.175 215.501zM100.606 220.194 103.867 211.518 103.779 211.482 92.8926 217.296 86.4434 214.868 99.3301 208.503 93.9209 193.332 100.64 195.857 104.876 208.657 104.938 208.683 108.626 198.86 113.658 200.753 105.64 222.085 100.606 220.194zM120.877 219.251C119.732 219.044 118.629 218.644 117.618 218.068 116.814 217.598 116.153 216.918 115.704 216.101 115.26 215.219 115.017 214.249 114.993 213.262 114.961 211.989 115.084 210.717 115.359 209.473L116.986 201.558 121.716 202.53 121.372 204.199 121.467 204.222C122.04 203.63 122.783 203.231 123.593 203.078 124.497 202.888 125.431 202.888 126.335 203.078 126.994 203.219 127.633 203.44 128.239 203.736 128.864 204.032 129.432 204.438 129.912 204.936 130.4 205.443 130.764 206.056 130.975 206.728 131.205 207.524 131.224 208.366 131.029 209.172 130.874 210.181 130.342 211.094 129.54 211.726 128.732 212.31 127.796 212.693 126.811 212.841 125.68 213.023 124.53 213.053 123.392 212.929 122.203 212.816 121.022 212.638 119.853 212.397L119.804 212.65C119.71 212.978 119.704 213.324 119.785 213.655 119.867 213.985 120.033 214.289 120.268 214.536 120.79 215.043 121.455 215.38 122.173 215.502 122.908 215.655 123.667 215.644 124.396 215.47 125.093 215.314 125.763 215.051 126.38 214.692L128.422 218.033C127.317 218.729 126.075 219.181 124.781 219.359 124.234 219.437 123.683 219.477 123.13 219.477 122.373 219.478 121.617 219.403 120.875 219.251H120.877zM121.737 206.66C121.385 206.918 121.087 207.243 120.861 207.617 120.636 207.991 120.487 208.406 120.423 208.838L120.312 209.376 120.974 209.506C121.538 209.623 122.121 209.717 122.708 209.782 123.241 209.849 123.78 209.857 124.314 209.805 124.757 209.762 125.184 209.618 125.562 209.384 125.742 209.271 125.894 209.121 126.011 208.944 126.127 208.767 126.204 208.566 126.236 208.357 126.298 208.091 126.281 207.813 126.188 207.557 126.097 207.324 125.955 207.115 125.772 206.944 125.572 206.769 125.345 206.629 125.099 206.529 124.851 206.423 124.594 206.343 124.33 206.289 124.02 206.224 123.703 206.191 123.386 206.189 122.802 206.173 122.226 206.337 121.739 206.66H121.737zM190.293 215.845C189.36 215.833 188.448 215.565 187.657 215.07 186.833 214.522 186.144 213.796 185.641 212.944 184.987 211.853 184.469 210.687 184.099 209.47L181.629 201.776 186.229 200.298 186.75 201.925 186.845 201.896C187.048 201.098 187.498 200.385 188.131 199.857 188.824 199.245 189.639 198.788 190.522 198.515 191.164 198.308 191.83 198.185 192.503 198.149 193.194 198.098 193.888 198.172 194.552 198.369 195.224 198.572 195.84 198.928 196.352 199.409 196.944 199.988 197.374 200.712 197.6 201.509 197.959 202.466 197.943 203.523 197.555 204.468 197.138 205.373 196.511 206.165 195.727 206.779 194.83 207.492 193.843 208.081 192.79 208.532 191.699 209.015 190.582 209.441 189.447 209.809L189.525 210.055C189.606 210.386 189.772 210.69 190.006 210.938 190.24 211.186 190.534 211.369 190.86 211.468 191.563 211.654 192.306 211.621 192.99 211.374 193.705 211.146 194.363 210.763 194.913 210.253 195.445 209.774 195.901 209.217 196.265 208.6L199.681 210.512C199.058 211.66 198.198 212.662 197.159 213.452 196.122 214.253 194.955 214.868 193.708 215.27 192.677 215.626 191.598 215.821 190.508 215.847 190.44 215.848 190.363 215.847 190.291 215.845H190.293zM191.142 202.116C190.872 202.147 190.606 202.206 190.348 202.291 189.91 202.399 189.501 202.596 189.144 202.871 188.787 203.146 188.49 203.491 188.273 203.886 188.094 204.284 187.995 204.713 187.981 205.149 187.968 205.585 188.041 206.019 188.196 206.427L188.361 206.949 189.01 206.742C189.56 206.567 190.108 206.363 190.652 206.129 191.148 205.925 191.621 205.666 192.06 205.358 192.425 205.102 192.728 204.768 192.947 204.379 193.045 204.192 193.104 203.986 193.117 203.775 193.131 203.564 193.099 203.352 193.025 203.154 192.949 202.893 192.8 202.659 192.594 202.48 192.4 202.322 192.173 202.21 191.93 202.153 191.772 202.116 191.609 202.098 191.447 202.099 191.344 202.099 191.242 202.104 191.14 202.116H191.142zM209.927 214.309C208.95 214.199 208.016 213.85 207.208 213.291 206.287 212.619 205.554 211.72 205.082 210.682 204.414 209.446 204.196 208.016 204.469 206.637 204.787 205.259 205.522 204.013 206.574 203.069L196.897 196.989 202.659 194.124 211.123 200.013 212.805 199.177 208.77 191.077 213.586 188.677 223.739 209.082 215.962 212.955C214.999 213.436 213.987 213.814 212.943 214.08 212.25 214.26 211.536 214.352 210.819 214.355 210.52 214.357 210.222 214.341 209.925 214.308L209.927 214.309zM212.264 203.902C211.846 204.113 211.445 204.355 211.063 204.625 210.693 204.887 210.364 205.202 210.088 205.562 209.826 205.904 209.659 206.308 209.605 206.735 209.558 207.233 209.662 207.734 209.905 208.171 210.089 208.592 210.399 208.946 210.791 209.185 211.134 209.379 211.521 209.482 211.915 209.485 212.335 209.488 212.752 209.42 213.149 209.285 213.557 209.154 213.955 208.992 214.339 208.802L216.974 207.489 214.604 202.738 212.264 203.902zM81.0088 212.857C80.5993 212.827 80.2008 212.711 79.8389 212.517 79.4832 212.331 79.1657 212.079 78.9043 211.775 78.6521 211.484 78.4583 211.147 78.332 210.783 78.2131 210.425 78.164 210.047 78.1885 209.671 78.2098 209.278 78.3174 208.894 78.5029 208.546 78.6832 208.196 78.9375 207.889 79.248 207.646 79.5424 207.413 79.8781 207.238 80.2383 207.131 80.6105 207.027 80.9996 206.995 81.3838 207.037 81.7843 207.077 82.1727 207.195 82.5283 207.384 82.886 207.559 83.2048 207.804 83.4648 208.105 83.7249 208.407 83.9215 208.758 84.042 209.137 84.1671 209.498 84.2157 209.882 84.1846 210.263 84.1534 210.644 84.0425 211.015 83.8604 211.351 83.6875 211.692 83.4443 211.993 83.1465 212.233 82.8556 212.474 82.5166 212.649 82.1523 212.748 81.8587 212.826 81.5567 212.864 81.2529 212.863 81.1729 212.864 81.0908 212.862 81.0068 212.856L81.0088 212.857zM81.2197 204.194 88.6572 189.994 93.335 192.441 85.8994 206.641 81.2197 204.194zM69.707 202.201 71.96 198.639 68.7793 196.626 70.8799 193.304 74.0625 195.32 77.3457 190.128C77.7028 189.646 77.893 189.062 77.8877 188.462 77.8303 188.18 77.7088 187.915 77.5322 187.688 77.3556 187.461 77.1292 187.278 76.8701 187.153 76.6377 187.006 76.3942 186.876 76.1426 186.764 75.9139 186.661 75.6736 186.588 75.4268 186.544L77.4355 183.244C77.8981 183.357 78.3509 183.509 78.7881 183.698 79.307 183.912 79.8051 184.171 80.2783 184.473 81.0662 184.944 81.7672 185.547 82.3496 186.256 82.7957 186.813 83.0916 187.474 83.208 188.178 83.3097 188.86 83.2541 189.556 83.0459 190.213 82.8088 190.967 82.4698 191.684 82.0381 192.346L78.415 198.073 80.5928 199.45 78.4922 202.769 76.3408 201.411 74.0879 204.976 69.707 202.201zM62.1875 191.574C61.0554 191.187 59.9992 190.605 59.0664 189.856 58.6128 189.496 58.1939 189.094 57.8154 188.656 57.4442 188.228 57.1044 187.774 56.7979 187.298 56.5119 186.845 56.2728 186.364 56.084 185.862 55.9145 185.41 55.7974 184.941 55.7363 184.462l4.6006-.875C60.3415 184.107 60.4718 184.619 60.7168 185.078 60.9597 185.566 61.3054 185.995 61.7305 186.336 62.1367 186.67 62.617 186.902 63.1309 187.013 63.6147 187.116 64.1141 187.121 64.5996 187.026 65.0953 186.927 65.5698 186.741 66 186.475 66.4593 186.195 66.8629 185.834 67.1924 185.409 67.5289 184.992 67.7928 184.52 67.9727 184.015 68.1417 183.536 68.2155 183.028 68.1904 182.521 68.1622 182.023 68.0321 181.535 67.8076 181.089 67.5614 180.612 67.2132 180.194 66.7871 179.867 66.358 179.528 65.8684 179.273 65.3447 179.115 64.8459 178.953 64.3144 178.918 63.7988 179.015L63.7246 174.397C64.7297 174.318 65.7398 174.461 66.6836 174.815 67.7573 175.193 68.7588 175.751 69.6455 176.465 70.5971 177.208 71.4148 178.108 72.0635 179.126 72.6676 180.067 73.0727 181.122 73.2529 182.226 73.4302 183.326 73.3717 184.451 73.0811 185.526 72.7546 186.708 72.1839 187.808 71.4072 188.757 70.6654 189.721 69.7291 190.518 68.6592 191.097 67.6802 191.622 66.6013 191.935 65.4932 192.014 65.3002 192.028 65.108 192.035 64.915 192.035 63.9865 192.032 63.0644 191.875 62.1865 191.573L62.1875 191.574zM42.4238 185.257 49.8779 178.107 49.8389 178.058C49.0306 178.24 48.1896 178.219 47.3916 177.996 46.4156 177.739 45.5356 177.203 44.8604 176.453 44.1799 175.788 43.6713 174.969 43.377 174.064 43.1444 173.308 43.087 172.509 43.209 171.727 43.338 170.952 43.6199 170.211 44.0381 169.546 44.4608 168.862 44.9673 168.234 45.5459 167.676L52.7012 160.815 56.3799 164.646 50.1055 170.665C49.7932 170.961 49.5047 171.282 49.2432 171.624 49.0082 171.928 48.832 172.273 48.7227 172.642 48.6248 172.978 48.6136 173.334 48.6904 173.676 48.7941 174.066 49.002 174.421 49.291 174.703 49.5587 175.011 49.8972 175.249 50.2773 175.397 50.6574 175.545 51.0674 175.598 51.4727 175.552 52.3351 175.434 53.1326 175.03 53.7383 174.405L59.9863 168.405 63.6396 172.216 46.0791 189.063 42.4238 185.257zM258.14 169.492C257.355 169.486 256.579 169.322 255.858 169.012 255.117 168.699 254.417 168.296 253.774 167.812L245.882 161.812 249.091 157.579 256.065 162.879C256.407 163.144 256.772 163.376 257.157 163.573 257.497 163.748 257.863 163.869 258.24 163.93 258.589 163.979 258.945 163.935 259.271 163.8 259.641 163.629 259.961 163.365 260.197 163.032 260.465 162.696 260.648 162.3 260.729 161.878 260.799 161.49 260.777 161.092 260.665 160.714 260.543 160.319 260.351 159.949 260.099 159.622 259.835 159.268 259.523 158.954 259.171 158.689L252.248 153.432 255.46 149.202 268.227 158.902 265.132 162.976 263.361 161.634 263.322 161.686C263.487 162.077 263.605 162.486 263.673 162.905 263.748 163.363 263.754 163.83 263.689 164.289 263.621 164.781 263.498 165.263 263.323 165.728 263.137 166.229 262.876 166.699 262.55 167.122 261.999 167.891 261.273 168.517 260.433 168.95 259.726 169.3 258.95 169.486 258.162 169.494L258.14 169.492zM38.0869 165.139C37.0194 164.928 36.0037 164.508 35.0986 163.904 34.1313 163.255 33.2942 162.43 32.6299 161.473 31.9733 160.575 31.4974 159.558 31.2295 158.478 30.9803 157.471 30.9577 156.422 31.1621 155.405 31.3822 154.351 31.8141 153.353 32.4326 152.472 33.1535 151.452 34.0506 150.569 35.0811 149.863 35.2561 149.737 35.4335 149.613 35.6045 149.49 35.7755 149.367 35.952 149.257 36.124 149.159L42.8496 158.636C43.1821 158.355 43.4446 158.001 43.6172 157.602 43.7846 157.201 43.8766 156.772 43.8877 156.338 43.9014 155.887 43.8412 155.437 43.709 155.006 43.5788 154.56 43.3738 154.139 43.1035 153.761 42.6956 153.148 42.1417 152.646 41.4922 152.299 40.9345 152.012 40.3193 151.856 39.6924 151.842L39.4561 147.509C40.7823 147.486 42.0906 147.819 43.2451 148.472 44.5233 149.217 45.6176 150.239 46.4492 151.463 47.128 152.406 47.6416 153.458 47.9668 154.574 48.2777 155.625 48.377 156.728 48.2588 157.818 48.1312 158.912 47.7685 159.966 47.1963 160.907 46.5412 161.956 45.676 162.859 44.6553 163.558 43.6716 164.279 42.5511 164.792 41.3623 165.065 40.761 165.2 40.1466 165.269 39.5303 165.271 39.0465 165.273 38.5643 165.229 38.0889 165.139H38.0869zM34.9404 156.891C34.8582 157.321 34.8722 157.764 34.9814 158.188 35.0907 158.613 35.2924 159.007 35.5723 159.344 35.8481 159.74 36.1935 160.084 36.5908 160.358 36.9515 160.607 37.3538 160.788 37.7793 160.893 38.1876 160.992 38.6109 161.014 39.0273 160.958 39.4346 160.902 39.8254 160.758 40.1719 160.537L36.2402 154.998C35.5857 155.445 35.1219 156.12 34.9395 156.891H34.9404zM267.218 152.127C265.984 151.923 264.797 151.501 263.711 150.882 263.526 150.782 263.337 150.675 263.149 150.574 262.97 150.476 262.796 150.368 262.629 150.25L268.229 140.063C267.83 139.887 267.396 139.807 266.961 139.83 266.528 139.852 266.103 139.953 265.707 140.13 265.297 140.318 264.919 140.568 264.586 140.872 264.243 141.188 263.952 141.556 263.727 141.964 263.354 142.599 263.143 143.316 263.114 144.051 263.101 144.679 263.229 145.301 263.49 145.872L259.69 147.972C259.095 146.788 258.827 145.466 258.914 144.144 259.022 142.668 259.463 141.235 260.204 139.953 260.759 138.932 261.482 138.012 262.343 137.231 263.152 136.491 264.101 135.92 265.134 135.552 266.175 135.192 267.281 135.059 268.378 135.163 269.608 135.294 270.798 135.679 271.871 136.294 272.948 136.863 273.897 137.646 274.662 138.594 275.353 139.452 275.86 140.442 276.152 141.504 276.429 142.557 276.494 143.654 276.343 144.732 276.181 145.887 275.805 147.001 275.234 148.018 274.71 148.998 274.002 149.868 273.15 150.582 272.35 151.24 271.418 151.718 270.416 151.982 269.8 152.139 269.166 152.217 268.53 152.215 268.092 152.219 267.654 152.191 267.22 152.13L267.218 152.127zM267.834 147.596C268.518 147.994 269.327 148.119 270.099 147.946 270.522 147.832 270.914 147.626 271.248 147.342 271.582 147.059 271.849 146.705 272.03 146.306 272.267 145.885 272.427 145.425 272.502 144.948 272.567 144.514 272.554 144.072 272.466 143.642 272.377 143.232 272.211 142.843 271.977 142.495 271.75 142.152 271.451 141.862 271.102 141.646L267.834 147.596zM23.5635 145.833 25.5439 144.833 25.5146 144.771C25.0912 144.753 24.6718 144.681 24.2666 144.557 23.8201 144.426 23.3961 144.228 23.0088 143.97 22.5985 143.692 22.2195 143.37 21.8779 143.011 21.5103 142.625 21.2014 142.187 20.9609 141.711 20.5079 140.88 20.2594 139.952 20.2373 139.005 20.2328 138.211 20.4085 137.427 20.75 136.71 21.0984 136.005 21.5844 135.377 22.1797 134.863 22.7826 134.332 23.4502 133.879 24.166 133.515L33.0078 129.026 35.4072 133.761 27.5996 137.725C27.2127 137.919 26.8449 138.148 26.5 138.409 26.194 138.638 25.9261 138.914 25.7061 139.226 25.5068 139.517 25.3913 139.856 25.3721 140.208 25.3616 140.617 25.4615 141.021 25.6611 141.378 25.8449 141.765 26.1191 142.102 26.4609 142.36 26.7787 142.593 27.1479 142.746 27.5371 142.807 27.9457 142.873 28.3625 142.863 28.7676 142.778 29.2 142.692 29.6188 142.547 30.0117 142.347L37.7607 138.416 40.166 143.151 25.8652 150.404 23.5635 145.833zM277.543 134.195C276.742 134.116 275.954 133.936 275.198 133.66L265.898 130.228 267.732 125.247 275.89 128.247C276.292 128.399 276.706 128.517 277.128 128.6 277.503 128.679 277.89 128.688 278.269 128.626 278.615 128.567 278.941 128.421 279.216 128.201 279.523 127.938 279.751 127.595 279.873 127.209 280.035 126.834 280.102 126.426 280.069 126.019 280.037 125.612 279.905 125.219 279.686 124.875 279.201 124.153 278.49 123.613 277.664 123.342L269.542 120.347 271.365 115.391 294.198 123.811 292.372 128.767 282.678 125.189 282.655 125.247C283.171 125.895 283.52 126.66 283.671 127.474 283.865 128.465 283.768 129.49 283.392 130.427 283.091 131.33 282.576 132.148 281.892 132.809 281.314 133.347 280.624 133.748 279.87 133.982 279.327 134.143 278.762 134.224 278.195 134.222 277.982 134.227 277.766 134.218 277.546 134.194L277.543 134.195zM283.032 113.395C283.499 113.163 283.903 112.821 284.209 112.4 284.542 111.968 284.776 111.468 284.894 110.935 285.013 110.425 285.011 109.895 284.887 109.386 284.767 108.905 284.552 108.453 284.255 108.057 283.947 107.655 283.571 107.31 283.144 107.039 282.688 106.753 282.185 106.548 281.659 106.433 281.136 106.315 280.597 106.287 280.064 106.349 279.56 106.406 279.072 106.562 278.628 106.809 278.191 107.052 277.809 107.384 277.51 107.785 277.188 108.215 276.966 108.713 276.862 109.24 276.747 109.773 276.733 110.322 276.82 110.86 276.889 111.381 277.094 111.875 277.411 112.293L273.291 114.393C272.779 113.525 272.463 112.554 272.367 111.551 272.236 110.42 272.298 109.275 272.549 108.164 272.798 106.984 273.247 105.855 273.875 104.826 274.456 103.869 275.227 103.042 276.141 102.395 277.05 101.756 278.083 101.315 279.174 101.102 280.381 100.873 281.622 100.903 282.816 101.189 284.008 101.432 285.136 101.921 286.127 102.625 287.028 103.276 287.782 104.108 288.341 105.069 288.897 106.043 289.256 107.117 289.397 108.229 289.546 109.417 289.487 110.621 289.222 111.788 289.097 112.351 288.923 112.902 288.7 113.434 288.477 113.955 288.218 114.46 287.923 114.944 287.644 115.401 287.32 115.828 286.954 116.218 286.621 116.57 286.247 116.88 285.84 117.142L283.032 113.395zM287.123 99.6791 287.53 95.939 281.431 95.2681C280.84 95.1609 280.231 95.2471 279.693 95.514 279.466 95.6899 279.282 95.9159 279.155 96.1744 279.029 96.433 278.964 96.7173 278.965 97.0051 278.936 97.2784 278.927 97.5535 278.938 97.8281 278.943 98.0783 278.982 98.3268 279.052 98.5671L275.201 98.2101C275.102 97.7458 275.042 97.2742 275.02 96.8 274.984 96.2404 274.996 95.6787 275.055 95.121 275.132 94.2044 275.369 93.3084 275.755 92.4731 276.059 91.8298 276.522 91.2744 277.1 90.8591 277.668 90.4697 278.318 90.2149 279 90.1141 279.781 89.9956 280.574 89.9835 281.358 90.0781L288.1 90.814 288.375 88.2571 292.279 88.6821 292.002 91.2131 296.194 91.67 295.632 96.8231 291.438 96.363 291.029 100.11 287.123 99.6791zM297.462 86.1791C297.068 86.1704 296.68 86.0766 296.326 85.9041 295.985 85.7424 295.679 85.5143 295.427 85.233 295.169 84.9478 294.97 84.614 294.843 84.251 294.701 83.8733 294.636 83.4711 294.652 83.0681 294.653 82.6702 294.733 82.2764 294.89 81.9105 295.046 81.5446 295.275 81.2141 295.562 80.939 295.833 80.6684 296.156 80.4568 296.512 80.3174 296.868 80.178 297.249 80.1138 297.631 80.129 298.011 80.139 298.385 80.2262 298.73 80.3851 299.075 80.5415 299.383 80.7704 299.631 81.056 299.883 81.3484 300.085 81.6801 300.23 82.038 300.382 82.4192 300.45 82.8284 300.431 83.238 300.421 83.6398 300.334 84.036 300.175 84.405 300.024 84.7581 299.807 85.0792 299.536 85.3511 299.267 85.617 298.949 85.8273 298.599 85.97 298.264 86.1101 297.904 86.1822 297.541 86.1821L297.462 86.1791zM276.33 85.1901 276.481 79.91 292.506 80.3701 292.354 85.6431 276.33 85.1901zM276.353 71.8051 286.021 62.405V62.3431L275.568 63.3091 275.068 57.9581 297.763 55.858 298.263 61.209 289.033 62.0681 289.043 62.168 299.024 69.418 299.661 76.2791 288.307 67.47 277.019 78.959 276.353 71.8051zM0 74.975.699219 66.3091C.785612 65.2363.987347 64.1759 1.2998 63.1461 1.58601 62.171 2.04751 61.2561 2.66113 60.446 3.26004 59.667 4.04205 59.0486 4.93848 58.6461 5.98898 58.2008 7.1376 58.0378 8.27051 58.173 9.67344 58.2398 11.0096 58.7932 12.0488 59.738 13.0677 60.7193 13.7554 61.9937 14.0166 63.384L24.2227 58.2341 23.7012 64.6481 14.2861 68.855 14.1338 70.725 23.1543 71.451 22.7197 76.8121.0 74.975zM6.59961 63.832C6.25557 64.0266 5.9667 64.3053 5.75977 64.642 5.5405 65.0011 5.38375 65.3946 5.2959 65.806 5.19945 66.2231 5.13242 66.6465 5.0957 67.0731L4.85938 70.0031 10.1592 70.431 10.3711 67.819C10.4092 67.3551 10.4092 66.8889 10.3711 66.425 10.3397 65.9721 10.2394 65.5264 10.0752 65.103 9.91523 64.7034 9.6538 64.3525 9.31641 64.0851 8.91575 63.7851 8.43284 63.6155 7.93262 63.5991 7.83262 63.5911 7.74332 63.587 7.65332 63.587 7.28918 63.5761 6.92855 63.6599 6.60645 63.8301L6.59961 63.832zM19.9717 56.54C18.968 56.3533 18.0721 55.7943 17.4629 54.9751 16.8994 54.1531 16.5435 53.2067 16.4258 52.217 16.2772 51.0821 16.2794 49.9325 16.4326 48.7981 16.582 47.6138 16.7918 46.4378 17.0615 45.275L16.8145 45.217C16.4892 45.1148 16.1437 45.099 15.8105 45.1713 15.4774 45.2435 15.1687 45.4013 14.915 45.629 14.3942 46.1394 14.0381 46.7943 13.8936 47.509 13.723 48.2407 13.7141 49.0008 13.8682 49.7361 14.0015 50.4363 14.2449 51.1112 14.5879 51.7361L11.1875 53.6841C10.527 52.5596 10.1118 51.3083 9.96875 50.0121 9.81669 48.7089 9.89211 47.3892 10.1924 46.1121 10.4302 44.9734 10.8592 43.8831 11.46 42.8871 11.9551 42.0964 12.6546 41.4546 13.4854 41.03 14.3789 40.6084 15.3557 40.3914 16.3438 40.395 17.6166 40.4018 18.8835 40.5617 20.1182 40.8711L27.9844 42.718 26.8848 47.4181 25.2188 47.026 25.2012 47.12C25.774 47.7118 26.1508 48.4657 26.2803 49.2791 26.445 50.1878 26.4164 51.1211 26.1963 52.0181 26.0362 52.6724 25.7992 53.3055 25.4902 53.9041 25.175 54.5206 24.7524 55.076 24.2422 55.5441 23.7215 56.0194 23.0971 56.3657 22.418 56.5551 22.0542 56.6592 21.6772 56.7107 21.2988 56.7081 20.8538 56.7028 20.4105 56.6461 19.9785 56.5391L19.9717 56.54zM19.9258 46.4771C19.7924 47.0411 19.6833 47.6157 19.5986 48.201 19.5203 48.7306 19.5 49.267 19.5371 49.801 19.5662 50.2461 19.6971 50.6787 19.9199 51.0651 20.0291 51.2462 20.1749 51.4022 20.3486 51.5228 20.5224 51.6435 20.7199 51.726 20.9277 51.765 21.191 51.8367 21.4695 51.8277 21.7275 51.739 21.9634 51.6564 22.1766 51.5194 22.3496 51.3391 22.5322 51.1465 22.6809 50.9238 22.7881 50.681 22.8991 50.4336 22.9868 50.1766 23.0508 49.9131 23.1823 49.4836 23.2235 49.0314 23.1719 48.5852 23.1202 48.139 22.9771 47.7082 22.751 47.3201 22.5027 46.9596 22.185 46.6518 21.8174 46.4143 21.4498 46.1768 21.039 46.0142 20.6084 45.936L20.0762 45.8101 19.9258 46.4771zm253.2302 3.436L274.806 49.495 274.786 49.401C274.004 49.1434 273.322 48.6498 272.832 47.988 272.264 47.2565 271.855 46.4141 271.632 45.515 271.473 44.8626 271.392 44.1936 271.393 43.5221 271.388 42.8284 271.507 42.1395 271.742 41.4871 271.986 40.8269 272.381 40.233 272.896 39.7531 273.509 39.1963 274.258 38.8107 275.067 38.635 276.044 38.3361 277.098 38.4184 278.017 38.8651 278.895 39.336 279.647 40.0105 280.211 40.832 280.867 41.771 281.393 42.7934 281.778 43.8721 282.194 44.9913 282.552 46.1316 282.849 47.2881L283.091 47.223C283.427 47.1634 283.741 47.0178 284.004 46.8003 284.267 46.5828 284.469 46.3009 284.591 45.9821 284.817 45.289 284.831 44.5439 284.63 43.843 284.445 43.1157 284.104 42.4377 283.63 41.8561 283.186 41.2972 282.659 40.8098 282.067 40.411L284.188 37.1111C285.293 37.8051 286.24 38.7252 286.965 39.811 287.7 40.8972 288.24 42.1023 288.564 43.373 288.879 44.4937 289.001 45.6597 288.924 46.821 288.851 47.7494 288.526 48.6402 287.984 49.3981 287.387 50.186 286.621 50.8295 285.741 51.281 284.61 51.8642 283.412 52.3072 282.174 52.6001L274.344 54.5901 273.156 49.9131zM276.427 43.3041C276.16 43.3625 275.916 43.4989 275.727 43.696 275.555 43.8794 275.428 44.1002 275.356 44.3411 275.283 44.5944 275.255 44.859 275.275 45.1221 275.288 45.3921 275.328 45.6601 275.396 45.922 275.475 46.3653 275.646 46.7872 275.897 47.1605 276.149 47.5339 276.476 47.8505 276.857 48.0901 277.243 48.2954 277.666 48.422 278.101 48.4626 278.536 48.5033 278.975 48.4572 279.392 48.327L279.924 48.1941 279.755 47.5391C279.615 46.9751 279.443 46.4181 279.246 45.8571 279.072 45.3484 278.842 44.8605 278.562 44.4021 278.329 44.0215 278.013 43.699 277.638 43.4591 277.41 43.3161 277.146 43.2411 276.877 43.243 276.727 43.2445 276.578 43.2643 276.434 43.302L276.427 43.3041zM6.26562 30.7581 8.2041 25.8151 21.9912 31.2151 22.0293 31.1211 17.8398 23.984 20.1768 18.02 24.666 26.42 35.1982 23.629 32.8125 29.712 23.7373 31.7931 23.6992 31.884 30.8643 34.6841 28.9277 39.63 6.26562 30.7581zM269.395 37.593C269.107 37.1102 268.863 36.6037 268.662 36.0791 268.314 35.2307 268.117 34.3282 268.079 33.4121 268.054 32.6981 268.213 31.9895 268.539 31.354 268.869 30.7502 269.331 30.2286 269.891 29.828 270.532 29.3688 271.232 28.9972 271.972 28.723L278.308 26.3081 277.391 23.9081 281.06 22.5081 281.967 24.884 285.904 23.384 287.749 28.2261 283.812 29.7261 285.153 33.2461 281.48 34.646 280.139 31.123 274.405 33.307C273.83 33.4802 273.327 33.8366 272.973 34.322 272.848 34.5825 272.786 34.8681 272.791 35.1566 272.796 35.4451 272.867 35.7287 272.999 35.9851 273.1 36.2395 273.217 36.4863 273.353 36.724 273.47 36.946 273.618 37.1509 273.791 37.333L270.203 38.769C269.904 38.3992 269.636 38.0056 269.401 37.592L269.395 37.593zM264.584 24.166C263.413 23.2564 262.463 22.0942 261.804 20.7661 261.262 19.7401 260.896 18.6302 260.721 17.483 260.552 16.3995 260.601 15.2931 260.866 14.229 261.139 13.1622 261.641 12.1678 262.338 11.3151 263.124 10.3595 264.101 9.57902 265.207 9.02405 266.28 8.44568 267.458 8.08768 268.671 7.97107 269.767 7.87096 270.873 7.99689 271.919 8.34106 272.951 8.69227 273.903 9.24529 274.719 9.96802 275.592 10.7398 276.314 11.6673 276.848 12.703 277.373 13.684 277.705 14.7568 277.826 15.863 277.935 16.8936 277.818 17.9354 277.482 18.916 277.121 19.9305 276.558 20.861 275.826 21.651 274.977 22.5672 273.971 23.3235 272.854 23.884 272.663 23.984 272.474 24.0841 272.284 24.1841 272.104 24.28 271.918 24.3644 271.727 24.437L266.326 14.15C265.959 14.3827 265.651 14.6977 265.427 15.0701 265.207 15.4436 265.059 15.8546 264.989 16.2821 264.919 16.7277 264.919 17.1815 264.989 17.6271 265.058 18.0872 265.206 18.5321 265.424 18.943 265.744 19.6068 266.224 20.1797 266.823 20.609 267.339 20.9672 267.929 21.2045 268.549 21.3031L268.201 25.63C266.888 25.4728 265.642 24.9666 264.591 24.1641L264.584 24.166zM270.425 12.3661C270.015 12.3672 269.61 12.4554 269.237 12.625L272.388 18.644C273.099 18.292 273.652 17.6852 273.937 16.9441 274.074 16.5285 274.118 16.0878 274.066 15.6532 274.015 15.2186 273.868 14.8007 273.637 14.4291 273.418 13.9995 273.124 13.613 272.768 13.2881 272.442 12.9933 272.066 12.7583 271.659 12.594 271.275 12.4429 270.867 12.3659 270.455 12.3671L270.425 12.3661zM31.7383 21.1331C30.5105 20.9879 29.3266 20.5894 28.2607 19.963 27.1917 19.3772 26.2518 18.5826 25.4961 17.6261 24.8171 16.7594 24.3239 15.7619 24.0479 14.696 23.7799 13.6414 23.7269 12.5435 23.8926 11.468 24.0678 10.3139 24.4572 9.20253 25.04 8.19104 25.5763 7.2185 26.2925 6.35715 27.1514 5.65308 27.9599 5.00576 28.8986 4.5405 29.9033 4.28906 30.9523 4.04021 32.041 4.00621 33.1035 4.18909 34.3334 4.40995 35.515 4.84559 36.5938 5.47607 36.7788 5.58308 36.9664 5.68707 37.1514 5.79407 37.3303 5.89333 37.5041 6.00253 37.6709 6.12109L31.9541 16.2361C32.348 16.4204 32.7803 16.5071 33.2148 16.489 33.6471 16.4743 34.0726 16.3777 34.4688 16.2041 34.883 16.0222 35.2658 15.7762 35.6035 15.4751 35.9492 15.1638 36.2433 14.7995 36.4746 14.396 36.8563 13.766 37.0747 13.0508 37.1104 12.3151 37.1324 11.6868 37.0119 11.0617 36.7568 10.4871L40.5781 8.42908C41.1645 9.61988 41.4178 10.9469 41.3125 12.27 41.1863 13.7461 40.7277 15.1745 39.9707 16.448 39.4031 17.461 38.6693 18.3714 37.7998 19.1411 36.9808 19.8705 36.024 20.4291 34.9863 20.7841 34.2131 21.0447 33.4029 21.1762 32.5869 21.1731 32.3116 21.1711 32.0314 21.1567 31.7461 21.13L31.7383 21.1331zM30.1709 8.33301C29.7473 8.44352 29.3531 8.64604 29.0166 8.92603 28.6801 9.20601 28.4093 9.55659 28.2236 9.953 27.9786 10.3697 27.8122 10.8281 27.7334 11.3051 27.6621 11.7381 27.6694 12.1804 27.7539 12.6111 27.8383 13.023 28.0008 13.4147 28.2334 13.765 28.4547 14.1104 28.7488 14.4035 29.0947 14.624L32.4336 8.70911C31.943 8.42355 31.386 8.27116 30.8184 8.26709 30.6031 8.26675 30.3888 8.28784 30.1777 8.33008L30.1709 8.33301zM254.533 7.53308 257.72-1.22095 257.661-1.29895 251.413 3.19006 248.312-1.12097 268.069-15.33 271.17-11.016 259.146-2.37195 259.205-2.29395 267.473-1.93396 271.213 3.26611 261.723 2.479 258.346 12.8341 254.533 7.53308zM43.1953 4.73303C42.4613 4.44104 41.7697 4.05306 41.1377 3.5791L35.6699-.420898 34.1465 1.65308 30.9805-.667969 32.4805-2.71997 29.0811-5.21191l3.0625-4.18103L35.5439-6.89294 37.7705-9.93298 40.9375-7.61194 38.7109-4.5719 43.6631-.944946C44.1201-.556023 44.691-.326118 45.29-.289917 45.5756-.327553 45.848-.43084 46.0869-.591675 46.3258-.75251 46.5247-.966522 46.667-1.21692 46.8284-1.43966 46.9733-1.67365 47.1016-1.91699 47.2236-2.13687 47.3156-2.37233 47.374-2.61694L50.5264-.383911C50.379.0671997 50.1968.506172 49.9814.929077 49.7329 1.43273 49.4401 1.91332 49.1064 2.36511 48.5858 3.12183 47.934 3.77912 47.1816 4.30603 46.5996 4.71701 45.9203 4.96835 45.2109 5.03503 45.0876 5.0457 44.9645 5.05103 44.8418 5.05103 44.2805 5.04422 43.7255 4.93552 43.2031 4.7301L43.1953 4.73303zM49.8564-3.146C49.055-3.357 48.3235-3.77614 47.7363-4.36096 46.954-5.01818 46.4491-5.94698 46.3232-6.96094 46.2394-7.9539 46.3962-8.95244 46.7803-9.87195 47.2082-10.933 47.7774-11.9316 48.4717-12.8409 49.183-13.8 49.945-14.7207 50.7539-15.599L50.5654-15.7739C50.3323-16.0222 50.0392-16.2057 49.7139-16.3063 49.3885-16.4069 49.0425-16.4212 48.71-16.3479 48.0052-16.1652 47.3725-15.7718 46.8975-15.22 46.388-14.6682 46.0061-14.0109 45.7793-13.2949 45.55-12.618 45.4282-11.9095 45.417-11.1949L41.498-11.179C41.4786-12.4844 41.7348-13.7794 42.25-14.979 42.7583-16.187 43.4716-17.2978 44.3594-18.262 45.1304-19.1355 46.0434-19.8729 47.0596-20.443 47.8789-20.886 48.8028-21.0989 49.7334-21.059 50.7191-20.9851 51.6756-20.6916 52.5332-20.2 53.6409-19.5717 54.6671-18.8086 55.5869-17.928L61.5215-12.4469 58.249-8.89795 56.9932-10.058 56.9268-9.98694C57.1378-9.19028 57.0957-8.3477 56.8066-7.57593 56.5011-6.70412 56.0165-5.90596 55.3838-5.23291 54.9234-4.74218 54.4054-4.3091 53.8408-3.94299 53.2642-3.55964 52.6223-3.28418 51.9473-3.13 51.6264-3.05437 51.2984-3.01642 50.9688-3.01697 50.5971-3.01714 50.2261-3.06001 49.8643-3.1449L49.8564-3.146zM52.6494-13.146C52.2574-12.721 51.8815-12.271 51.5215-11.804 51.1895-11.3808 50.9061-10.9219 50.6758-10.4359 50.4809-10.034 50.3813-9.59265 50.3848-9.146 50.3908-8.93457 50.4412-8.72681 50.5332-8.53638 50.6252-8.34594 50.7571-8.17702 50.9189-8.04089 51.1119-7.84988 51.3586-7.72224 51.626-7.67493 51.8728-7.62766 52.1267-7.6411 52.3672-7.71399 52.6202-7.78971 52.8575-7.9106 53.0674-8.07092 53.2856-8.23067 53.4887-8.41078 53.6729-8.60889 54.0002-8.91791 54.2598-9.29147 54.4355-9.70593 54.6113-10.1204 54.6988-10.5668 54.6934-11.017 54.6127-11.896 54.1874-12.7072 53.5098-13.2729L53.1094-13.646 52.6494-13.146zM242.862-7.11389 244.097-8.29395 244.032-8.36499C243.224-8.20292 242.385-8.29686 241.633-8.63391 240.78-8.98966 240.011-9.5209 239.377-10.193 238.913-10.6822 238.509-11.2262 238.177-11.813 237.83-12.4112 237.593-13.0664 237.477-13.7479 237.361-14.4432 237.411-15.156 237.62-15.829 237.882-16.6149 238.343-17.3194 238.959-17.8739 239.664-18.6126 240.62-19.0601 241.639-19.1279 242.634-19.1499 243.621-18.9343 244.517-18.4989 245.549-18.0048 246.512-17.376 247.379-16.6289 248.293-15.8591 249.167-15.0425 249.997-14.182L250.183-14.36C250.444-14.5787 250.645-14.8613 250.766-15.1803 250.886-15.4993 250.922-15.8439 250.87-16.1809 250.726-16.8944 250.369-17.5475 249.846-18.054 249.328-18.5976 248.696-19.0195 247.995-19.2889 247.334-19.5571 246.636-19.721 245.925-19.7749L246.139-23.6869C247.444-23.6314 248.723-23.2976 249.889-22.7079 251.064-22.1284 252.131-21.3504 253.042-20.408 253.866-19.5869 254.545-18.6324 255.051-17.585 255.449-16.742 255.608-15.8061 255.512-14.8789 255.377-13.8991 255.026-12.9615 254.484-12.1339 253.788-11.0681 252.964-10.0918 252.03-9.22693L246.2-3.63293 242.862-7.11389zM242.45-14.4779C242.249-14.293 242.106-14.0547 242.036-13.7909 241.983-13.5474 241.983-13.2955 242.036-13.052 242.098-12.7941 242.205-12.5492 242.353-12.329 242.497-12.1009 242.665-11.8881 242.853-11.694 243.14-11.3471 243.496-11.064 243.899-10.863 244.302-10.6621 244.743-10.5476 245.192-10.527 245.629-10.5386 246.06-10.6371 246.458-10.8169 246.856-10.9967 247.215-11.254 247.513-11.574L247.913-11.95 247.448-12.4359C247.043-12.8569 246.623-13.2619 246.173-13.6479 245.773-14.0069 245.332-14.3179 244.86-14.575 244.471-14.7915 244.038-14.9179 243.593-14.9449H243.534C243.332-14.9404 243.134-14.8961 242.949-14.8146 242.764-14.7331 242.598-14.616 242.458-14.47L242.45-14.4779zM49.8135-32.778 54.0273-36.1129 59.7832-28.8469 59.8574-28.9049 60.4863-41.2269 65.8867-45.505 64.707-31.183 80.4902-28 74.8643-23.5439 61.7129-26.5129 61.6611-26.474 68.1748-18.245 63.9648-14.907 49.8135-32.778zM230.132-19.178 231.738-29.3679 230.255-30.512 224.729-23.349 220.47-26.632 234.39-44.678 241.271-39.3719C242.124-38.7143 242.905-37.9678 243.601-37.1449 244.265-36.373 244.781-35.4852 245.122-34.526 245.45-33.6006 245.542-32.608 245.391-31.6379 245.191-30.5147 244.703-29.4627 243.975-28.585 243.152-27.4436 241.958-26.6243 240.598-26.2679 239.22-25.953 237.78-26.0708 236.472-26.605L235.228-15.245 230.132-19.178zM232.663-33.6909 234.739-32.0909C235.109-31.8082 235.499-31.5535 235.906-31.329 236.304-31.1089 236.734-30.9503 237.18-30.8589 237.602-30.7738 238.039-30.8018 238.447-30.9399 238.914-31.1146 239.317-31.4267 239.604-31.835 239.904-32.1825 240.091-32.6133 240.14-33.0699 240.166-33.4645 240.092-33.8593 239.923-34.2169 239.74-34.5947 239.495-34.9397 239.199-35.2379 238.904-35.5468 238.586-35.833 238.247-36.094L235.914-37.8939 232.663-33.6909zM73.2324-41.745 77.7324-44.4929 86.0791-30.8059 81.5703-28.054 73.2324-41.745zM90.4561-34.553C89.821-34.8171 89.2544-35.2227 88.7998-35.7389 88.2755-36.3299 87.8336-36.9897 87.4873-37.7L84.4443-43.757 82.1445-42.6 80.3809-46.1069 82.6523-47.251 80.7529-51.017 85.3848-53.3469 87.2773-49.578 90.6445-51.2699 92.4082-47.7599 89.041-46.0709 91.7998-40.584C92.0305-40.0299 92.4355-39.5658 92.9531-39.262 93.2242-39.1655 93.5132-39.1334 93.7988-39.1681 94.0845-39.2028 94.3585-39.3033 94.5986-39.4619 94.8437-39.5874 95.0799-39.7294 95.3057-39.887 95.5136-40.027 95.7008-40.1952 95.8623-40.387L97.6631-36.965C97.3258-36.629 96.9618-36.32 96.5762-36.0409 96.1252-35.7055 95.6461-35.4104 95.1436-35.1589 94.3344-34.7227 93.4543-34.4343 92.5439-34.307 92.3504-34.2847 92.1558-34.2733 91.9609-34.2729 91.4486-34.2663 90.9399-34.3604 90.4639-34.5499L90.4561-34.553zM100.646-40.0039C99.6158-40.422 98.6857-41.0512 97.9141-41.851 97.069-42.7397 96.4194-43.7957 96.0078-44.9509 95.5642-46.0839 95.3634-47.2974 95.418-48.5129 95.4731-49.6227 95.7614-50.7084 96.2646-51.699 96.7775-52.6957 97.4848-53.5798 98.3447-54.299 99.2577-55.0719 100.3-55.6775 101.424-56.0879 101.965-56.2908 102.524-56.4429 103.093-56.542 103.65-56.6409 104.214-56.6973 104.78-56.7109 105.316-56.7268 105.853-56.6855 106.381-56.5879 106.855-56.5004 107.317-56.3568 107.758-56.1599L106.138-51.772C105.689-52.0366 105.183-52.1889 104.663-52.2159 104.12-52.2569 103.574-52.182 103.062-51.996 102.569-51.8185 102.124-51.5277 101.763-51.147 101.425-50.7861 101.162-50.3606 100.993-49.896 100.821-49.419 100.735-48.9151 100.74-48.408 100.747-47.8703 100.849-47.3381 101.041-46.8359 101.226-46.3331 101.494-45.8651 101.835-45.4519 102.156-45.0581 102.553-44.7321 103.001-44.4929 103.444-44.2603 103.929-44.1215 104.428-44.085 104.964-44.0498 105.503-44.1338 106.003-44.3309 106.513-44.5233 106.983-44.8104 107.387-45.177 107.785-45.5189 108.088-45.9576 108.268-46.4509L112.261-44.1339C111.815-43.2311 111.174-42.4384 110.385-41.813 109.506-41.0888 108.511-40.519 107.441-40.1279 106.316-39.6947 105.125-39.458 103.92-39.428H103.734C102.68-39.4201 101.635-39.6149 100.654-40.002L100.646-40.0039zm8.265-26.842L114.062-68 116.325-57.917 116.39-57.9299C116.649-58.7161 117.102-59.4247 117.706-59.991 118.432-60.6907 119.344-61.1657 120.334-61.3589 121.255-61.5969 122.22-61.6093 123.146-61.3949 123.913-61.2003 124.626-60.8372 125.233-60.3319 125.828-59.8183 126.317-59.1928 126.671-58.491 127.036-57.7746 127.31-57.0158 127.489-56.2319L129.658-46.558 124.472-45.3939 122.571-53.8789C122.479-54.2989 122.353-54.7109 122.195-55.111 122.058-55.4697 121.855-55.7994 121.596-56.0829 121.358-56.3407 121.06-56.5347 120.728-56.647 120.34-56.7594 119.929-56.7639 119.539-56.6599 119.137-56.592 118.757-56.4268 118.433-56.1788 118.108-55.9309 117.85-55.6076 117.679-55.2369 117.336-54.4378 117.269-53.547 117.49-52.7059L119.384-44.2529 114.23-43.099 108.911-66.8459zM72.041-44.6189C71.667-44.698 71.3128-44.8538 71.002-45.0763 70.6911-45.2988 70.4298-45.5834 70.2344-45.912 70.0374-46.2387 69.9065-46.6008 69.8486-46.9779 69.7937-47.3517 69.8195-47.7329 69.9238-48.0959 70.0308-48.4674 70.1998-48.818 70.4238-49.1329 70.6564-49.4705 70.959-49.7537 71.3115-49.9629 71.6551-50.1725 72.0357-50.3145 72.4326-50.381 72.8121-50.4484 73.2016-50.4405 73.5781-50.3579 73.9456-50.278 74.2931-50.126 74.6016-49.9109 74.9271-49.6898 75.2-49.4 75.4014-49.0619 75.6071-48.7267 75.7403-48.3519 75.791-47.9619 75.8364-47.5879 75.8111-47.2088 75.7168-46.844 75.6172-46.4727 75.4453-46.1247 75.2109-45.8199 74.9698-45.4991 74.6686-45.2275 74.3252-45.0199 73.8467-44.7153 73.2928-44.5508 72.7256-44.5449 72.4979-44.5436 72.2711-44.5678 72.0488-44.6169L72.041-44.6189zM161.727-47.3409 162.361-56.075C162.393-56.5056 162.388-56.9382 162.346-57.3679 162.306-57.7479 162.207-58.1191 162.051-58.4679 161.906-58.7879 161.676-59.0617 161.386-59.2589 161.041-59.4808 160.642-59.6052 160.232-59.6189 159.805-59.6607 159.373-59.5982 158.975-59.4369 158.613-59.2819 158.292-59.0459 158.036-58.7469 157.772-58.4294 157.566-58.0671 157.43-57.677 157.279-57.2628 157.187-56.8295 157.157-56.3899L156.525-47.72 151.226-48.1089 152.393-64.0969 157.492-63.724 157.334-61.5099 157.396-61.5039C157.632-61.8551 157.911-62.1762 158.226-62.46 158.567-62.7762 158.956-63.0364 159.379-63.231 159.829-63.4405 160.301-63.6014 160.786-63.7109 161.307-63.8268 161.842-63.8638 162.374-63.8209 163.319-63.7784 164.239-63.5118 165.061-63.043 165.744-62.6373 166.327-62.0821 166.766-61.4189 167.187-60.7567 167.474-60.0174 167.608-59.2439 167.752-58.4525 167.797-57.6464 167.741-56.844L167.015-46.9559 161.727-47.3409zM137.438-47.37C136.376-47.651 135.381-48.1389 134.508-48.8059 133.638-49.4818 132.926-50.3391 132.421-51.318 131.861-52.4197 131.536-53.626 131.468-54.86 131.365-56.0759 131.507-57.3002 131.887-58.46 132.23-59.5069 132.786-60.4714 133.52-61.293 134.25-62.0972 135.135-62.7472 136.12-63.205 137.176-63.7 138.314-63.9923 139.478-64.0669 140.586-64.1586 141.701-64.0378 142.764-63.7109 143.751-63.3973 144.66-62.8744 145.428-62.178 146.213-61.4406 146.842-60.5521 147.275-59.5659 147.776-58.4223 148.069-57.1984 148.141-55.9519 148.154-55.7349 148.173-55.521 148.186-55.307 148.203-55.1045 148.207-54.9011 148.198-54.698L136.608-53.8519C136.674-53.4219 136.842-53.014 137.099-52.663 137.352-52.3105 137.671-52.0091 138.036-51.7749 138.415-51.5308 138.83-51.3492 139.267-51.2369 139.718-51.1203 140.185-51.0777 140.65-51.111 141.386-51.1428 142.102-51.3565 142.734-51.7329 143.268-52.0642 143.721-52.5104 144.06-53.0389L147.888-50.9939C147.219-49.8502 146.257-48.906 145.101-48.2589 143.802-47.5479 142.36-47.1378 140.881-47.059 140.607-47.039 140.333-47.0289 140.065-47.0289 139.181-47.0271 138.301-47.1418 137.446-47.37H137.438zM139.778-60.438C139.295-60.4076 138.821-60.2912 138.379-60.094 137.981-59.9113 137.617-59.6613 137.304-59.355 137.006-59.0562 136.768-58.7032 136.604-58.3149 136.44-57.9389 136.359-57.532 136.367-57.1219L143.141-57.6219C143.097-58.412 142.762-59.158 142.201-59.7159 141.925-59.9705 141.601-60.1671 141.247-60.2942 140.894-60.4213 140.519-60.4763 140.144-60.4559 140.04-60.4499 139.913-60.4459 139.786-60.4359L139.778-60.438z" fill="#575250"/></svg>