<svg width="105" height="121" viewBox="0 0 105 121" fill="none" xmlns="http://www.w3.org/2000/svg">
<path d="M87.6145 0.396973H18.1625C14.9381 0.397205 11.7774 1.29531 9.03467 2.99065C6.2919 4.68599 4.0754 7.11159 2.63351 9.99567C1.19163 12.8798 0.581328 16.1084 0.870993 19.3198C1.16066 22.5312 2.33884 25.5985 4.27354 28.178L33.2105 66.762C34.7132 68.7656 35.5255 71.2025 35.5255 73.707V108.797C35.5239 110.998 36.1498 113.154 37.3297 115.011C38.5097 116.869 40.1948 118.352 42.1876 119.286C44.1803 120.22 46.3981 120.567 48.5809 120.285C50.7637 120.004 52.8209 119.106 54.5115 117.697L66.0865 108.051C67.3902 106.965 68.439 105.605 69.1588 104.068C69.8785 102.531 70.2516 100.855 70.2515 99.158V73.708C70.2514 71.2035 71.0637 68.7665 72.5665 66.763L101.505 28.178C103.439 25.5984 104.617 22.531 104.907 19.3195C105.197 16.108 104.586 12.8793 103.144 9.99523C101.702 7.11111 99.4857 4.68552 96.7428 2.99025C93.9999 1.29499 90.8391 0.397019 87.6145 0.396973Z" fill="url(#paint0_linear)"/>
<path fill-rule="evenodd" clip-rule="evenodd" d="M14.3952 13.365C15.5607 12.3661 17.0753 11.8711 18.6058 11.9889C20.1362 12.1066 21.5572 12.8275 22.5562 13.993L48.4942 44.253C49.0376 44.8869 49.7117 45.3957 50.4702 45.7446C51.2287 46.0935 52.0538 46.2741 52.8887 46.2741C53.7236 46.2741 54.5487 46.0935 55.3072 45.7446C56.0657 45.3957 56.7398 44.8869 57.2832 44.253L83.2202 13.993C84.2238 12.8435 85.6406 12.1368 87.1626 12.0267C88.6845 11.9166 90.1884 12.4119 91.347 13.4049C92.5056 14.3979 93.2252 15.8083 93.3492 17.3292C93.4732 18.85 92.9916 20.3584 92.0092 21.526L66.0742 51.787C64.4442 53.6887 62.422 55.2152 60.1465 56.2618C57.8709 57.3084 55.3959 57.8503 52.8912 57.8503C50.3865 57.8503 47.9115 57.3084 45.6359 56.2618C43.3604 55.2152 41.3382 53.6887 39.7082 51.787L13.7672 21.526C12.7683 20.3605 12.2733 18.8459 12.3911 17.3154C12.5089 15.785 13.2298 14.3639 14.3952 13.365Z" fill="#EB673F"/>
<defs>
<linearGradient id="paint0_linear" x1="0.800781" y1="0.396973" x2="68.741" y2="252.164" gradientUnits="userSpaceOnUse">
<stop stop-color="#4D4846"/>
<stop offset="1" stop-color="#0F0E0E" stop-opacity="0"/>
</linearGradient>
</defs>
</svg>
