<svg width="1920" height="466" viewBox="0 0 1920 466" fill="none" xmlns="http://www.w3.org/2000/svg"><path style="mix-blend-mode:screen" opacity=".4" d="M.613327 101.663C11.9893 86.236 25.3203 73.936 44.7713 69.26 61.9713 65.119 79.8223 66.41 97.0903 67.654 110.018 68.588 123.39 69.554 136.277 68.202 164.768 65.202 190.807 51.058 215.987 37.371 235.346 26.853 255.365 15.971 276.757 9.86303 308.791.714025 327.325 16.452 345.257 31.663 356.766 41.43 368.67 51.524 384.34 55.445 413.561 62.764 431.83 49.703 452.964 34.58 465.664 25.494 478.787 16.1 495.441 10.466 541.047-4.97697 575.765-3.38698 608.015 15.615 634.067 30.966 651.882 56.084 669.115 80.377 678.222 93.218 687.64 106.495 698.162 118.162 712.103 133.634 732.192 137.135 753.468 140.836 771.512 143.981 790.174 147.23 804.662 158.511 821.067 171.286 829.514 187.359 837.688 202.901 851.417 229.015 863.275 251.569 909.66 251.743 967.244 251.818 1018.22 213.257 1060.65 175.377L1070.18 166.834C1110.99 130.178 1153.18 92.272 1206.6 80.444 1253.5 70.063 1282.85 97.376 1311.23 123.793 1325.12 136.734 1339.49 150.106 1355.95 159.288 1410.61 189.788 1492.17 199.015 1564.13 207.155 1596.05 210.769 1626.2 214.179 1652.86 219.141 1690.11 226.078 1722.8 233.741 1745.68 257.403 1765.04 277.426 1772.61 304.814 1779.94 331.303 1783.58 344.493 1787.36 358.135 1792.54 370.677 1819.9 436.961 1866.53 455.321 1920 460.877V465.677C1865.79 459.939 1816.27 440.932 1788.03 372.532 1782.74 359.712 1778.93 345.932 1775.24 332.594 1767.75 305.505 1760.68 279.918 1742.18 260.794 1720.31 238.165 1688.38 230.714 1651.97 223.934 1625.48 219.001 1595.42 215.599 1563.59 211.997 1491.17 203.803 1409.09 194.513 1353.58 163.545 1336.61 154.077 1322.02 140.497 1307.92 127.362 1279.2 100.626 1252.08 75.362 1207.66 85.204 1155.5 96.755 1113.78 134.224 1073.44 170.458L1063.9 179.013C1020.9 217.404 969.017 256.613 910.126 256.613H909.641C860.326 256.43 847.241 231.528 833.374 205.166 825.445 190.08 817.243 174.484 801.674 162.357 788.144 151.823 770.092 148.678 752.633 145.637 731.482 141.953 709.612 138.144 694.543 121.428 683.834 109.545 674.333 96.152 665.143 83.195 648.211 59.322 630.702 34.635 605.543 19.815 574.63 1.59402 541.16.136024 497.006 15.078 481.037 20.484 468.206 29.666 455.798 38.541 434.602 53.709 414.57 68.036 383.154 60.169 366.384 55.974 354.041 45.502 342.104 35.379 324.367 20.336 307.622 6.11602 278.093 14.551 257.219 20.509 237.437 31.259 218.314 41.651 192.714 55.563 166.244 69.951 136.786 73.051 123.459 74.458 109.876 73.47 96.7363 72.516 79.8453 71.296 62.3823 70.031 45.9113 73.997 25.7393 78.855 12.3503 92.897.611328 110.122L.613327 101.663z" fill="url(#paint0_linear)"/><defs><linearGradient id="paint0_linear" x1="2319.23" y1="232.839" x2="-588.641" y2="232.839" gradientUnits="userSpaceOnUse"><stop stop-color="#6f6f6f"/><stop offset=".108" stop-color="#5d5d5d"/><stop offset=".22" stop-color="#363636"/><stop offset=".338" stop-color="#131313"/><stop offset=".402" stop-color="#060606"/><stop offset=".465" stop-color="#0c0c0c"/><stop offset=".556" stop-color="#1e1e1e"/><stop offset=".66" stop-color="#3c3c3c"/><stop offset=".752" stop-color="#5d5d5d"/><stop offset="1" stop-color="#6f6f6f"/></linearGradient></defs></svg>