<svg width="1920" height="466" viewBox="0 0 1920 466" fill="none" xmlns="http://www.w3.org/2000/svg"><path style="mix-blend-mode:screen" opacity=".4" d="M1920 101.66C1908.62 86.234 1895.29 73.936 1875.84 69.26 1858.64 65.119 1840.79 66.41 1823.52 67.654 1810.6 68.588 1797.22 69.554 1784.34 68.202 1755.85 65.202 1729.81 51.058 1704.63 37.371 1685.27 26.853 1665.25 15.971 1643.86 9.86302 1611.82.714025 1593.29 16.452 1575.36 31.663 1563.85 41.43 1551.94 51.524 1536.27 55.445 1507.05 62.764 1488.78 49.703 1467.65 34.58 1454.95 25.494 1441.83 16.1 1425.17 10.466 1379.57-4.97697 1344.85-3.38698 1312.6 15.615 1286.55 30.966 1268.73 56.084 1251.5 80.377 1242.39 93.218 1232.97 106.495 1222.45 118.162 1208.51 133.634 1188.42 137.135 1167.14 140.836 1149.1 143.981 1130.44 147.23 1115.95 158.511 1099.55 171.286 1091.1 187.359 1082.92 202.901 1069.2 229.015 1057.34 251.569 1010.95 251.743 953.368 251.818 902.39 213.257 859.958 175.377L850.428 166.834C809.618 130.178 767.428 92.272 714.009 80.444 667.109 70.063 637.759 97.376 609.38 123.793 595.489 136.734 581.121 150.106 564.662 159.288 510.007 189.788 428.442 199.015 356.478 207.155 324.555 210.762 294.408 214.173 267.755 219.133 230.505 226.07 197.811 233.733 174.934 257.395 155.575 277.418 148.003 304.806 140.68 331.295 137.033 344.485 133.257 358.127 128.08 370.669 100.717 436.953 54.0872 455.313.615234 460.869V465.669C54.8302 459.931 104.348 440.924 132.582 372.524 137.872 359.704 141.682 345.924 145.373 332.586 152.862 305.497 159.94 279.91 178.432 260.786 200.31 238.157 232.232 230.706 268.644 223.926 295.131 218.993 325.195 215.591 357.026 211.989 429.447 203.795 511.526 194.505 567.04 163.537 584.009 154.069 598.597 140.489 612.7 127.354 641.419 100.618 668.537 75.354 712.956 85.196 765.117 96.747 806.831 134.216 847.172 170.449L856.715 179.004C899.715 217.395 951.598 256.604 1010.49 256.604H1010.97C1060.29 256.421 1073.37 231.519 1087.24 205.157 1095.17 190.071 1103.37 174.475 1118.94 162.348 1132.47 151.814 1150.52 148.669 1167.98 145.628 1189.13 141.944 1211 138.135 1226.07 121.419 1236.78 109.536 1246.28 96.143 1255.47 83.186 1272.4 59.313 1289.91 34.626 1315.07 19.806 1345.98 1.59102 1379.46.133024 1423.61 15.075 1439.58 20.481 1452.41 29.663 1464.81 38.538 1486.01 53.707 1506.04 68.029 1537.46 60.167 1554.23 55.972 1566.57 45.5 1578.51 35.377 1596.25 20.333 1612.99 6.11302 1642.52 14.548 1663.39 20.506 1683.18 31.256 1702.3 41.648 1727.9 55.56 1754.37 69.948 1783.83 73.048 1797.15 74.455 1810.74 73.467 1823.88 72.513 1840.77 71.293 1858.23 70.028 1874.7 73.994 1894.87 78.852 1908.26 92.894 1920 110.119V101.66z" fill="url(#paint0_linear)"/><defs><linearGradient id="paint0_linear" x1="-398.617" y1="232.835" x2="2509.25" y2="232.835" gradientUnits="userSpaceOnUse"><stop stop-color="#6f6f6f"/><stop offset=".108" stop-color="#5d5d5d"/><stop offset=".22" stop-color="#363636"/><stop offset=".752" stop-color="#5d5d5d"/><stop offset="1" stop-color="#6f6f6f"/></linearGradient></defs></svg>