<svg width="1920" height="466" viewBox="0 0 1920 466" fill="none" xmlns="http://www.w3.org/2000/svg"><path style="mix-blend-mode:screen" opacity=".4" d="M.615967 101.66C11.9929 86.234 25.3229 73.936 44.7739 69.26 61.9739 65.119 79.8251 66.41 97.093 67.654 110.021 68.588 123.393 69.554 136.28 68.202 164.771 65.202 190.81 51.058 215.99 37.371 235.349 26.853 255.368 15.971 276.76 9.86302 308.794.714025 327.328 16.452 345.26 31.663 356.769 41.43 368.673 51.524 384.343 55.445 413.564 62.764 431.833 49.703 452.967 34.58 465.667 25.494 478.79 16.1 495.444 10.466 541.05-4.97697 575.768-3.38698 608.019 15.615 634.071 30.966 651.886 56.084 669.119 80.377 678.226 93.218 687.644 106.495 698.166 118.162 712.107 133.634 732.196 137.135 753.472 140.836 771.516 143.981 790.178 147.23 804.666 158.511 821.071 171.286 829.518 187.359 837.692 202.901 851.421 229.015 863.279 251.569 909.664 251.743 967.248 251.818 1018.23 213.257 1060.66 175.377L1070.19 166.834C1111 130.178 1153.19 92.272 1206.61 80.444 1253.51 70.063 1282.86 97.376 1311.24 123.793 1325.13 136.734 1339.49 150.106 1355.95 159.288 1410.61 189.788 1492.17 199.015 1564.14 207.155 1596.06 210.762 1626.21 214.173 1652.86 219.133 1690.11 226.07 1722.8 233.733 1745.68 257.395 1765.04 277.418 1772.61 304.806 1779.94 331.295 1783.58 344.485 1787.36 358.127 1792.54 370.669 1819.9 436.953 1866.53 455.313 1920 460.869V465.669C1865.79 459.931 1816.27 440.924 1788.03 372.524 1782.74 359.704 1778.93 345.924 1775.24 332.586 1767.75 305.497 1760.68 279.91 1742.18 260.786 1720.31 238.157 1688.38 230.706 1651.97 223.926 1625.48 218.993 1595.42 215.591 1563.59 211.989 1491.17 203.795 1409.09 194.505 1353.58 163.537 1336.61 154.069 1322.02 140.489 1307.92 127.354 1279.2 100.618 1252.08 75.354 1207.66 85.196 1155.5 96.747 1113.78 134.216 1073.44 170.449L1063.9 179.004C1020.9 217.395 969.018 256.604 910.127 256.604H909.642C860.327 256.421 847.242 231.519 833.375 205.157 825.446 190.071 817.244 174.475 801.675 162.348 788.145 151.814 770.093 148.669 752.634 145.628 731.483 141.944 709.613 138.135 694.544 121.419 683.835 109.536 674.334 96.143 665.144 83.186 648.212 59.313 630.703 34.626 605.544 19.806 574.634 1.59102 541.161.133024 497.01 15.075 481.041 20.481 468.21 29.663 455.802 38.538 434.602 53.707 414.573 68.029 383.157 60.167 366.387 55.972 354.044 45.5 342.107 35.377 324.371 20.333 307.625 6.11302 278.097 14.548 257.223 20.506 237.441 31.256 218.318 41.648 192.718 55.56 166.248 69.948 136.79 73.048 123.463 74.455 109.88 73.467 96.74 72.513 79.849 71.293 62.3859 70.028 45.9149 73.994 25.7429 78.852 12.354 92.894.61499 110.119L.615967 101.66z" fill="url(#paint0_linear)"/><defs><linearGradient id="paint0_linear" x1="2319.23" y1="232.835" x2="-588.637" y2="232.835" gradientUnits="userSpaceOnUse"><stop stop-color="#6f6f6f"/><stop offset=".108" stop-color="#5d5d5d"/><stop offset=".22" stop-color="#363636"/><stop offset=".752" stop-color="#5d5d5d"/><stop offset="1" stop-color="#6f6f6f"/></linearGradient></defs></svg>