<svg width="1920" height="788" viewBox="0 0 1920 788" fill="none" xmlns="http://www.w3.org/2000/svg">
<path style="mix-blend-mode:screen" opacity="0.4" d="M135.801 163.679C130.37 174.749 85.781 262.591 39.167 262.579C33.7292 262.574 28.3601 261.364 23.446 259.036C10.883 253.161 5.004 239.922 0 226.226V211.899C0.946 214.405 1.842 216.919 2.726 219.404C8.115 234.556 13.21 248.866 25.512 254.616C64.176 272.71 110.28 204.616 131.423 161.533C136.132 151.933 140.723 141.908 145.16 132.208C163.947 91.1621 183.372 48.7181 219.348 21.1931C245.52 1.16612 285.823 -4.93288 317.348 6.36012C340.01 14.4751 355.178 30.4281 360.062 51.2811C362.883 63.3301 362.095 75.9811 361.323 88.2191C360.323 104.238 359.373 119.37 365.949 132.908C375.72 153.008 397.166 160.972 419.873 169.408C437.436 175.93 455.6 182.676 468.761 195.567C492.896 219.2 493.761 254.927 494.593 289.479C494.68 293.13 494.777 296.747 494.883 300.329C495.46 318.012 500.538 376.517 541.746 387.047C582.966 397.552 614.967 349.897 629.862 305.872C646.902 255.516 668.356 227.128 695.449 219.079C718.576 212.2 745.772 220.909 776.271 244.927C846.099 299.909 904.608 311.713 984.953 287.027C1003.03 281.476 1020.13 274.555 1036.67 267.863C1073.2 253.088 1107.69 239.263 1150.54 239.409C1192.82 239.679 1233.68 246.28 1273.19 252.661C1335.81 262.78 1394.96 272.331 1460.71 259.445C1471.4 257.345 1482.23 254.79 1492.7 252.309C1517.84 246.363 1543.84 240.209 1570.16 239.937C1604.35 239.613 1647.74 251.861 1667.26 287.401C1680.8 312.038 1679.26 341.222 1677.79 369.451C1676.21 399.527 1674.73 427.935 1689.71 451.551C1700.85 469.093 1718.66 479.86 1737.51 491.257C1754.77 501.688 1772.61 512.471 1784.63 528.901C1801.23 551.633 1803.53 580.278 1805.75 607.977C1807.08 624.552 1808.45 641.683 1812.85 657.445C1827.19 708.785 1871.77 743.831 1914.88 777.72C1916.39 778.911 1917.87 780.093 1919.38 781.28V787.491C1916.87 785.512 1914.39 783.537 1911.87 781.554C1868.14 747.175 1822.92 711.631 1808.15 658.754C1803.62 642.536 1802.23 625.168 1800.89 608.364C1798.62 580.093 1796.48 553.394 1780.68 531.774C1769.25 516.132 1751.84 505.606 1734.99 495.425C1716.48 484.235 1697.34 472.668 1685.59 454.163C1669.77 429.232 1671.37 398.708 1672.92 369.192C1674.36 341.647 1675.85 313.164 1662.99 289.743C1644.5 256.086 1602.89 244.448 1570.21 244.805C1544.43 245.075 1518.7 251.161 1493.82 257.049C1483.3 259.538 1472.42 262.111 1461.65 264.223C1395.03 277.284 1332.69 267.21 1272.41 257.468C1233.08 251.116 1192.41 244.548 1150.5 244.282C1108.87 243.992 1074.56 257.791 1038.49 272.382C1021.86 279.112 1004.65 286.074 986.379 291.687C905.341 316.587 843.6 304.151 773.254 248.757C744.066 225.772 718.363 217.357 696.83 223.751C671.726 231.217 650.746 259.367 634.485 307.436C618.918 353.436 584.992 403.136 540.544 391.773C496.05 380.401 490.623 319.029 490.022 300.491C489.906 296.902 489.822 293.268 489.727 289.604C488.918 256.022 488.08 221.304 465.36 199.052C452.938 186.887 435.267 180.323 418.178 173.976C395.578 165.576 372.199 156.895 361.578 135.038C354.442 120.346 355.471 103.862 356.471 87.9181C357.218 76.0311 357.99 63.7421 355.33 52.3981C350.837 33.2051 336.772 18.4841 315.72 10.9501C285.665 0.188119 247.253 5.98812 222.32 25.0611C187.311 51.8471 168.138 93.7351 149.601 134.242C145.146 143.967 140.54 154.025 135.801 163.679Z" fill="url(#paint0_linear)"/>
<defs>
<linearGradient id="paint0_linear" x1="2071.01" y1="394.113" x2="-128.598" y2="394.113" gradientUnits="userSpaceOnUse">
<stop stop-color="#6F6F6F"/>
<stop offset="0.108" stop-color="#5D5D5D"/>
<stop offset="0.22" stop-color="#363636"/>
<stop offset="0.752" stop-color="#5D5D5D"/>
<stop offset="1" stop-color="#6F6F6F"/>
</linearGradient>
</defs>
</svg>
