<svg width="1920" height="787" viewBox="0 0 1920 787" fill="none" xmlns="http://www.w3.org/2000/svg">
<path style="mix-blend-mode:screen" opacity="0.4" d="M1784.2 162.943C1789.63 174.013 1834.22 261.855 1880.84 261.843C1886.27 261.838 1891.64 260.628 1896.56 258.3C1909.12 252.425 1915 239.186 1920 225.49V211.163C1919.06 213.669 1918.16 216.183 1917.28 218.668C1911.89 233.82 1906.79 248.13 1894.49 253.88C1855.83 271.974 1809.72 203.88 1788.58 160.797C1783.87 151.197 1779.28 141.172 1774.84 131.472C1756.05 90.4263 1736.63 47.9823 1700.65 20.4573C1674.48 0.430283 1634.18 -5.66872 1602.65 5.62428C1579.99 13.7393 1564.82 29.6923 1559.94 50.5453C1557.12 62.5943 1557.91 75.2453 1558.68 87.4833C1559.68 103.502 1560.63 118.634 1554.05 132.172C1544.28 152.272 1522.84 160.236 1500.13 168.672C1482.57 175.194 1464.4 181.94 1451.24 194.831C1427.11 218.464 1426.24 254.191 1425.41 288.743C1425.32 292.395 1425.22 296.011 1425.12 299.593C1424.54 317.276 1419.46 375.781 1378.26 386.311C1337.04 396.816 1305.03 349.161 1290.14 305.136C1273.1 254.78 1251.65 226.392 1224.55 218.343C1201.43 211.464 1174.23 220.173 1143.73 244.191C1073.9 299.173 1015.39 310.977 935.048 286.291C916.975 280.74 899.869 273.819 883.327 267.127C846.799 252.352 812.313 238.527 769.462 238.673C727.18 238.943 686.324 245.544 646.81 251.925C584.189 262.044 525.041 271.595 459.288 258.709C448.604 256.609 437.771 254.054 427.299 251.573C402.156 245.627 376.159 239.473 349.837 239.201C315.649 238.877 272.259 251.125 252.737 286.665C239.203 311.302 240.737 340.486 242.211 368.715C243.788 398.791 245.273 427.199 230.287 450.815C219.155 468.357 201.344 479.124 182.487 490.521C165.231 500.952 147.387 511.735 135.375 528.165C118.765 550.9 116.47 579.544 114.255 607.242C112.927 623.817 111.555 640.948 107.155 656.71C92.8092 708.05 48.2282 743.1 5.11621 776.986C3.60621 778.177 2.12521 779.359 0.616211 780.546V786.757C3.12621 784.778 5.60321 782.803 8.13021 780.82C51.8552 746.441 97.0702 710.9 111.84 658.022C116.371 641.804 117.761 624.436 119.109 607.632C121.37 579.361 123.509 552.662 139.309 531.042C150.739 515.4 168.157 504.874 185.002 494.693C203.515 483.503 222.654 471.936 234.402 453.431C250.222 428.5 248.625 397.976 247.077 368.46C245.633 340.915 244.144 312.432 257.006 289.011C275.494 255.354 317.1 243.716 349.786 244.073C375.564 244.343 401.292 250.429 426.173 256.317C436.695 258.806 447.573 261.379 458.348 263.491C524.96 276.552 587.303 266.478 647.588 256.736C686.916 250.384 727.58 243.816 769.494 243.55C811.121 243.26 845.433 257.059 881.5 271.65C898.138 278.38 915.343 285.342 933.615 290.955C1014.65 315.855 1076.39 303.419 1146.74 248.025C1175.93 225.04 1201.63 216.625 1223.17 223.019C1248.28 230.483 1269.26 258.634 1285.52 306.704C1301.09 352.704 1335.01 402.404 1379.46 391.041C1423.96 379.669 1429.38 318.297 1429.98 299.759C1430.1 296.17 1430.18 292.536 1430.28 288.872C1431.09 255.29 1431.93 220.572 1454.65 198.32C1467.07 186.155 1484.74 179.591 1501.83 173.244C1524.43 164.844 1547.81 156.163 1558.43 134.306C1565.56 119.614 1564.53 103.13 1563.53 87.1863C1562.79 75.2993 1562.02 63.0103 1564.68 51.6663C1569.17 32.4733 1583.23 17.7523 1604.29 10.2183C1634.34 -0.543723 1672.75 5.25628 1697.69 24.3293C1732.69 51.1153 1751.87 93.0033 1770.4 133.51C1774.86 143.231 1779.47 153.289 1784.2 162.943Z" fill="url(#paint0_linear)"/>
<defs>
<linearGradient id="paint0_linear" x1="-151.015" y1="393.379" x2="2048.6" y2="393.379" gradientUnits="userSpaceOnUse">
<stop stop-color="#6F6F6F"/>
<stop offset="0.108" stop-color="#5D5D5D"/>
<stop offset="0.22" stop-color="#363636"/>
<stop offset="0.752" stop-color="#5D5D5D"/>
<stop offset="1" stop-color="#6F6F6F"/>
</linearGradient>
</defs>
</svg>
