<svg width="1920" height="466" viewBox="0 0 1920 466" fill="none" xmlns="http://www.w3.org/2000/svg">
<path style="mix-blend-mode:screen" opacity="0.4" d="M0.00492859 101.663C11.3809 86.236 24.7119 73.936 44.1629 69.26C61.3629 65.119 79.2139 66.41 96.4819 67.654C109.41 68.588 122.782 69.554 135.669 68.202C164.16 65.202 190.199 51.058 215.379 37.371C234.738 26.853 254.757 15.971 276.149 9.86303C308.183 0.714025 326.717 16.452 344.649 31.663C356.158 41.43 368.062 51.524 383.732 55.445C412.953 62.764 431.222 49.703 452.356 34.58C465.056 25.494 478.179 16.1 494.833 10.466C540.439 -4.97697 575.157 -3.38698 607.407 15.615C633.459 30.966 651.274 56.084 668.507 80.377C677.614 93.218 687.032 106.495 697.554 118.162C711.495 133.634 731.584 137.135 752.86 140.836C770.904 143.981 789.566 147.23 804.054 158.511C820.459 171.286 828.906 187.359 837.08 202.901C850.809 229.015 862.667 251.569 909.052 251.743C966.636 251.818 1017.61 213.257 1060.05 175.377L1069.58 166.834C1110.39 130.178 1152.58 92.272 1205.99 80.444C1252.89 70.063 1282.24 97.376 1310.62 123.793C1324.51 136.734 1338.88 150.106 1355.34 159.288C1410 189.788 1491.56 199.015 1563.53 207.155C1595.44 210.769 1625.59 214.179 1652.25 219.141C1689.5 226.078 1722.2 233.741 1745.07 257.403C1764.43 277.426 1772 304.814 1779.33 331.303C1782.97 344.493 1786.75 358.135 1791.93 370.677C1819.29 436.961 1865.92 455.321 1919.39 460.877V465.677C1865.18 459.939 1815.66 440.932 1787.42 372.532C1782.13 359.712 1778.32 345.932 1774.63 332.594C1767.14 305.505 1760.07 279.918 1741.57 260.794C1719.7 238.165 1687.77 230.714 1651.36 223.934C1624.88 219.001 1594.81 215.599 1562.98 211.997C1490.56 203.803 1408.48 194.513 1352.97 163.545C1336 154.077 1321.41 140.497 1307.31 127.362C1278.59 100.626 1251.47 75.362 1207.05 85.204C1154.89 96.755 1113.18 134.224 1072.83 170.457L1063.29 179.012C1020.29 217.403 968.409 256.612 909.518 256.612H909.033C859.718 256.429 846.633 231.527 832.766 205.165C824.837 190.079 816.635 174.483 801.066 162.356C787.536 151.822 769.484 148.677 752.025 145.636C730.874 141.952 709.004 138.143 693.935 121.427C683.226 109.544 673.725 96.151 664.535 83.194C647.603 59.321 630.094 34.634 604.935 19.814C574.022 1.59403 540.552 0.136024 496.398 15.078C480.429 20.484 467.598 29.666 455.19 38.541C433.994 53.709 413.962 68.036 382.546 60.169C365.776 55.974 353.433 45.502 341.496 35.379C323.759 20.336 307.014 6.11602 277.485 14.551C256.611 20.509 236.829 31.259 217.706 41.651C192.106 55.563 165.636 69.951 136.178 73.051C122.851 74.458 109.268 73.47 96.1279 72.516C79.2369 71.296 61.7739 70.031 45.3029 73.997C25.1309 78.855 11.7419 92.897 0.00292969 110.122L0.00492859 101.663Z" fill="url(#paint0_linear)"/>
<defs>
<linearGradient id="paint0_linear" x1="2318.62" y1="232.839" x2="-589.249" y2="232.839" gradientUnits="userSpaceOnUse">
<stop stop-color="#6F6F6F"/>
<stop offset="0.108" stop-color="#5D5D5D"/>
<stop offset="0.22" stop-color="#363636"/>
<stop offset="0.752" stop-color="#5D5D5D"/>
<stop offset="1" stop-color="#6F6F6F"/>
</linearGradient>
</defs>
</svg>
