<svg width="1920" height="466" viewBox="0 0 1920 466" fill="none" xmlns="http://www.w3.org/2000/svg">
<path style="mix-blend-mode:screen" opacity="0.4" d="M1920 101.66C1908.62 86.234 1895.29 73.936 1875.84 69.26C1858.64 65.119 1840.79 66.41 1823.52 67.654C1810.6 68.588 1797.22 69.554 1784.34 68.202C1755.85 65.202 1729.81 51.058 1704.63 37.371C1685.27 26.853 1665.25 15.971 1643.86 9.86302C1611.82 0.714025 1593.29 16.452 1575.36 31.663C1563.85 41.43 1551.94 51.524 1536.27 55.445C1507.05 62.764 1488.78 49.703 1467.65 34.58C1454.95 25.494 1441.83 16.1 1425.17 10.466C1379.57 -4.97697 1344.85 -3.38698 1312.6 15.615C1286.55 30.966 1268.73 56.084 1251.5 80.377C1242.39 93.218 1232.97 106.495 1222.45 118.162C1208.51 133.634 1188.42 137.135 1167.14 140.836C1149.1 143.981 1130.44 147.23 1115.95 158.511C1099.55 171.286 1091.1 187.359 1082.92 202.901C1069.2 229.015 1057.34 251.569 1010.95 251.743C953.368 251.818 902.39 213.257 859.958 175.377L850.428 166.834C809.618 130.178 767.428 92.272 714.009 80.444C667.109 70.063 637.759 97.376 609.38 123.793C595.489 136.734 581.121 150.106 564.662 159.288C510.007 189.788 428.442 199.015 356.478 207.155C324.555 210.762 294.408 214.173 267.755 219.133C230.505 226.07 197.811 233.733 174.934 257.395C155.575 277.418 148.003 304.806 140.68 331.295C137.033 344.485 133.257 358.127 128.08 370.669C100.717 436.953 54.0872 455.313 0.615234 460.869V465.669C54.8302 459.931 104.348 440.924 132.582 372.524C137.872 359.704 141.682 345.924 145.373 332.586C152.862 305.497 159.94 279.91 178.432 260.786C200.31 238.157 232.232 230.706 268.644 223.926C295.131 218.993 325.195 215.591 357.026 211.989C429.447 203.795 511.526 194.505 567.04 163.537C584.009 154.069 598.597 140.489 612.7 127.354C641.419 100.618 668.537 75.354 712.956 85.196C765.117 96.747 806.831 134.216 847.172 170.449L856.715 179.004C899.715 217.395 951.598 256.604 1010.49 256.604H1010.97C1060.29 256.421 1073.37 231.519 1087.24 205.157C1095.17 190.071 1103.37 174.475 1118.94 162.348C1132.47 151.814 1150.52 148.669 1167.98 145.628C1189.13 141.944 1211 138.135 1226.07 121.419C1236.78 109.536 1246.28 96.143 1255.47 83.186C1272.4 59.313 1289.91 34.626 1315.07 19.806C1345.98 1.59102 1379.46 0.133024 1423.61 15.075C1439.58 20.481 1452.41 29.663 1464.81 38.538C1486.01 53.707 1506.04 68.029 1537.46 60.167C1554.23 55.972 1566.57 45.5 1578.51 35.377C1596.25 20.333 1612.99 6.11302 1642.52 14.548C1663.39 20.506 1683.18 31.256 1702.3 41.648C1727.9 55.56 1754.37 69.948 1783.83 73.048C1797.15 74.455 1810.74 73.467 1823.88 72.513C1840.77 71.293 1858.23 70.028 1874.7 73.994C1894.87 78.852 1908.26 92.894 1920 110.119L1920 101.66Z" fill="url(#paint0_linear)"/>
<defs>
<linearGradient id="paint0_linear" x1="-398.617" y1="232.835" x2="2509.25" y2="232.835" gradientUnits="userSpaceOnUse">
<stop stop-color="#6F6F6F"/>
<stop offset="0.108" stop-color="#5D5D5D"/>
<stop offset="0.22" stop-color="#363636"/>
<stop offset="0.752" stop-color="#5D5D5D"/>
<stop offset="1" stop-color="#6F6F6F"/>
</linearGradient>
</defs>
</svg>
