<svg width="1920" height="419" viewBox="0 0 1920 419" fill="none" xmlns="http://www.w3.org/2000/svg"><path style="mix-blend-mode:screen" opacity=".4" d="M1920 54.66C1908.62 39.234 1895.29 26.936 1875.84 22.26 1858.64 18.119 1840.79 19.41 1823.52 20.654 1810.6 21.588 1797.22 22.554 1784.34 21.202 1755.85 18.202 1729.81 4.05802 1704.63-9.62898 1685.27-20.147 1665.25-31.029 1643.86-37.137 1611.82-46.286 1593.29-30.548 1575.36-15.337 1563.85-5.56997 1551.94 4.52402 1536.27 8.44502 1507.05 15.764 1488.78 2.70303 1467.65-12.42 1454.95-21.506 1441.83-30.9 1425.17-36.534 1379.57-51.977 1344.85-50.387 1312.6-31.385 1286.55-16.034 1268.73 9.08402 1251.5 33.377 1242.39 46.218 1232.97 59.495 1222.45 71.162 1208.51 86.634 1188.42 90.135 1167.14 93.836 1149.1 96.981 1130.44 100.23 1115.95 111.511 1099.55 124.286 1091.1 140.359 1082.92 155.901 1069.2 182.015 1057.34 204.569 1010.95 204.743 953.368 204.818 902.39 166.257 859.958 128.377L850.428 119.834C809.618 83.178 767.428 45.272 714.009 33.444 667.109 23.063 637.759 50.376 609.38 76.793 595.489 89.734 581.121 103.106 564.662 112.288 510.007 142.788 428.442 152.015 356.478 160.155 324.555 163.762 294.408 167.173 267.755 172.133 230.505 179.07 197.811 186.733 174.934 210.395 155.575 230.418 148.003 257.806 140.68 284.295 137.033 297.485 133.257 311.127 128.08 323.669 100.717 389.953 54.0872 408.313.615234 413.869V418.669C54.8302 412.931 104.348 393.924 132.582 325.524 137.872 312.704 141.682 298.924 145.373 285.586 152.862 258.497 159.94 232.91 178.432 213.786 200.31 191.157 232.232 183.706 268.644 176.926 295.131 171.993 325.195 168.591 357.026 164.989 429.447 156.795 511.526 147.505 567.04 116.537 584.009 107.069 598.597 93.489 612.7 80.354 641.419 53.618 668.537 28.354 712.956 38.196 765.117 49.747 806.831 87.216 847.172 123.449L856.715 132.004C899.715 170.395 951.598 209.604 1010.49 209.604H1010.97C1060.29 209.421 1073.37 184.519 1087.24 158.157 1095.17 143.071 1103.37 127.475 1118.94 115.348 1132.47 104.814 1150.52 101.669 1167.98 98.628 1189.13 94.944 1211 91.135 1226.07 74.419 1236.78 62.536 1246.28 49.143 1255.47 36.186 1272.4 12.313 1289.91-12.374 1315.07-27.194 1345.98-45.409 1379.46-46.867 1423.61-31.925 1439.58-26.519 1452.41-17.337 1464.81-8.46198 1486.01 6.70702 1506.04 21.029 1537.46 13.167 1554.23 8.97202 1566.57-1.49998 1578.51-11.623 1596.25-26.667 1612.99-40.887 1642.52-32.452 1663.39-26.494 1683.18-15.744 1702.3-5.35198 1727.9 8.56002 1754.37 22.948 1783.83 26.048 1797.15 27.455 1810.74 26.467 1823.88 25.513 1840.77 24.293 1858.23 23.028 1874.7 26.994 1894.87 31.852 1908.26 45.894 1920 63.119V54.66z" fill="url(#paint0_linear)"/><defs><linearGradient id="paint0_linear" x1="-398.617" y1="185.835" x2="2509.25" y2="185.835" gradientUnits="userSpaceOnUse"><stop stop-color="#6f6f6f"/><stop offset=".108" stop-color="#5d5d5d"/><stop offset=".22" stop-color="#363636"/><stop offset=".752" stop-color="#5d5d5d"/><stop offset="1" stop-color="#6f6f6f"/></linearGradient></defs></svg>