<svg width="211" height="20" viewBox="0 0 211 20" fill="none" xmlns="http://www.w3.org/2000/svg"><g clip-path="url(#clip0)"><path d="M85.7552 4.76164 86.4175 1.05814H73.3628L72.712 4.76164H77.0995L74.5451 18.931H78.3406L80.8949 4.76164H85.7552zM57.907 18.931H69.2946L69.9685 15.227H62.3891L62.9921 11.8812H68.0766L71.246 8.2002H63.6544L64.269 4.77345H71.8605L72.5229 1.05814H61.1353L57.907 18.931zM35.1439 1.06939 25.8259 18.908H30.0001L32.1405 14.8H38.2419L38.8334 18.908H42.5937L40.0157 1.06939H35.1439zM36.9298 5.65039 37.7219 11.0965H34.0913L36.9298 5.65039zM95.2035 1.06939H90.3312L81.0131 18.908H85.1873L87.3399 14.7888H93.4412L94.0327 18.908H97.793L95.2035 1.06939zM89.2665 11.1083 92.1165 5.65095 92.9086 11.1083H89.2665zM60.485 1.05814H55.6248L48.7544 9.03102 50.1973 1.05814H46.3897L43.1615 18.931H46.9691L48.3763 11.1078 52.6808 18.931H56.9023L52.302 10.5543l8.183-9.49616zM28.4039 7.90039C29.0899 4.11533 26.3701 1.02271 22.4558 1.02271H11.7421L8.60843 4.7037H21.7935C23.6151 4.7037 24.8326 6.13414 24.5133 7.89983 24.1939 9.66495 22.6455 11.0723 19.05 11.0723H3.16886L0 14.7775H12.5699L11.813 18.9428H15.597L16.3539 14.7775H19.1325L21.4153 18.9316H25.6483L23.0231 14.1548C25.7077 13.0816 27.9069 10.6814 28.4039 7.90095V7.90039z" fill="#fff"/><path d="M20.5639 6.05427H7.52063L4.35177 9.74652H17.3829L20.5639 6.05427z" fill="#fff"/></g><path d="M107.062 19.3066 110.211 1.22582H113.478L112.116 9.04041H112.194L121.228 1.22582H125.635L115.6 9.57671 123.056 19.3066H118.468L111.985 10.2407H111.907L110.328 19.3066H107.062z" fill="#eb673f"/><path d="M124.831 19.3066 126.966 7.04846H130.076L127.941 19.3066H124.831zM127.594 4.18821C127.279 3.81366 127.164 3.37951 127.25 2.88578 127.336 2.39205 127.6 1.96642 128.043 1.60889 128.488 1.23433 128.987 1.04705 129.54 1.04705 130.111 1.04705 130.555 1.22582 130.873 1.58335 131.211 1.92385 131.334 2.358 131.242 2.88578 131.15 3.41356 130.874 3.85622 130.415 4.21375 129.975 4.55426 129.47 4.72451 128.9 4.72451 128.347 4.72451 127.911 4.54574 127.594 4.18821z" fill="#eb673f"/><path d="M133.812 9.50009H131.634L132.061 7.04846H134.239L134.857 3.49869H137.916L137.298 7.04846H140.408L139.981 9.50009H136.871L135.879 15.195C135.772 15.808 135.803 16.2761 135.971 16.5996 136.14 16.9231 136.543 17.0848 137.183 17.0848 137.719 17.0848 138.174 16.9997 138.549 16.8295L138.235 19.23C137.609 19.4514 136.898 19.562 136.103 19.562 134.583 19.562 133.595 19.179 133.141 18.4128 132.69 17.6297 132.581 16.5656 132.816 15.2206L133.812 9.50009z" fill="#eb673f"/><path d="M153.017 8.60627 150.571 10.445C150.388 10.1045 150.074 9.82357 149.629 9.60225 149.186 9.36389 148.715 9.24472 148.213 9.24472 147.142 9.24472 146.234 9.64481 145.49 10.445 144.749 11.2282 144.288 12.139 144.107 13.1775 143.923 14.2331 144.074 15.1525 144.559 15.9356 145.045 16.7188 145.841 17.1104 146.947 17.1104 148.088 17.1104 149.024 16.7443 149.757 16.0123L151.363 17.9531C150.093 19.0938 148.464 19.6642 146.476 19.6642 144.575 19.6642 143.079 19.0768 141.988 17.9021 140.896 16.7273 140.522 15.1525 140.866 13.1775 141.204 11.2367 142.117 9.67035 143.603 8.47858 145.089 7.28681 146.774 6.69093 148.658 6.69093 149.574 6.69093 150.434 6.86118 151.239 7.20168 152.044 7.54219 152.636 8.01038 153.017 8.60627z" fill="#eb673f"/><path d="M162.301 6.69093C163.821 6.69093 164.877 7.17615 165.469 8.14659 166.08 9.1 166.266 10.2662 166.026 11.6453L164.692 19.3066H161.581L162.755 12.5646C163.132 10.4024 162.551 9.32133 161.013 9.32133 160.08 9.32133 159.296 9.65332 158.662 10.3173 158.048 10.9643 157.664 11.7304 157.51 12.6157L156.345 19.3066H153.234L156.597.0H159.707L158.182 8.7595H158.233C158.608 8.19766 159.159 7.71244 159.887 7.30384 160.632 6.89523 161.437 6.69093 162.301 6.69093z" fill="#eb673f"/><path d="M171.986 11.9517H178.363C178.511 11.1005 178.384 10.3939 177.98 9.83209 177.577 9.27025 176.9 8.98934 175.95 8.98934 175.034 8.98934 174.199 9.27025 173.444 9.83209 172.69 10.3939 172.204 11.1005 171.986 11.9517zM181.234 13.3308C181.171 13.6883 181.115 13.9607 181.065 14.148H171.604C171.525 14.9993 171.78 15.7143 172.371 16.2932 172.961 16.872 173.714 17.1615 174.63 17.1615 176.065 17.1615 177.254 16.6337 178.198 15.5781L179.987 17.2125C178.476 18.847 176.553 19.6642 174.22 19.6642 172.267 19.6642 170.761 19.0853 169.701 17.9276 168.658 16.7699 168.308 15.2121 168.649 13.2542 168.99 11.2963 169.888 9.71291 171.342 8.50412 172.797 7.29532 174.475 6.69093 176.376 6.69093 178.173 6.69093 179.526 7.26127 180.433 8.40197 181.34 9.54266 181.607 11.1856 181.234 13.3308z" fill="#eb673f"/><path d="M183.205 19.3066 185.34 7.04846H188.296L187.953 9.01487H188.005C188.411 8.36791 188.999 7.82311 189.767 7.38045 190.556 6.92077 191.391 6.69093 192.272 6.69093 193.793 6.69093 194.849 7.17615 195.44 8.14659 196.052 9.1 196.238 10.2662 195.997 11.6453L194.663 19.3066H191.552L192.736 12.5136C193.115 10.3343 192.527 9.24472 190.972 9.24472 190.039 9.24472 189.264 9.57671 188.647 10.2407 188.033 10.8877 187.647 11.6623 187.49 12.5646L186.316 19.3066H183.205z" fill="#eb673f"/><path d="M209.005 8.55519 206.676 10.3173C206.448 9.94275 206.114 9.62778 205.674 9.3724 205.235 9.11703 204.739 8.98934 204.186 8.98934 203.633 8.98934 203.138 9.1 202.702 9.32133 202.283 9.54266 202.035 9.87465 201.958 10.3173 201.884 10.7429 202.028 11.0579 202.39 11.2622 202.752 11.4665 203.413 11.6878 204.374 11.9262 204.889 12.0454 205.339 12.1901 205.724 12.3603 206.112 12.5136 206.49 12.7264 206.857 12.9988 207.242 13.2712 207.508 13.6287 207.656 14.0714 207.82 14.514 207.854 15.0163 207.756 15.5781 207.513 16.9742 206.841 18.0042 205.74 18.6682 204.657 19.3322 203.363 19.6642 201.86 19.6642 200.875 19.6642 199.955 19.4854 199.102 19.1279 198.248 18.7703 197.582 18.2766 197.105 17.6467L199.482 15.7569C200.099 16.7784 201.072 17.2891 202.403 17.2891 202.939 17.2891 203.426 17.17 203.865 16.9316 204.304 16.6933 204.567 16.3272 204.653 15.8335 204.736 15.3568 204.58 15.0078 204.187 14.7864 203.814 14.5481 203.121 14.3097 202.108 14.0714 201.032 13.799 200.2 13.4159 199.612 12.9222 199.045 12.4114 198.851 11.6368 199.032 10.5982 199.254 9.32133 199.907 8.35089 200.991 7.6869 202.074 7.02292 203.299 6.69093 204.664 6.69093 205.597 6.69093 206.459 6.85267 207.249 7.17615 208.04 7.49963 208.625 7.95931 209.005 8.55519z" fill="#eb673f"/><defs><clipPath id="clip0"><path d="M0 0h98v18H0z" fill="#fff" transform="translate(0 1)"/></clipPath></defs></svg>