<svg width="1098" height="1098" viewBox="0 0 1098 1098" fill="none" xmlns="http://www.w3.org/2000/svg"><path d="M1098 549C1098 852.204 852.204 1098 549 1098 245.796 1098 0 852.204.0 549 0 245.796 245.796.0 549 0 852.204.0 1098 245.796 1098 549z" fill="url(#paint0_radial)"/><path d="M609.657 885.032 609.43 885.071 599.933 902.493 584.777 905.072 596.491 885.476 577.714 867.301 593.184 864.664 608.687 880.721 608.926 880.683 605.83 862.5 618.392 860.372 628.193 917.872 615.624 920 609.657 885.032zM513.721 914.493 514.609 904.427 505.603 903.634 506.426 894.259 515.434 895.052 516.733 880.395C516.961 878.974 516.718 877.517 516.039 876.247 515.609 875.705 515.059 875.271 514.431 874.98 513.803 874.688 513.115 874.548 512.423 874.569 511.77 874.506 511.111 874.498 510.457 874.545 509.854 874.569 509.259 874.674 508.685 874.857L509.343 865.621C510.452 865.355 511.581 865.182 512.718 865.101 514.062 864.988 515.412 864.988 516.756 865.101 518.955 865.235 521.113 865.753 523.133 866.63 524.697 867.324 526.058 868.408 527.085 869.776 528.047 871.119 528.694 872.662 528.976 874.289 529.293 876.154 529.359 878.053 529.17 879.935L527.743 896.114 533.895 896.658 533.079 906.033 526.998 905.496 526.11 915.562 513.721 914.493zM550.659 906.036C548.32 905.192 546.196 903.845 544.437 902.091 542.63 900.244 541.215 898.055 540.272 895.651 539.2 892.855 538.631 889.891 538.592 886.897L538.542 885.351C538.524 884.864 538.539 884.377 538.585 883.892L566.469 883.098C566.339 882.063 565.976 881.07 565.41 880.194 564.839 879.326 564.109 878.572 563.261 877.972 562.376 877.345 561.397 876.866 560.359 876.551 559.292 876.224 558.178 876.075 557.062 876.108 555.294 876.105 553.553 876.537 551.992 877.366 550.684 878.111 549.553 879.132 548.679 880.357L539.719 875.051C541.44 872.385 543.844 870.227 546.679 868.798 549.87 867.232 553.373 866.406 556.928 866.383 559.712 866.288 562.492 866.666 565.15 867.502 567.664 868.281 570 869.551 572.019 871.238 574.03 872.95 575.65 875.076 576.764 877.469 577.989 880.172 578.638 883.101 578.67 886.068 578.791 888.981 578.323 891.889 577.294 894.618 576.352 897.088 574.915 899.34 573.071 901.235 571.226 903.083 569.034 904.549 566.621 905.549 564.037 906.619 561.276 907.196 558.48 907.25 558.24 907.25 558.026 907.25 557.8 907.25 555.367 907.272 552.948 906.861 550.659 906.036zM550.399 891.417C550.409 893.318 551.136 895.146 552.435 896.536 553.185 897.269 554.088 897.828 555.079 898.173 556.07 898.518 557.126 898.64 558.17 898.532 559.33 898.517 560.476 898.288 561.552 897.856 562.531 897.47 563.433 896.909 564.212 896.203 564.958 895.529 565.563 894.714 565.993 893.806 566.429 892.923 566.668 891.955 566.694 890.971L550.399 891.417zM431.442 902.664 439.267 881.871 439.056 881.785 412.929 895.719 397.452 889.9 428.378 874.646 415.397 838.288 431.521 844.339 441.688 875.015 441.835 875.077 450.687 851.536 462.764 856.073 443.521 907.195 431.442 902.664zM480.088 900.404C477.34 899.907 474.694 898.949 472.267 897.569 470.337 896.441 468.751 894.812 467.674 892.855 466.608 890.741 466.024 888.417 465.968 886.051 465.891 883 466.186 879.951 466.847 876.971L470.751 858.002 482.101 860.331 481.276 864.331 481.504 864.386C482.88 862.968 484.662 862.01 486.606 861.645 488.775 861.19 491.017 861.19 493.186 861.645 494.769 861.984 496.302 862.513 497.757 863.222 499.257 863.931 500.618 864.905 501.771 866.097 502.943 867.313 503.815 868.783 504.321 870.392 504.874 872.3 504.918 874.318 504.452 876.249 504.08 878.668 502.804 880.856 500.878 882.37 498.94 883.77 496.693 884.686 494.328 885.042 491.615 885.479 488.855 885.549 486.123 885.253 483.271 884.981 480.435 884.555 477.63 883.978L477.512 884.584C477.288 885.369 477.273 886.199 477.468 886.992 477.663 887.784 478.062 888.513 478.626 889.104 479.88 890.32 481.475 891.127 483.198 891.419 484.961 891.786 486.783 891.76 488.534 891.342 490.207 890.968 491.813 890.339 493.294 889.478L498.195 897.485C495.543 899.153 492.563 900.236 489.458 900.663 488.145 900.85 486.821 900.944 485.495 900.945 483.677 900.948 481.864 900.767 480.083 900.404H480.088zM482.153 870.229C481.306 870.846 480.592 871.626 480.05 872.522 479.509 873.418 479.151 874.413 478.998 875.449L478.733 876.738 480.32 877.05C481.674 877.33 483.074 877.555 484.482 877.711 485.762 877.871 487.054 877.89 488.337 877.766 489.4 877.664 490.425 877.318 491.333 876.757 491.763 876.486 492.129 876.127 492.408 875.702 492.687 875.277 492.872 874.798 492.95 874.296 493.098 873.659 493.057 872.993 492.833 872.379 492.615 871.821 492.274 871.319 491.837 870.91 491.356 870.491 490.81 870.155 490.219 869.915 489.625 869.662 489.008 869.469 488.375 869.34 487.63 869.185 486.87 869.104 486.109 869.1 484.707 869.062 483.326 869.456 482.157 870.229H482.153zM646.677 892.241C644.438 892.213 642.249 891.571 640.351 890.384 638.374 889.071 636.721 887.329 635.512 885.289 633.943 882.674 632.701 879.879 631.811 876.963L625.884 858.524 636.923 854.982 638.174 858.882 638.402 858.812C638.89 856.9 639.97 855.19 641.488 853.926 643.151 852.459 645.107 851.363 647.228 850.709 648.767 850.214 650.365 849.919 651.98 849.832 653.638 849.709 655.304 849.888 656.897 850.36 658.511 850.845 659.99 851.698 661.217 852.852 662.638 854.24 663.67 855.975 664.212 857.885 665.074 860.177 665.036 862.711 664.104 864.976 663.104 867.144 661.599 869.043 659.717 870.514 657.565 872.222 655.196 873.635 652.669 874.715 650.05 875.872 647.372 876.894 644.647 877.776L644.835 878.365C645.029 879.159 645.426 879.888 645.988 880.482 646.549 881.075 647.256 881.513 648.038 881.752 649.726 882.196 651.508 882.118 653.15 881.526 654.866 880.98 656.443 880.063 657.764 878.84 659.042 877.692 660.135 876.356 661.008 874.878L669.206 879.46C667.712 882.21 665.648 884.612 663.155 886.506 660.666 888.425 657.865 889.899 654.872 890.863 652.399 891.716 649.808 892.182 647.192 892.246 647.029 892.248 646.845 892.246 646.672 892.241H646.677zM648.713 859.339C648.066 859.413 647.427 859.554 646.808 859.759 645.759 860.017 644.775 860.49 643.918 861.148 643.062 861.806 642.35 862.635 641.83 863.581 641.399 864.534 641.161 865.562 641.129 866.607 641.098 867.653 641.272 868.694 641.645 869.671L642.041 870.922 643.597 870.426C644.919 870.007 646.232 869.517 647.539 868.956 648.73 868.468 649.863 867.848 650.916 867.109 651.794 866.496 652.522 865.694 653.047 864.763 653.282 864.314 653.422 863.82 653.455 863.315 653.487 862.809 653.411 862.302 653.234 861.827 653.051 861.2 652.692 860.639 652.198 860.212 651.734 859.832 651.189 859.564 650.605 859.428 650.226 859.34 649.836 859.296 649.447 859.299 649.2 859.298 648.954 859.311 648.709 859.339H648.713zM693.795 888.56C691.452 888.297 689.211 887.459 687.271 886.12 685.059 884.51 683.302 882.356 682.169 879.868 680.564 876.906 680.043 873.478 680.697 870.174 681.46 866.872 683.224 863.886 685.75 861.623L662.527 847.052 676.354 840.186 696.666 854.299 700.702 852.296 691.018 832.884 702.577 827.132 726.943 876.033 708.279 885.315C705.967 886.469 703.538 887.373 701.035 888.011 699.37 888.442 697.657 888.663 695.937 888.67 695.22 888.674 694.504 888.636 693.791 888.558L693.795 888.56zM699.403 863.619C698.402 864.125 697.439 864.704 696.523 865.352 695.634 865.979 694.845 866.736 694.182 867.598 693.554 868.416 693.154 869.386 693.024 870.409 692.91 871.602 693.16 872.802 693.744 873.85 694.184 874.859 694.928 875.708 695.869 876.28 696.693 876.744 697.621 876.991 698.567 876.999 699.575 877.006 700.575 876.844 701.529 876.52 702.508 876.205 703.463 875.818 704.384 875.362L710.707 872.216 705.021 860.83 699.403 863.619zM384.41 885.08C383.427 885.008 382.471 884.73 381.602 884.265 380.749 883.82 379.987 883.217 379.359 882.487 378.754 881.789 378.289 880.982 377.986 880.11 377.701 879.252 377.583 878.347 377.642 877.445 377.693 876.502 377.951 875.582 378.396 874.749 378.829 873.909 379.439 873.173 380.184 872.592 380.891 872.033 381.696 871.614 382.561 871.358 383.454 871.109 384.388 871.033 385.31 871.133 386.271 871.229 387.203 871.512 388.057 871.964 388.915 872.383 389.68 872.971 390.304 873.693 390.928 874.415 391.4 875.256 391.689 876.165 391.989 877.031 392.106 877.95 392.031 878.864 391.957 879.777 391.69 880.665 391.253 881.471 390.838 882.289 390.255 883.009 389.54 883.585 388.842 884.161 388.028 884.582 387.154 884.819 386.449 885.005 385.725 885.097 384.996 885.095 384.804 885.098 384.607 885.092 384.405 885.078L384.41 885.08zM384.916 864.319 402.765 830.289 413.991 836.153 396.147 870.184 384.916 864.319zM357.287 859.543 362.694 851.007 355.061 846.182 360.102 838.221 367.74 843.053 375.619 830.61C376.476 829.456 376.933 828.054 376.92 826.617 376.782 825.942 376.49 825.307 376.067 824.763 375.643 824.219 375.099 823.78 374.478 823.48 373.92 823.127 373.335 822.815 372.732 822.548 372.183 822.302 371.606 822.125 371.014 822.021L375.835 814.112C376.945 814.384 378.031 814.748 379.081 815.2 380.326 815.713 381.521 816.334 382.657 817.057 384.548 818.185 386.23 819.631 387.628 821.33 388.698 822.664 389.408 824.25 389.688 825.937 389.932 827.571 389.798 829.239 389.299 830.814 388.73 832.62 387.916 834.34 386.88 835.925L378.185 849.65 383.412 852.95 378.37 860.904 373.207 857.65 367.801 866.193 357.287 859.543zM339.241 834.075C336.524 833.147 333.99 831.754 331.751 829.958 330.662 829.095 329.657 828.132 328.749 827.082 327.858 826.057 327.043 824.969 326.307 823.828 325.621 822.741 325.047 821.588 324.594 820.386 324.187 819.304 323.906 818.178 323.759 817.031L334.8 814.934C334.811 816.181 335.124 817.407 335.712 818.507 336.295 819.676 337.124 820.705 338.145 821.522 339.119 822.322 340.272 822.878 341.505 823.145 342.666 823.392 343.865 823.402 345.03 823.176 346.22 822.939 347.359 822.491 348.391 821.855 349.493 821.185 350.462 820.319 351.252 819.301 352.06 818.3 352.693 817.171 353.125 815.96 353.531 814.812 353.708 813.595 353.648 812.379 353.58 811.185 353.268 810.017 352.729 808.948 352.138 807.803 351.302 806.803 350.28 806.019 349.25 805.206 348.075 804.595 346.818 804.217 345.621 803.828 344.346 803.746 343.108 803.977L342.93 792.91C345.342 792.72 347.766 793.062 350.031 793.912 352.608 794.818 355.012 796.155 357.14 797.866 359.423 799.646 361.386 801.803 362.942 804.243 364.392 806.499 365.364 809.027 365.797 811.672 366.222 814.308 366.082 817.004 365.384 819.581 364.601 822.413 363.231 825.051 361.367 827.324 359.587 829.634 357.34 831.545 354.773 832.932 352.423 834.191 349.834 834.94 347.175 835.13 346.711 835.163 346.25 835.18 345.787 835.18 343.559 835.171 341.346 834.797 339.239 834.073L339.241 834.075zM291.811 818.936 309.7 801.801 309.606 801.684C307.667 802.12 305.648 802.069 303.733 801.535 301.391 800.92 299.279 799.635 297.659 797.837 296.026 796.244 294.805 794.28 294.099 792.112 293.541 790.3 293.403 788.385 293.696 786.511 294.005 784.655 294.682 782.878 295.685 781.285 296.7 779.646 297.915 778.14 299.304 776.803L316.476 760.361 325.304 769.542 310.246 783.966C309.497 784.676 308.804 785.445 308.177 786.264 307.613 786.994 307.19 787.821 306.928 788.704 306.693 789.51 306.666 790.363 306.85 791.182 307.099 792.117 307.598 792.968 308.292 793.643 308.934 794.381 309.746 794.951 310.659 795.306 311.571 795.66 312.555 795.788 313.527 795.678 315.597 795.395 317.511 794.427 318.964 792.929L333.959 778.55 342.726 787.683 300.583 828.057 291.811 818.936zM809.5 781.155C807.616 781.14 805.755 780.748 804.025 780.005 802.245 779.255 800.566 778.29 799.023 777.129L780.082 762.75 787.784 752.605 804.522 765.307C805.341 765.942 806.218 766.499 807.142 766.97 807.957 767.39 808.835 767.679 809.741 767.826 810.578 767.944 811.432 767.836 812.213 767.514 813.103 767.105 813.869 766.47 814.438 765.674 815.081 764.868 815.519 763.919 815.715 762.908 815.881 761.979 815.828 761.024 815.56 760.118 815.268 759.172 814.807 758.286 814.201 757.501 813.569 756.654 812.82 755.901 811.974 755.265L795.36 742.667 803.069 732.53 833.707 755.776 826.28 765.539 822.031 762.323 821.937 762.448C822.332 763.385 822.615 764.366 822.778 765.369 822.96 766.466 822.973 767.585 822.818 768.686 822.655 769.865 822.359 771.021 821.939 772.135 821.492 773.335 820.867 774.461 820.083 775.475 818.762 777.317 817.02 778.819 815.002 779.856 813.307 780.695 811.445 781.141 809.553 781.16L809.5 781.155zM281.403 770.723C278.841 770.217 276.404 769.211 274.232 767.763 271.91 766.207 269.901 764.231 268.307 761.937 266.731 759.785 265.589 757.347 264.946 754.76 264.348 752.347 264.294 749.832 264.785 747.395 265.313 744.87 266.35 742.478 267.834 740.366 269.564 737.922 271.717 735.805 274.19 734.114 274.61 733.812 275.035 733.515 275.446 733.22 275.856 732.925 276.28 732.661 276.693 732.427L292.833 755.138C293.631 754.466 294.261 753.618 294.675 752.66 295.077 751.699 295.298 750.672 295.324 749.631 295.357 748.551 295.213 747.472 294.896 746.439 294.583 745.37 294.091 744.361 293.442 743.455 292.463 741.986 291.134 740.783 289.576 739.952 288.237 739.265 286.761 738.89 285.256 738.856L284.689 728.472C287.872 728.418 291.012 729.215 293.782 730.78 296.85 732.566 299.476 735.015 301.472 737.948 303.101 740.209 304.333 742.73 305.114 745.404 305.86 747.923 306.098 750.566 305.814 753.178 305.508 755.8 304.638 758.325 303.265 760.581 301.692 763.096 299.616 765.259 297.166 766.934 294.806 768.663 292.117 769.892 289.264 770.546 287.821 770.87 286.346 771.035 284.867 771.039 283.706 771.044 282.549 770.938 281.408 770.723H281.403zM273.852 750.957C273.655 751.987 273.688 753.049 273.951 754.066 274.213 755.082 274.697 756.028 275.369 756.835 276.031 757.785 276.859 758.608 277.813 759.265 278.678 759.862 279.644 760.296 280.665 760.547 281.645 760.785 282.661 760.838 283.66 760.703 284.638 760.569 285.576 760.225 286.407 759.694L276.972 746.42C275.401 747.491 274.288 749.109 273.85 750.957H273.852zM831.286 739.54C828.326 739.05 825.476 738.04 822.87 736.556 822.426 736.316 821.973 736.06 821.522 735.818 821.091 735.584 820.674 735.324 820.273 735.041L833.711 710.628C832.755 710.206 831.714 710.015 830.669 710.07 829.63 710.121 828.61 710.365 827.66 710.788 826.677 711.238 825.769 711.838 824.97 712.567 824.146 713.323 823.449 714.207 822.907 715.184 822.013 716.705 821.508 718.423 821.438 720.185 821.405 721.689 821.714 723.181 822.34 724.549L813.221 729.582C811.792 726.744 811.15 723.577 811.358 720.408 811.618 716.87 812.676 713.436 814.454 710.364 815.786 707.917 817.521 705.712 819.586 703.841 821.528 702.067 823.805 700.699 826.284 699.817 828.783 698.953 831.438 698.635 834.07 698.885 837.022 699.198 839.877 700.121 842.453 701.595 845.037 702.96 847.316 704.835 849.151 707.107 850.809 709.163 852.025 711.536 852.727 714.081 853.392 716.604 853.548 719.234 853.184 721.817 852.796 724.584 851.893 727.255 850.524 729.692 849.266 732.041 847.568 734.126 845.523 735.837 843.603 737.415 841.366 738.559 838.961 739.192 837.483 739.567 835.961 739.755 834.436 739.75 833.383 739.76 832.333 739.692 831.29 739.547L831.286 739.54zM832.765 728.681C834.406 729.634 836.346 729.934 838.199 729.52 839.215 729.247 840.156 728.753 840.958 728.073 841.759 727.394 842.4 726.545 842.835 725.589 843.404 724.581 843.788 723.478 843.967 722.335 844.122 721.295 844.093 720.235 843.88 719.205 843.668 718.222 843.269 717.289 842.706 716.456 842.162 715.634 841.446 714.94 840.606 714.422L832.765 728.681zM246.549 724.456 251.302 722.059 251.232 721.911C250.216 721.867 249.209 721.695 248.236 721.398 247.165 721.084 246.147 720.609 245.218 719.991 244.233 719.324 243.324 718.554 242.504 717.693 241.622 716.767 240.88 715.718 240.303 714.577 239.216 712.584 238.62 710.361 238.567 708.092 238.556 706.19 238.978 704.31 239.797 702.592 240.633 700.903 241.8 699.397 243.228 698.166 244.675 696.894 246.277 695.809 247.995 694.935L269.214 684.177 274.972 695.525 256.235 705.025C255.307 705.489 254.424 706.038 253.596 706.664 252.862 707.212 252.219 707.873 251.691 708.622 251.213 709.318 250.935 710.132 250.889 710.975 250.864 711.955 251.104 712.924 251.583 713.779 252.024 714.707 252.682 715.514 253.503 716.133 254.265 716.691 255.151 717.058 256.085 717.204 257.066 717.363 258.066 717.339 259.038 717.134 260.076 716.928 261.081 716.581 262.024 716.101L280.621 706.681 286.393 718.028 252.073 735.41 246.549 724.456zM856.065 696.565C854.143 696.375 852.252 695.944 850.438 695.283L828.12 687.058 832.521 675.121 852.097 682.311C853.062 682.675 854.056 682.958 855.069 683.156 855.97 683.347 856.897 683.368 857.806 683.219 858.638 683.078 859.421 682.727 860.079 682.2 860.818 681.571 861.365 680.747 861.657 679.823 862.045 678.925 862.206 677.945 862.128 676.97 862.049 675.995 861.733 675.054 861.207 674.229 860.044 672.499 858.338 671.206 856.355 670.556L836.864 663.378 841.239 651.501 896.035 671.68 891.653 683.557 868.388 674.982 868.334 675.121C869.57 676.674 870.408 678.507 870.771 680.458 871.237 682.832 871.004 685.29 870.101 687.535 869.38 689.7 868.144 691.659 866.501 693.244 865.115 694.532 863.458 695.493 861.65 696.055 860.346 696.441 858.99 696.635 857.63 696.63 857.118 696.643 856.6 696.62 856.072 696.563L856.065 696.565zM869.238 646.717C870.357 646.161 871.327 645.343 872.062 644.333 872.862 643.297 873.422 642.099 873.705 640.822 873.992 639.6 873.987 638.329 873.689 637.11 873.402 635.957 872.886 634.874 872.172 633.925 871.434 632.961 870.531 632.135 869.505 631.485 868.412 630.799 867.206 630.307 865.943 630.033 864.688 629.75 863.394 629.682 862.116 629.831 860.905 629.968 859.734 630.342 858.669 630.934 857.619 631.516 856.704 632.313 855.985 633.273 855.212 634.304 854.681 635.496 854.431 636.76 854.156 638.036 854.122 639.353 854.331 640.642 854.497 641.89 854.986 643.073 855.748 644.076L845.861 649.109C844.632 647.028 843.874 644.703 843.644 642.298 843.329 639.587 843.477 636.843 844.08 634.181 844.677 631.353 845.754 628.648 847.262 626.182 848.657 623.888 850.507 621.906 852.699 620.356 854.881 618.824 857.361 617.768 859.979 617.257 862.875 616.709 865.854 616.78 868.72 617.465 871.579 618.047 874.287 619.219 876.665 620.907 878.827 622.466 880.637 624.462 881.978 626.764 883.313 629.097 884.174 631.671 884.514 634.337 884.871 637.183 884.729 640.069 884.092 642.866 883.794 644.216 883.374 645.536 882.841 646.811 882.305 648.06 881.682 649.269 880.975 650.43 880.307 651.524 879.528 652.547 878.65 653.483 877.851 654.325 876.953 655.069 875.976 655.697L869.238 646.717zM879.056 613.847 880.033 604.884 865.395 603.276C863.978 603.019 862.515 603.225 861.225 603.865 860.679 604.287 860.237 604.828 859.934 605.448 859.631 606.067 859.474 606.749 859.477 607.438 859.408 608.093 859.387 608.753 859.414 609.411 859.426 610.01 859.518 610.606 859.686 611.182L850.445 610.326C850.207 609.214 850.062 608.083 850.009 606.947 849.923 605.606 849.951 604.26 850.093 602.923 850.28 600.727 850.849 598.579 851.774 596.577 852.504 595.036 853.614 593.705 855.001 592.709 856.365 591.776 857.926 591.166 859.561 590.924 861.436 590.64 863.339 590.611 865.221 590.838L881.399 592.601 882.06 586.474 891.43 587.492 890.764 593.558 900.826 594.653 899.476 607.002 889.41 605.9 888.43 614.88 879.056 613.847zM903.867 581.494C902.923 581.473 901.991 581.248 901.142 580.835 900.322 580.447 899.589 579.901 898.983 579.226 898.364 578.543 897.888 577.743 897.582 576.873 897.242 575.968 897.086 575.004 897.125 574.038 897.125 573.084 897.319 572.141 897.694 571.264 898.07 570.387 898.619 569.595 899.309 568.936 899.957 568.287 900.733 567.78 901.587 567.446 902.441 567.112 903.356 566.958 904.273 566.995 905.185 567.019 906.083 567.227 906.912 567.608 907.739 567.983 908.477 568.532 909.073 569.216 909.678 569.917 910.164 570.712 910.512 571.57 910.875 572.483 911.039 573.464 910.992 574.445 910.968 575.408 910.76 576.358 910.378 577.242 910.016 578.088 909.496 578.858 908.845 579.509 908.201 580.147 907.435 580.65 906.595 580.993 905.791 581.328 904.929 581.501 904.057 581.501L903.867 581.494zM853.154 579.123 853.517 566.47 891.974 567.572 891.608 580.209 853.154 579.123zM853.208 547.046 876.41 524.519V524.37L851.326 526.685 850.126 513.861 904.589 508.829 905.789 521.652 883.64 523.711 883.663 523.951 907.617 541.325 909.145 557.768 881.896 536.657 854.806 564.191 853.208 547.046zM190 554.643 191.678 533.875C191.885 531.304 192.369 528.763 193.119 526.295 193.806 523.958 194.914 521.765 196.386 519.824 197.824 517.957 199.7 516.475 201.852 515.51 204.373 514.443 207.129 514.052 209.848 514.377 213.215 514.537 216.422 515.863 218.916 518.127 221.361 520.479 223.011 523.533 223.638 526.865L248.131 514.523 246.88 529.894 224.285 539.976 223.919 544.458 245.567 546.198 244.524 559.045 190 554.643zM205.838 527.938C205.012 528.405 204.319 529.073 203.823 529.88 203.296 530.74 202.92 531.683 202.709 532.669 202.478 533.669 202.317 534.683 202.229 535.706L201.662 542.727 214.381 543.753 214.889 537.493C214.981 536.382 214.981 535.264 214.889 534.153 214.814 533.067 214.573 531.999 214.179 530.984 213.795 530.027 213.168 529.186 212.358 528.545 211.397 527.826 210.238 527.419 209.037 527.38 208.797 527.361 208.583 527.351 208.367 527.351 207.493 527.325 206.628 527.526 205.855 527.934L205.838 527.938zM237.929 510.463C235.521 510.015 233.37 508.676 231.909 506.713 230.556 504.743 229.702 502.475 229.42 500.103 229.063 497.383 229.068 494.628 229.436 491.909 229.794 489.071 230.298 486.253 230.945 483.466L230.352 483.327C229.572 483.082 228.743 483.044 227.943 483.217 227.144 483.391 226.403 483.769 225.794 484.315 224.544 485.538 223.689 487.107 223.343 488.82 222.933 490.573 222.912 492.395 223.282 494.157 223.602 495.835 224.186 497.453 225.009 498.95L216.848 503.619C215.263 500.924 214.267 497.925 213.924 494.819 213.559 491.696 213.74 488.533 214.46 485.472 215.031 482.743 216.06 480.13 217.502 477.743 218.691 475.849 220.369 474.31 222.363 473.293 224.507 472.282 226.852 471.763 229.223 471.771 232.277 471.787 235.318 472.171 238.281 472.912L257.159 477.338 254.52 488.602 250.522 487.662 250.479 487.888C251.854 489.306 252.758 491.113 253.069 493.062 253.464 495.24 253.396 497.476 252.867 499.626 252.483 501.194 251.915 502.711 251.173 504.146 250.417 505.623 249.402 506.954 248.178 508.076 246.928 509.215 245.43 510.045 243.8 510.499 242.927 510.749 242.022 510.872 241.114 510.866 240.046 510.853 238.982 510.717 237.946 510.461L237.929 510.463zM237.819 486.347C237.499 487.699 237.237 489.076 237.034 490.478 236.846 491.747 236.797 493.033 236.886 494.313 236.956 495.38 237.27 496.416 237.805 497.342 238.067 497.776 238.417 498.15 238.834 498.439 239.251 498.728 239.725 498.926 240.224 499.02 240.855 499.191 241.524 499.17 242.143 498.957 242.709 498.759 243.221 498.431 243.636 497.999 244.074 497.537 244.431 497.004 244.688 496.422 244.955 495.829 245.165 495.213 245.319 494.581 245.634 493.552 245.733 492.469 245.609 491.399 245.485 490.33 245.142 489.297 244.599 488.367 244.003 487.503 243.241 486.766 242.359 486.197 241.477 485.627 240.491 485.238 239.457 485.05L238.18 484.748 237.819 486.347zM845.537 494.581 849.496 493.579 849.449 493.354C847.572 492.737 845.934 491.554 844.759 489.968 843.396 488.215 842.414 486.196 841.879 484.041 841.497 482.478 841.304 480.874 841.305 479.265 841.295 477.603 841.578 475.952 842.144 474.388 842.728 472.806 843.676 471.383 844.911 470.233 846.384 468.898 848.181 467.974 850.124 467.553 852.468 466.837 854.997 467.034 857.201 468.105 859.309 469.233 861.115 470.85 862.468 472.818 864.041 475.069 865.305 477.519 866.229 480.104 867.227 482.786 868.085 485.519 868.798 488.291L869.379 488.135C870.185 487.992 870.939 487.643 871.57 487.122 872.201 486.6 872.687 485.925 872.979 485.161 873.522 483.5 873.555 481.714 873.072 480.034 872.629 478.291 871.81 476.666 870.673 475.273 869.608 473.933 868.343 472.765 866.923 471.809L872.011 463.901C874.664 465.564 876.936 467.769 878.676 470.372 880.439 472.975 881.737 475.863 882.515 478.908 883.27 481.594 883.562 484.388 883.377 487.171 883.201 489.396 882.421 491.531 881.123 493.347 879.69 495.235 877.85 496.778 875.739 497.86 873.025 499.257 870.151 500.319 867.178 501.021L848.387 505.79 845.537 494.581zM853.386 478.743C852.745 478.883 852.16 479.21 851.706 479.682 851.293 480.121 850.989 480.651 850.817 481.228 850.641 481.835 850.575 482.469 850.623 483.1 850.653 483.747 850.75 484.389 850.911 485.017 851.101 486.079 851.512 487.09 852.116 487.985 852.72 488.88 853.504 489.638 854.42 490.213 855.345 490.704 856.359 491.008 857.403 491.105 858.447 491.203 859.5 491.092 860.501 490.78L861.779 490.462 861.373 488.892C861.037 487.54 860.625 486.205 860.152 484.861 859.735 483.642 859.183 482.473 858.509 481.374 857.952 480.462 857.194 479.689 856.292 479.114 855.745 478.771 855.112 478.592 854.466 478.596 854.108 478.6 853.75 478.647 853.402 478.738L853.386 478.743zM205.037 448.676 209.689 436.83 242.776 449.771 242.867 449.546 232.813 432.442 238.421 418.149 249.195 438.28 274.471 431.591 268.745 446.169 246.966 451.156 246.875 451.374 264.07 458.085 259.423 469.938 205.037 448.676zM836.51 465.056C835.821 463.899 835.234 462.685 834.752 461.428 833.917 459.395 833.444 457.232 833.353 455.036 833.293 453.325 833.673 451.627 834.457 450.104 835.249 448.657 836.357 447.407 837.7 446.447 839.24 445.347 840.919 444.456 842.694 443.799L857.9 438.012 855.699 432.26 864.504 428.905 866.681 434.599 876.131 431.004 880.558 442.608 871.108 446.203 874.329 454.639 865.514 457.993 862.294 449.551 848.535 454.785C847.154 455.2 845.947 456.054 845.097 457.217 844.799 457.841 844.65 458.526 844.661 459.217 844.672 459.909 844.842 460.588 845.16 461.203 845.401 461.812 845.684 462.404 846.008 462.973 846.29 463.506 846.645 463.997 847.061 464.433L838.45 467.874C837.733 466.988 837.089 466.045 836.526 465.054L836.51 465.056zM824.965 432.878C822.155 430.698 819.874 427.913 818.293 424.73 816.992 422.271 816.113 419.611 815.694 416.862 815.289 414.265 815.407 411.614 816.043 409.064 816.697 406.507 817.903 404.124 819.575 402.08 821.461 399.79 823.806 397.92 826.46 396.59 829.035 395.204 831.861 394.346 834.773 394.066 837.405 393.826 840.058 394.128 842.568 394.953 845.045 395.795 847.328 397.12 849.287 398.852 851.382 400.702 853.115 402.924 854.396 405.407 855.657 407.758 856.454 410.329 856.744 412.98 857.005 415.449 856.724 417.946 855.919 420.296 855.053 422.727 853.7 424.957 851.945 426.851 849.907 429.046 847.492 430.859 844.813 432.202 844.355 432.442 843.9 432.682 843.444 432.921 843.011 433.151 842.565 433.353 842.106 433.527L829.146 408.874C828.264 409.432 827.526 410.187 826.988 411.079 826.461 411.975 826.105 412.959 825.938 413.984 825.77 415.052 825.77 416.139 825.938 417.207 826.103 418.31 826.457 419.376 826.981 420.361 827.748 421.952 828.902 423.325 830.339 424.354 831.576 425.212 832.992 425.781 834.48 426.017L833.646 436.386C830.495 436.01 827.504 434.797 824.981 432.873L824.965 432.878zM838.982 404.599C837.999 404.602 837.027 404.813 836.132 405.22L843.693 419.644C845.4 418.801 846.727 417.346 847.41 415.57 847.739 414.575 847.846 413.518 847.721 412.477 847.597 411.435 847.245 410.434 846.69 409.543 846.166 408.514 845.459 407.587 844.604 406.809 843.823 406.102 842.922 405.539 841.945 405.145 841.024 404.783 840.045 404.599 839.055 404.602L838.982 404.599zM266.167 425.609C263.221 425.261 260.38 424.307 257.822 422.805 255.256 421.402 253.001 419.497 251.187 417.205 249.558 415.128 248.374 412.737 247.712 410.183 247.068 407.655 246.941 405.024 247.339 402.447 247.759 399.681 248.694 397.018 250.093 394.594 251.38 392.263 253.098 390.199 255.16 388.511 257.1 386.96 259.353 385.845 261.764 385.242 264.281 384.646 266.894 384.565 269.444 385.003 272.395 385.532 275.231 386.576 277.82 388.087 278.264 388.344 278.714 388.593 279.158 388.849 279.588 389.087 280.005 389.349 280.405 389.633L266.685 413.874C267.631 414.315 268.668 414.523 269.711 414.48 270.748 414.445 271.769 414.213 272.72 413.797 273.714 413.361 274.633 412.772 275.444 412.05 276.273 411.304 276.979 410.431 277.534 409.464 278.45 407.954 278.974 406.24 279.06 404.477 279.113 402.971 278.823 401.473 278.211 400.096L287.382 395.164C288.789 398.018 289.397 401.198 289.144 404.369 288.841 407.906 287.741 411.33 285.924 414.382 284.562 416.809 282.801 418.991 280.714 420.836 278.749 422.584 276.453 423.922 273.962 424.773 272.107 425.398 270.162 425.713 268.204 425.705 267.543 425.701 266.871 425.666 266.186 425.602L266.167 425.609zM262.406 394.934C261.389 395.199 260.443 395.684 259.636 396.355 258.828 397.026 258.178 397.866 257.733 398.816 257.145 399.815 256.745 400.913 256.556 402.056 256.385 403.094 256.403 404.154 256.606 405.186 256.808 406.173 257.198 407.112 257.756 407.952 258.287 408.779 258.993 409.482 259.823 410.01L267.836 395.835C266.659 395.151 265.322 394.786 263.96 394.776 263.443 394.775 262.929 394.826 262.422 394.927L262.406 394.934zM800.845 393.017 808.492 372.038 808.351 371.851 793.357 382.609 785.916 372.277 833.329 338.225 840.77 348.563 811.913 369.279 812.056 369.466 831.897 370.329 840.873 382.791 818.098 380.905 809.994 405.721 800.845 393.017zM293.663 386.306C291.901 385.607 290.241 384.677 288.725 383.541L275.603 373.955 271.947 378.925 264.349 373.363 267.949 368.445 259.791 362.473 267.14 352.453 275.301 358.444 280.644 351.159 288.244 356.721 282.901 364.007 294.785 372.699C295.882 373.631 297.252 374.182 298.69 374.269 299.375 374.179 300.029 373.931 300.602 373.546 301.176 373.16 301.653 372.647 301.994 372.047 302.382 371.513 302.729 370.953 303.037 370.369 303.33 369.842 303.551 369.278 303.691 368.692L311.256 374.044C310.903 375.125 310.465 376.177 309.949 377.19 309.352 378.397 308.649 379.549 307.849 380.632 306.599 382.445 305.035 384.02 303.229 385.283 301.833 386.268 300.202 386.87 298.5 387.03 298.204 387.056 297.908 387.068 297.614 387.068 296.267 387.052 294.935 386.792 293.682 386.299L293.663 386.306zM309.649 367.424C307.725 366.918 305.97 365.914 304.561 364.512 302.683 362.937 301.472 360.711 301.169 358.282 300.968 355.902 301.345 353.509 302.266 351.305 303.293 348.762 304.659 346.369 306.325 344.19 308.032 341.891 309.861 339.685 311.802 337.58L311.35 337.161C310.791 336.566 310.087 336.126 309.306 335.885 308.526 335.644 307.695 335.61 306.897 335.785 305.206 336.223 303.687 337.166 302.547 338.489 301.325 339.811 300.408 341.386 299.864 343.102 299.314 344.724 299.021 346.422 298.995 348.135L289.59 348.173C289.543 345.044 290.158 341.941 291.394 339.066 292.614 336.171 294.326 333.509 296.456 331.198 298.307 329.105 300.498 327.338 302.936 325.971 304.903 324.91 307.12 324.4 309.353 324.495 311.719 324.672 314.014 325.376 316.072 326.554 318.731 328.06 321.193 329.888 323.401 331.999L337.643 345.134 329.79 353.639 326.776 350.859 326.616 351.03C327.123 352.939 327.022 354.958 326.328 356.808 325.595 358.897 324.432 360.81 322.913 362.423 321.809 363.599 320.565 364.637 319.211 365.514 317.827 366.433 316.286 367.093 314.666 367.462 313.896 367.644 313.109 367.735 312.318 367.733 311.426 367.733 310.536 367.63 309.667 367.427L309.649 367.424zM316.351 343.459C315.411 344.477 314.508 345.556 313.644 346.675 312.848 347.689 312.168 348.789 311.615 349.954 311.147 350.917 310.908 351.975 310.916 353.045 310.931 353.552 311.052 354.05 311.273 354.506 311.494 354.962 311.81 355.367 312.198 355.693 312.662 356.151 313.254 356.457 313.895 356.57 314.488 356.684 315.097 356.651 315.674 356.477 316.281 356.295 316.851 356.006 317.354 355.621 317.878 355.239 318.365 354.807 318.807 354.332 319.593 353.592 320.216 352.696 320.638 351.703 321.06 350.71 321.27 349.64 321.257 348.561 321.063 346.455 320.042 344.51 318.416 343.155L317.455 342.261 316.351 343.459zM772.836 357.915 775.798 355.087 775.644 354.917C773.703 355.305 771.691 355.08 769.885 354.272 767.838 353.42 765.994 352.146 764.472 350.536 763.357 349.363 762.39 348.06 761.591 346.653 760.76 345.22 760.19 343.65 759.911 342.016 759.634 340.35 759.753 338.642 760.255 337.029 760.885 335.146 761.991 333.457 763.469 332.128 765.16 330.358 767.454 329.286 769.899 329.123 772.289 329.07 774.656 329.587 776.806 330.631 779.284 331.815 781.594 333.322 783.675 335.112 785.87 336.957 787.967 338.914 789.958 340.976L790.404 340.55C791.031 340.025 791.514 339.348 791.803 338.584 792.092 337.819 792.178 336.993 792.054 336.186 791.708 334.476 790.85 332.911 789.595 331.697 788.352 330.394 786.836 329.383 785.154 328.737 783.568 328.094 781.892 327.702 780.186 327.573L780.699 318.197C783.832 318.33 786.9 319.13 789.698 320.544 792.519 321.932 795.08 323.797 797.266 326.055 799.243 328.023 800.873 330.31 802.087 332.821 803.042 334.841 803.424 337.084 803.193 339.306 802.87 341.654 802.027 343.901 800.727 345.884 799.057 348.439 797.079 350.778 794.838 352.851L780.846 366.257 772.836 357.915zM771.847 340.267C771.365 340.71 771.022 341.281 770.853 341.913 770.726 342.497 770.726 343.101 770.853 343.684 771.002 344.302 771.258 344.889 771.613 345.417 771.96 345.963 772.362 346.473 772.813 346.939 773.502 347.77 774.358 348.448 775.325 348.93 776.292 349.412 777.348 349.686 778.428 349.735 779.476 349.708 780.509 349.471 781.465 349.041 782.421 348.61 783.282 347.993 783.996 347.226L784.957 346.325 783.842 345.161C782.87 344.152 781.861 343.181 780.781 342.256 779.821 341.396 778.763 340.65 777.631 340.034 776.696 339.515 775.657 339.212 774.589 339.148H774.448C773.964 339.158 773.488 339.265 773.045 339.46 772.601 339.655 772.201 339.936 771.866 340.286L771.847 340.267zM309.545 296.41 319.658 288.418 333.471 305.831 333.65 305.692 335.159 276.162 348.119 265.91 345.288 300.233 383.165 307.861 369.664 318.54 338.102 311.425 337.978 311.518 353.61 331.239 343.507 339.239 309.545 296.41zM742.285 329.003 746.14 304.583 742.58 301.841 729.317 319.007 719.097 311.139 752.503 267.892 769.016 280.608C771.064 282.184 772.939 283.973 774.608 285.945 776.201 287.795 777.44 289.922 778.259 292.221 779.046 294.439 779.267 296.818 778.904 299.143 778.425 301.834 777.254 304.356 775.505 306.459 773.532 309.194 770.667 311.158 767.401 312.012 764.096 312.766 760.638 312.484 757.499 311.204L754.514 338.429 742.285 329.003zM748.359 294.222 753.342 298.057C754.228 298.734 755.165 299.345 756.142 299.883 757.098 300.41 758.129 300.79 759.198 301.01 760.212 301.214 761.261 301.146 762.24 300.815 763.361 300.397 764.329 299.649 765.015 298.67 765.736 297.837 766.185 296.805 766.302 295.711 766.366 294.765 766.187 293.819 765.782 292.962 765.342 292.057 764.754 291.23 764.045 290.515 763.335 289.775 762.573 289.089 761.76 288.463L756.161 284.15 748.359 294.222zM365.748 274.921 376.547 268.335 396.578 301.136 385.757 307.732 365.748 274.921zM407.082 292.157C405.558 291.523 404.198 290.552 403.107 289.314 401.849 287.898 400.788 286.317 399.957 284.615L392.655 270.099 387.136 272.872 382.903 264.467 388.354 261.726 383.796 252.7 394.912 247.116 399.454 256.149 407.534 252.094 411.767 260.506 403.686 264.554 410.307 277.703C410.86 279.031 411.832 280.143 413.075 280.871 413.725 281.103 414.419 281.18 415.104 281.096 415.79 281.013 416.447 280.772 417.024 280.392 417.612 280.091 418.179 279.751 418.72 279.374 419.22 279.038 419.669 278.635 420.056 278.175L424.378 286.376C423.569 287.181 422.695 287.922 421.769 288.591 420.687 289.394 419.537 290.102 418.331 290.704 416.389 291.75 414.278 292.441 412.093 292.746 411.628 292.799 411.161 292.827 410.694 292.828 409.464 292.844 408.243 292.618 407.101 292.164L407.082 292.157zM431.535 279.093C429.064 278.091 426.832 276.583 424.98 274.667 422.952 272.537 421.393 270.006 420.405 267.238 419.341 264.522 418.859 261.614 418.99 258.701 419.122 256.042 419.814 253.44 421.022 251.066 422.253 248.677 423.95 246.558 426.014 244.835 428.205 242.982 430.707 241.531 433.403 240.548 434.702 240.061 436.042 239.697 437.408 239.459 438.747 239.222 440.1 239.087 441.458 239.054 442.745 239.017 444.034 239.115 445.299 239.349 446.438 239.559 447.547 239.903 448.604 240.375L444.716 250.891C443.639 250.257 442.425 249.892 441.177 249.827 439.874 249.729 438.564 249.908 437.336 250.354 436.151 250.779 435.083 251.476 434.216 252.389 433.405 253.253 432.776 254.273 432.37 255.387 431.956 256.53 431.751 257.737 431.763 258.953 431.778 260.241 432.023 261.517 432.484 262.72 432.928 263.925 433.572 265.047 434.39 266.037 435.161 266.981 436.112 267.762 437.188 268.335 438.25 268.893 439.415 269.225 440.612 269.313 441.9 269.397 443.191 269.196 444.392 268.723 445.617 268.263 446.744 267.574 447.713 266.696 448.669 265.876 449.397 264.825 449.827 263.643L459.41 269.196C458.34 271.359 456.802 273.259 454.908 274.758 452.8 276.493 450.411 277.859 447.845 278.796 445.144 279.834 442.286 280.402 439.393 280.474H438.948C436.419 280.492 433.909 280.026 431.556 279.098L431.535 279.093zM451.372 214.766 463.734 212 469.164 236.164 469.319 236.133C469.942 234.249 471.029 232.551 472.478 231.194 474.22 229.517 476.41 228.378 478.785 227.916 480.996 227.345 483.31 227.316 485.535 227.829 487.373 228.296 489.084 229.166 490.543 230.377 491.971 231.608 493.144 233.107 493.993 234.789 494.869 236.505 495.528 238.324 495.957 240.202L501.162 263.386 488.715 266.176 484.154 245.842C483.932 244.835 483.631 243.848 483.252 242.889 482.922 242.029 482.435 241.239 481.813 240.56 481.243 239.942 480.526 239.477 479.729 239.208 478.799 238.938 477.813 238.928 476.877 239.177 475.911 239.34 475 239.735 474.222 240.33 473.444 240.924 472.823 241.699 472.413 242.587 471.589 244.502 471.429 246.637 471.96 248.653L476.505 268.91 464.137 271.676 451.372 214.766zM362.888 268.033C361.991 267.844 361.141 267.471 360.395 266.937 359.649 266.404 359.022 265.722 358.553 264.934 358.08 264.151 357.766 263.284 357.627 262.38 357.495 261.484 357.557 260.571 357.808 259.701 358.064 258.81 358.47 257.97 359.007 257.215 359.566 256.406 360.292 255.728 361.138 255.226 361.962 254.724 362.876 254.384 363.828 254.224 364.739 254.063 365.674 254.082 366.577 254.28 367.459 254.471 368.293 254.835 369.033 255.351 369.815 255.881 370.47 256.575 370.953 257.386 371.447 258.189 371.766 259.087 371.888 260.022 371.997 260.918 371.936 261.827 371.71 262.701 371.471 263.591 371.058 264.425 370.496 265.155 369.917 265.924 369.194 266.575 368.37 267.072 367.222 267.802 365.893 268.197 364.531 268.211 363.985 268.214 363.441 268.156 362.907 268.038L362.888 268.033zM578.121 261.51 579.645 240.579C579.722 239.547 579.71 238.51 579.607 237.48 579.512 236.569 579.273 235.68 578.899 234.844 578.553 234.077 578.001 233.421 577.303 232.948 576.476 232.416 575.519 232.118 574.536 232.086 573.509 231.985 572.473 232.135 571.517 232.522 570.649 232.893 569.879 233.459 569.265 234.175 568.63 234.936 568.137 235.804 567.81 236.739 567.449 237.732 567.228 238.77 567.156 239.824L565.639 260.602 552.921 259.67 555.721 221.354 567.959 222.248 567.58 227.554 567.727 227.568C568.296 226.726 568.965 225.957 569.72 225.277 570.538 224.519 571.473 223.895 572.487 223.429 573.569 222.927 574.701 222.541 575.865 222.279 577.115 222.001 578.399 221.912 579.675 222.015 581.942 222.117 584.152 222.756 586.122 223.88 587.763 224.852 589.162 226.182 590.214 227.772 591.227 229.359 591.914 231.13 592.237 232.984 592.582 234.881 592.689 236.813 592.556 238.736L590.812 262.433 578.121 261.51zM519.833 261.44C517.285 260.767 514.895 259.598 512.8 257.999 510.713 256.379 509.004 254.325 507.792 251.979 506.448 249.339 505.668 246.448 505.504 243.49 505.257 240.576 505.599 237.642 506.51 234.863 507.333 232.354 508.667 230.042 510.428 228.074 512.182 226.146 514.305 224.588 516.669 223.491 519.203 222.305 521.935 221.604 524.727 221.426 527.386 221.206 530.063 221.495 532.613 222.279 534.984 223.031 537.164 224.284 539.006 225.953 540.892 227.72 542.399 229.849 543.441 232.212 544.643 234.953 545.346 237.886 545.517 240.874 545.548 241.394 545.594 241.906 545.625 242.419 545.666 242.904 545.676 243.392 545.655 243.879L517.841 245.906C517.998 246.937 518.402 247.914 519.018 248.756 519.626 249.6 520.39 250.323 521.268 250.884 522.177 251.469 523.173 251.904 524.221 252.173 525.304 252.453 526.425 252.555 527.542 252.475 529.306 252.399 531.025 251.887 532.543 250.984 533.823 250.191 534.91 249.121 535.723 247.855L544.91 252.756C543.305 255.496 540.996 257.759 538.221 259.31 535.104 261.014 531.643 261.997 528.095 262.186 527.437 262.234 526.781 262.258 526.138 262.258 524.016 262.262 521.902 261.987 519.852 261.44H519.833zM525.449 230.123C524.288 230.195 523.152 230.474 522.09 230.947 521.135 231.385 520.261 231.984 519.51 232.718 518.796 233.434 518.225 234.28 517.83 235.21 517.437 236.112 517.243 237.087 517.262 238.069L533.518 236.871C533.414 234.978 532.61 233.19 531.263 231.853 530.6 231.243 529.822 230.772 528.973 230.467 528.125 230.163 527.225 230.031 526.325 230.08 526.076 230.094 525.772 230.104 525.467 230.128L525.449 230.123z" fill="#eb673f"/><defs><radialGradient id="paint0_radial" cx="0" cy="0" r="1" gradientUnits="userSpaceOnUse" gradientTransform="translate(549 549) rotate(90) scale(549)"><stop stop-color="#eb673f" stop-opacity=".17"/><stop offset="1" stop-color="#eb673f" stop-opacity="0"/></radialGradient></defs></svg>