<svg width="721" height="708" viewBox="0 0 721 708" fill="none" xmlns="http://www.w3.org/2000/svg">
<path d="M419.657 673.032L419.43 673.071L409.933 690.493L394.777 693.072L406.491 673.476L387.714 655.301L403.184 652.664L418.687 668.721L418.926 668.683L415.83 650.5L428.392 648.372L438.193 705.872L425.624 708L419.657 673.032ZM323.721 702.493L324.609 692.427L315.603 691.634L316.426 682.259L325.434 683.052L326.733 668.395C326.961 666.974 326.718 665.517 326.039 664.247C325.609 663.705 325.059 663.271 324.431 662.98C323.803 662.688 323.115 662.548 322.423 662.569C321.77 662.506 321.111 662.498 320.457 662.545C319.854 662.569 319.259 662.674 318.685 662.857L319.343 653.621C320.452 653.355 321.581 653.182 322.718 653.101C324.062 652.988 325.412 652.988 326.756 653.101C328.955 653.235 331.113 653.753 333.133 654.63C334.697 655.325 336.058 656.408 337.085 657.776C338.047 659.119 338.694 660.662 338.976 662.289C339.293 664.154 339.359 666.053 339.17 667.935L337.743 684.114L343.895 684.658L343.079 694.033L336.998 693.496L336.11 703.562L323.721 702.493ZM360.659 694.036C358.32 693.192 356.196 691.846 354.437 690.091C352.63 688.244 351.215 686.055 350.272 683.651C349.2 680.855 348.631 677.891 348.592 674.897L348.542 673.351C348.524 672.864 348.539 672.377 348.585 671.892L376.469 671.098C376.339 670.063 375.976 669.07 375.41 668.194C374.839 667.326 374.109 666.572 373.261 665.972C372.376 665.345 371.397 664.865 370.359 664.551C369.292 664.224 368.178 664.075 367.062 664.108C365.294 664.105 363.553 664.537 361.992 665.366C360.684 666.111 359.553 667.132 358.679 668.357L349.719 663.051C351.44 660.385 353.844 658.227 356.679 656.798C359.87 655.232 363.373 654.406 366.928 654.383C369.712 654.288 372.492 654.666 375.15 655.502C377.664 656.281 380 657.551 382.019 659.238C384.03 660.95 385.65 663.076 386.764 665.469C387.989 668.172 388.638 671.101 388.67 674.068C388.791 676.981 388.323 679.889 387.294 682.618C386.352 685.088 384.915 687.34 383.071 689.235C381.226 691.083 379.034 692.549 376.621 693.549C374.037 694.619 371.276 695.196 368.48 695.25C368.24 695.25 368.026 695.25 367.8 695.25C365.367 695.272 362.948 694.861 360.659 694.036ZM360.399 679.417C360.409 681.318 361.136 683.146 362.435 684.536C363.185 685.269 364.088 685.828 365.079 686.173C366.07 686.518 367.126 686.64 368.17 686.532C369.33 686.517 370.476 686.288 371.552 685.856C372.531 685.47 373.433 684.909 374.212 684.203C374.958 683.529 375.563 682.714 375.993 681.806C376.429 680.923 376.668 679.956 376.694 678.971L360.399 679.417ZM241.442 690.664L249.267 669.871L249.056 669.785L222.929 683.719L207.452 677.9L238.378 662.646L225.397 626.288L241.521 632.339L251.688 663.015L251.835 663.077L260.687 639.536L272.764 644.073L253.521 695.195L241.442 690.664ZM290.088 688.404C287.34 687.907 284.694 686.949 282.267 685.569C280.337 684.441 278.751 682.812 277.674 680.855C276.608 678.741 276.024 676.417 275.968 674.051C275.891 671 276.186 667.951 276.847 664.971L280.751 646.002L292.101 648.331L291.276 652.331L291.504 652.386C292.88 650.968 294.662 650.01 296.606 649.645C298.775 649.19 301.017 649.19 303.186 649.645C304.769 649.984 306.302 650.513 307.757 651.222C309.257 651.931 310.618 652.905 311.771 654.097C312.943 655.312 313.815 656.783 314.321 658.392C314.874 660.3 314.918 662.318 314.452 664.249C314.08 666.668 312.804 668.856 310.878 670.37C308.94 671.77 306.693 672.686 304.328 673.042C301.615 673.479 298.855 673.549 296.123 673.253C293.271 672.981 290.435 672.555 287.63 671.978L287.512 672.584C287.288 673.369 287.273 674.199 287.468 674.992C287.663 675.784 288.062 676.513 288.626 677.104C289.88 678.32 291.475 679.127 293.198 679.419C294.961 679.786 296.783 679.76 298.534 679.342C300.207 678.968 301.813 678.339 303.294 677.478L308.195 685.485C305.543 687.153 302.563 688.236 299.458 688.663C298.145 688.85 296.821 688.944 295.495 688.945C293.677 688.948 291.864 688.767 290.083 688.404H290.088ZM292.153 658.229C291.306 658.846 290.592 659.626 290.05 660.522C289.509 661.418 289.151 662.413 288.998 663.449L288.733 664.738L290.32 665.05C291.674 665.33 293.074 665.555 294.482 665.711C295.762 665.872 297.054 665.89 298.337 665.766C299.4 665.664 300.425 665.318 301.333 664.757C301.763 664.486 302.129 664.127 302.408 663.702C302.687 663.277 302.872 662.798 302.95 662.296C303.098 661.659 303.057 660.993 302.833 660.379C302.615 659.821 302.274 659.319 301.837 658.91C301.356 658.491 300.81 658.155 300.219 657.915C299.625 657.662 299.008 657.469 298.375 657.34C297.63 657.185 296.87 657.104 296.109 657.1C294.707 657.062 293.326 657.456 292.157 658.229H292.153ZM456.677 680.241C454.438 680.213 452.249 679.571 450.351 678.384C448.374 677.071 446.721 675.329 445.512 673.289C443.943 670.674 442.701 667.879 441.811 664.963L435.884 646.524L446.923 642.982L448.174 646.882L448.402 646.812C448.89 644.9 449.97 643.19 451.488 641.926C453.151 640.459 455.107 639.363 457.228 638.709C458.767 638.214 460.365 637.919 461.98 637.832C463.638 637.709 465.304 637.888 466.897 638.36C468.511 638.845 469.99 639.698 471.217 640.852C472.638 642.24 473.67 643.975 474.212 645.885C475.074 648.177 475.036 650.711 474.104 652.976C473.104 655.144 471.599 657.043 469.717 658.514C467.565 660.222 465.196 661.635 462.669 662.715C460.05 663.872 457.372 664.894 454.647 665.776L454.835 666.365C455.029 667.159 455.426 667.888 455.988 668.482C456.549 669.075 457.256 669.513 458.038 669.752C459.726 670.196 461.508 670.117 463.15 669.526C464.866 668.98 466.443 668.063 467.764 666.84C469.042 665.692 470.135 664.356 471.008 662.878L479.206 667.46C477.712 670.21 475.648 672.612 473.155 674.506C470.666 676.425 467.865 677.899 464.872 678.863C462.399 679.716 459.808 680.182 457.192 680.246C457.029 680.248 456.845 680.246 456.672 680.241H456.677ZM458.713 647.339C458.066 647.413 457.427 647.554 456.808 647.759C455.759 648.017 454.775 648.49 453.918 649.148C453.062 649.806 452.35 650.635 451.83 651.581C451.399 652.534 451.161 653.562 451.129 654.607C451.098 655.653 451.272 656.694 451.645 657.671L452.041 658.922L453.597 658.426C454.919 658.007 456.232 657.517 457.539 656.956C458.73 656.468 459.863 655.848 460.916 655.109C461.794 654.496 462.522 653.694 463.047 652.763C463.282 652.314 463.422 651.82 463.455 651.315C463.487 650.809 463.411 650.302 463.234 649.827C463.051 649.2 462.692 648.639 462.198 648.212C461.734 647.832 461.189 647.564 460.605 647.428C460.226 647.34 459.836 647.296 459.447 647.299C459.2 647.298 458.954 647.311 458.709 647.339H458.713ZM503.795 676.56C501.452 676.297 499.211 675.459 497.271 674.12C495.059 672.51 493.302 670.356 492.169 667.868C490.564 664.906 490.043 661.478 490.697 658.174C491.46 654.872 493.224 651.886 495.75 649.623L472.527 635.052L486.354 628.186L506.666 642.299L510.702 640.296L501.018 620.884L512.577 615.132L536.943 664.033L518.279 673.315C515.967 674.469 513.538 675.373 511.035 676.011C509.37 676.442 507.657 676.663 505.937 676.67C505.22 676.674 504.504 676.636 503.791 676.558L503.795 676.56ZM509.403 651.619C508.402 652.125 507.439 652.704 506.523 653.352C505.634 653.979 504.845 654.736 504.182 655.598C503.554 656.416 503.154 657.386 503.024 658.409C502.91 659.602 503.16 660.802 503.744 661.85C504.184 662.859 504.928 663.708 505.869 664.28C506.693 664.744 507.621 664.991 508.567 664.999C509.575 665.006 510.575 664.844 511.529 664.52C512.508 664.205 513.463 663.818 514.384 663.362L520.707 660.216L515.021 648.83L509.403 651.619ZM194.41 673.08C193.427 673.008 192.471 672.73 191.602 672.265C190.749 671.82 189.987 671.217 189.359 670.487C188.754 669.789 188.289 668.982 187.986 668.11C187.701 667.252 187.583 666.347 187.642 665.445C187.693 664.502 187.951 663.582 188.396 662.749C188.829 661.909 189.439 661.173 190.184 660.592C190.891 660.033 191.696 659.614 192.561 659.358C193.454 659.109 194.388 659.033 195.31 659.133C196.271 659.229 197.203 659.512 198.057 659.964C198.915 660.383 199.68 660.971 200.304 661.693C200.928 662.415 201.4 663.256 201.689 664.165C201.989 665.031 202.106 665.95 202.031 666.864C201.957 667.777 201.69 668.665 201.253 669.471C200.838 670.289 200.255 671.009 199.54 671.585C198.842 672.161 198.028 672.582 197.154 672.819C196.449 673.005 195.725 673.097 194.996 673.095C194.804 673.098 194.607 673.092 194.405 673.078L194.41 673.08ZM194.916 652.319L212.765 618.289L223.991 624.153L206.147 658.184L194.916 652.319ZM167.287 647.543L172.694 639.007L165.061 634.182L170.102 626.221L177.74 631.053L185.619 618.61C186.476 617.456 186.933 616.054 186.92 614.617C186.782 613.942 186.49 613.307 186.067 612.763C185.643 612.219 185.099 611.78 184.478 611.48C183.92 611.127 183.335 610.815 182.732 610.548C182.183 610.302 181.606 610.125 181.014 610.021L185.835 602.112C186.945 602.384 188.031 602.748 189.081 603.2C190.326 603.713 191.521 604.334 192.657 605.057C194.548 606.185 196.23 607.631 197.628 609.33C198.698 610.664 199.408 612.25 199.688 613.937C199.932 615.57 199.798 617.239 199.299 618.814C198.73 620.62 197.916 622.34 196.88 623.925L188.185 637.65L193.412 640.95L188.37 648.904L183.207 645.65L177.801 654.193L167.287 647.543ZM149.241 622.075C146.524 621.147 143.99 619.754 141.751 617.958C140.662 617.095 139.657 616.132 138.749 615.082C137.858 614.057 137.043 612.969 136.307 611.828C135.621 610.741 135.047 609.588 134.594 608.386C134.187 607.304 133.906 606.178 133.759 605.031L144.8 602.934C144.811 604.181 145.124 605.407 145.712 606.507C146.295 607.676 147.124 608.705 148.145 609.522C149.119 610.322 150.272 610.878 151.505 611.145C152.666 611.392 153.865 611.402 155.03 611.176C156.22 610.939 157.359 610.491 158.391 609.855C159.493 609.185 160.462 608.319 161.252 607.301C162.06 606.3 162.693 605.171 163.125 603.96C163.531 602.812 163.708 601.595 163.648 600.379C163.58 599.185 163.268 598.017 162.729 596.948C162.138 595.803 161.302 594.803 160.28 594.019C159.25 593.206 158.075 592.595 156.818 592.217C155.621 591.828 154.346 591.746 153.108 591.977L152.93 580.91C155.342 580.72 157.766 581.062 160.031 581.912C162.608 582.818 165.012 584.155 167.14 585.866C169.423 587.646 171.386 589.803 172.942 592.243C174.392 594.499 175.364 597.027 175.797 599.672C176.222 602.308 176.082 605.004 175.384 607.581C174.601 610.413 173.231 613.051 171.367 615.324C169.587 617.634 167.34 619.545 164.773 620.932C162.423 622.191 159.834 622.94 157.175 623.13C156.711 623.163 156.25 623.18 155.787 623.18C153.559 623.171 151.346 622.797 149.239 622.073L149.241 622.075ZM101.811 606.936L119.7 589.801L119.606 589.684C117.667 590.12 115.648 590.069 113.733 589.535C111.391 588.92 109.279 587.635 107.659 585.837C106.026 584.244 104.805 582.28 104.099 580.112C103.541 578.3 103.403 576.385 103.696 574.511C104.005 572.655 104.682 570.878 105.685 569.285C106.7 567.646 107.915 566.14 109.304 564.803L126.476 548.361L135.304 557.542L120.246 571.966C119.497 572.676 118.804 573.445 118.177 574.264C117.613 574.994 117.19 575.821 116.928 576.704C116.693 577.51 116.666 578.363 116.85 579.182C117.099 580.117 117.598 580.968 118.292 581.643C118.934 582.381 119.746 582.951 120.659 583.306C121.571 583.66 122.555 583.788 123.527 583.678C125.597 583.395 127.511 582.427 128.964 580.929L143.959 566.55L152.726 575.683L110.583 616.057L101.811 606.936ZM619.5 569.155C617.616 569.14 615.755 568.748 614.025 568.005C612.245 567.255 610.566 566.29 609.023 565.129L590.082 550.75L597.784 540.605L614.522 553.307C615.341 553.942 616.218 554.499 617.142 554.97C617.957 555.391 618.835 555.679 619.741 555.826C620.578 555.944 621.432 555.836 622.213 555.514C623.103 555.105 623.869 554.47 624.438 553.674C625.081 552.868 625.519 551.919 625.715 550.908C625.881 549.979 625.828 549.023 625.56 548.118C625.268 547.172 624.807 546.286 624.201 545.501C623.569 544.654 622.82 543.901 621.974 543.265L605.36 530.667L613.069 520.53L643.707 543.776L636.28 553.539L632.031 550.323L631.937 550.448C632.332 551.385 632.615 552.366 632.778 553.369C632.96 554.466 632.973 555.585 632.818 556.686C632.655 557.865 632.359 559.021 631.939 560.135C631.492 561.335 630.867 562.461 630.083 563.475C628.762 565.317 627.02 566.819 625.002 567.856C623.307 568.695 621.445 569.141 619.553 569.16L619.5 569.155ZM91.4033 558.723C88.8414 558.217 86.404 557.211 84.2319 555.763C81.9104 554.207 79.9014 552.231 78.3072 549.937C76.7314 547.785 75.5893 545.347 74.9465 542.76C74.3483 540.347 74.2941 537.832 74.7848 535.395C75.3129 532.87 76.3495 530.478 77.8338 528.366C79.5638 525.922 81.7167 523.805 84.1897 522.114C84.6097 521.812 85.0355 521.515 85.4459 521.22C85.8562 520.925 86.2799 520.661 86.6927 520.427L102.833 543.138C103.631 542.466 104.261 541.618 104.675 540.66C105.077 539.699 105.298 538.672 105.324 537.631C105.357 536.551 105.213 535.472 104.896 534.439C104.583 533.37 104.091 532.361 103.442 531.455C102.463 529.986 101.134 528.783 99.5755 527.952C98.2373 527.265 96.7606 526.89 95.2562 526.856L94.6891 516.472C97.872 516.418 101.012 517.215 103.782 518.78C106.85 520.566 109.476 523.016 111.472 525.948C113.101 528.209 114.333 530.73 115.114 533.404C115.86 535.923 116.098 538.566 115.814 541.178C115.508 543.8 114.638 546.325 113.265 548.581C111.692 551.096 109.616 553.259 107.166 554.934C104.806 556.663 102.117 557.891 99.2638 558.546C97.8207 558.87 96.3463 559.035 94.8672 559.039C93.7062 559.044 92.5489 558.938 91.408 558.723H91.4033ZM83.8522 538.957C83.6549 539.987 83.6884 541.049 83.9506 542.066C84.2129 543.082 84.6969 544.028 85.3685 544.835C86.0305 545.785 86.8594 546.608 87.8129 547.265C88.6784 547.862 89.644 548.296 90.6651 548.547C91.6451 548.785 92.6609 548.838 93.6602 548.703C94.6376 548.569 95.5756 548.225 96.407 547.694L86.9716 534.42C85.4008 535.491 84.2878 537.109 83.8499 538.957H83.8522ZM641.286 527.54C638.326 527.05 635.476 526.04 632.87 524.556C632.426 524.316 631.973 524.06 631.522 523.818C631.091 523.584 630.674 523.324 630.273 523.041L643.711 498.628C642.755 498.206 641.714 498.015 640.669 498.07C639.63 498.121 638.61 498.365 637.66 498.788C636.677 499.238 635.769 499.838 634.97 500.567C634.146 501.323 633.449 502.207 632.907 503.184C632.013 504.705 631.508 506.423 631.438 508.185C631.405 509.689 631.714 511.181 632.34 512.549L623.221 517.582C621.792 514.744 621.15 511.577 621.358 508.408C621.618 504.87 622.676 501.436 624.454 498.364C625.786 495.917 627.521 493.712 629.586 491.841C631.528 490.067 633.805 488.699 636.284 487.817C638.783 486.953 641.438 486.635 644.07 486.885C647.022 487.198 649.877 488.121 652.453 489.595C655.037 490.96 657.316 492.835 659.151 495.107C660.809 497.163 662.025 499.536 662.727 502.081C663.392 504.604 663.548 507.234 663.184 509.817C662.796 512.584 661.893 515.255 660.524 517.692C659.266 520.041 657.568 522.126 655.523 523.837C653.603 525.415 651.366 526.559 648.961 527.192C647.483 527.567 645.961 527.755 644.436 527.75C643.383 527.76 642.333 527.692 641.29 527.547L641.286 527.54ZM642.765 516.681C644.406 517.634 646.346 517.934 648.199 517.52C649.215 517.247 650.156 516.753 650.958 516.073C651.759 515.394 652.4 514.545 652.835 513.589C653.404 512.581 653.788 511.478 653.967 510.335C654.122 509.295 654.093 508.235 653.88 507.205C653.668 506.222 653.269 505.289 652.706 504.456C652.162 503.634 651.446 502.94 650.606 502.422L642.765 516.681ZM56.5491 512.456L61.3019 510.059L61.2316 509.911C60.2155 509.867 59.209 509.695 58.2365 509.398C57.1649 509.084 56.1475 508.609 55.2179 507.991C54.2333 507.324 53.3237 506.554 52.504 505.693C51.6218 504.767 50.8803 503.718 50.3034 502.577C49.2161 500.584 48.6197 498.361 48.5667 496.092C48.5559 494.19 48.9777 492.31 49.7971 490.592C50.6334 488.903 51.7995 487.397 53.2282 486.166C54.6751 484.894 56.2772 483.809 57.9951 482.935L79.2142 472.177L84.9725 483.525L66.2353 493.025C65.3068 493.489 64.424 494.038 63.5963 494.664C62.862 495.212 62.219 495.873 61.691 496.622C61.2128 497.318 60.9355 498.132 60.8895 498.975C60.8643 499.955 61.104 500.924 61.5832 501.779C62.0241 502.707 62.6823 503.514 63.5026 504.133C64.2653 504.691 65.1512 505.058 66.0853 505.204C67.0659 505.363 68.0661 505.339 69.0382 505.134C70.0761 504.928 71.0809 504.581 72.024 504.101L90.6206 494.681L96.3929 506.028L62.073 523.41L56.5491 512.456ZM666.065 484.565C664.143 484.375 662.252 483.944 660.438 483.283L638.12 475.058L642.521 463.121L662.097 470.311C663.062 470.675 664.056 470.958 665.069 471.156C665.97 471.347 666.897 471.368 667.806 471.219C668.638 471.078 669.421 470.727 670.079 470.2C670.818 469.571 671.365 468.747 671.657 467.823C672.045 466.925 672.206 465.945 672.128 464.97C672.049 463.995 671.733 463.054 671.207 462.229C670.044 460.499 668.338 459.206 666.355 458.556L646.864 451.378L651.239 439.501L706.035 459.68L701.653 471.557L678.388 462.982L678.334 463.121C679.57 464.674 680.408 466.507 680.771 468.458C681.237 470.832 681.004 473.29 680.101 475.535C679.38 477.7 678.144 479.659 676.501 481.244C675.115 482.532 673.458 483.493 671.65 484.055C670.346 484.441 668.99 484.635 667.63 484.63C667.118 484.643 666.6 484.62 666.072 484.563L666.065 484.565ZM679.238 434.717C680.357 434.161 681.327 433.343 682.062 432.333C682.862 431.297 683.422 430.099 683.705 428.822C683.992 427.6 683.987 426.329 683.689 425.11C683.402 423.957 682.886 422.874 682.172 421.925C681.434 420.961 680.531 420.135 679.505 419.485C678.411 418.799 677.206 418.307 675.943 418.033C674.688 417.75 673.394 417.682 672.116 417.831C670.905 417.968 669.734 418.342 668.669 418.934C667.619 419.516 666.704 420.313 665.985 421.273C665.212 422.304 664.681 423.496 664.431 424.76C664.156 426.036 664.122 427.353 664.331 428.642C664.497 429.89 664.986 431.073 665.748 432.076L655.861 437.109C654.633 435.028 653.874 432.703 653.644 430.298C653.329 427.587 653.477 424.843 654.08 422.181C654.677 419.353 655.754 416.648 657.262 414.182C658.657 411.888 660.507 409.906 662.699 408.356C664.881 406.824 667.361 405.768 669.979 405.257C672.875 404.709 675.854 404.78 678.72 405.465C681.579 406.047 684.287 407.219 686.665 408.907C688.827 410.466 690.637 412.462 691.978 414.764C693.313 417.097 694.174 419.671 694.514 422.337C694.871 425.183 694.729 428.069 694.092 430.866C693.794 432.216 693.374 433.536 692.841 434.811C692.305 436.06 691.682 437.269 690.975 438.43C690.307 439.524 689.528 440.547 688.65 441.483C687.851 442.325 686.953 443.069 685.976 443.697L679.238 434.717ZM689.056 401.847L690.033 392.884L675.395 391.276C673.978 391.019 672.515 391.225 671.225 391.865C670.679 392.287 670.237 392.828 669.934 393.448C669.631 394.067 669.474 394.749 669.477 395.438C669.408 396.093 669.387 396.753 669.414 397.411C669.426 398.01 669.518 398.606 669.686 399.182L660.445 398.326C660.207 397.214 660.062 396.083 660.009 394.947C659.923 393.606 659.951 392.26 660.093 390.923C660.28 388.727 660.849 386.579 661.774 384.577C662.504 383.036 663.614 381.705 665.001 380.709C666.365 379.776 667.926 379.166 669.561 378.924C671.436 378.64 673.339 378.611 675.221 378.838L691.399 380.601L692.06 374.474L701.43 375.492L700.764 381.558L710.826 382.653L709.476 395.002L699.41 393.9L698.43 402.88L689.056 401.847ZM713.867 369.494C712.923 369.473 711.991 369.248 711.142 368.835C710.322 368.447 709.589 367.901 708.983 367.226C708.364 366.543 707.888 365.743 707.582 364.873C707.242 363.968 707.086 363.004 707.125 362.038C707.125 361.084 707.319 360.141 707.694 359.264C708.07 358.387 708.619 357.595 709.309 356.936C709.957 356.287 710.733 355.78 711.587 355.446C712.441 355.112 713.356 354.958 714.273 354.995C715.185 355.019 716.083 355.227 716.912 355.608C717.739 355.983 718.477 356.532 719.073 357.216C719.678 357.917 720.164 358.712 720.512 359.57C720.875 360.483 721.039 361.464 720.992 362.445C720.968 363.408 720.76 364.358 720.378 365.242C720.016 366.088 719.496 366.858 718.845 367.509C718.201 368.147 717.435 368.651 716.595 368.993C715.791 369.328 714.929 369.501 714.057 369.501L713.867 369.494ZM663.154 367.123L663.517 354.47L701.974 355.572L701.608 368.209L663.154 367.123ZM663.208 335.046L686.41 312.519V312.37L661.326 314.685L660.126 301.861L714.589 296.829L715.789 309.652L693.64 311.711L693.663 311.951L717.617 329.325L719.145 345.768L691.896 324.657L664.806 352.191L663.208 335.046ZM0 342.643L1.67803 321.875C1.88536 319.304 2.3695 316.763 3.11935 314.295C3.8062 311.958 4.91374 309.765 6.38635 307.824C7.82364 305.957 9.70037 304.475 11.8517 303.51C14.3727 302.443 17.1293 302.052 19.8481 302.377C23.2149 302.537 26.4216 303.863 28.9155 306.127C31.3608 308.479 33.011 311.533 33.6379 314.865L58.131 302.523L56.8795 317.894L34.2847 327.976L33.9191 332.458L55.5671 334.198L54.5242 347.045L0 342.643ZM15.8382 315.938C15.0125 316.405 14.3193 317.073 13.8226 317.88C13.2964 318.74 12.9202 319.683 12.7094 320.669C12.478 321.669 12.3171 322.684 12.229 323.706L11.6618 330.727L24.3806 331.753L24.8892 325.493C24.9807 324.382 24.9807 323.264 24.8892 322.153C24.8139 321.067 24.5731 319.999 24.1791 318.984C23.7952 318.027 23.1678 317.186 22.3581 316.545C21.3966 315.826 20.2377 315.419 19.0372 315.38C18.7972 315.361 18.5829 315.351 18.3669 315.351C17.493 315.325 16.6276 315.526 15.8546 315.934L15.8382 315.938ZM47.9293 298.463C45.5205 298.015 43.3705 296.676 41.9085 294.713C40.5563 292.743 39.7021 290.475 39.4196 288.103C39.0631 285.383 39.0684 282.628 39.436 279.909C39.7944 277.071 40.298 274.253 40.9453 271.466L40.3524 271.327C39.5719 271.082 38.7426 271.044 37.9431 271.217C37.1436 271.391 36.4028 271.769 35.794 272.315C34.5441 273.538 33.6894 275.107 33.3426 276.82C32.9334 278.573 32.912 280.395 33.2817 282.157C33.6017 283.835 34.1857 285.453 35.0089 286.95L26.8485 291.619C25.2633 288.924 24.267 285.925 23.9236 282.819C23.5587 279.696 23.7397 276.533 24.4603 273.472C25.0311 270.743 26.0605 268.13 27.5023 265.743C28.6906 263.849 30.3694 262.31 32.363 261.293C34.5074 260.282 36.8516 259.763 39.2227 259.771C42.2774 259.787 45.3177 260.171 48.2808 260.912L67.1586 265.338L64.5197 276.602L60.5215 275.662L60.4793 275.888C61.854 277.306 62.7583 279.113 63.069 281.062C63.4644 283.24 63.3958 285.476 62.8675 287.626C62.4834 289.194 61.9145 290.711 61.173 292.146C60.4166 293.623 59.4023 294.954 58.1779 296.076C56.9282 297.215 55.4299 298.045 53.8 298.499C52.927 298.749 52.0223 298.872 51.1142 298.866C50.0462 298.853 48.9825 298.717 47.9457 298.461L47.9293 298.463ZM47.8191 274.347C47.4991 275.699 47.2372 277.076 47.034 278.478C46.8459 279.747 46.7972 281.033 46.8864 282.313C46.9562 283.38 47.2702 284.416 47.8051 285.342C48.0671 285.776 48.417 286.15 48.8339 286.439C49.2508 286.728 49.7248 286.926 50.2237 287.02C50.8554 287.191 51.5238 287.17 52.1431 286.957C52.7092 286.759 53.2207 286.431 53.636 285.999C54.0743 285.537 54.431 285.004 54.6883 284.422C54.9546 283.829 55.1651 283.213 55.3187 282.581C55.6343 281.552 55.7332 280.469 55.6093 279.399C55.4854 278.33 55.1419 277.297 54.5992 276.367C54.0035 275.503 53.2409 274.766 52.3587 274.197C51.4765 273.627 50.4907 273.238 49.4573 273.05L48.18 272.748L47.8191 274.347ZM655.537 282.581L659.496 281.579L659.449 281.354C657.573 280.737 655.934 279.554 654.759 277.968C653.396 276.215 652.414 274.196 651.879 272.041C651.497 270.478 651.304 268.874 651.305 267.265C651.295 265.603 651.578 263.952 652.144 262.388C652.728 260.806 653.677 259.383 654.911 258.233C656.383 256.898 658.181 255.974 660.124 255.553C662.468 254.837 664.997 255.034 667.201 256.105C669.309 257.233 671.115 258.85 672.468 260.818C674.041 263.069 675.305 265.519 676.229 268.104C677.227 270.786 678.085 273.519 678.798 276.291L679.379 276.135C680.185 275.992 680.939 275.643 681.57 275.122C682.201 274.6 682.687 273.925 682.979 273.161C683.522 271.5 683.555 269.714 683.072 268.034C682.629 266.291 681.81 264.666 680.673 263.273C679.608 261.933 678.343 260.765 676.923 259.809L682.011 251.901C684.664 253.564 686.936 255.769 688.676 258.372C690.439 260.975 691.737 263.863 692.515 266.908C693.27 269.594 693.562 272.388 693.377 275.171C693.201 277.396 692.421 279.531 691.123 281.347C689.69 283.235 687.85 284.778 685.739 285.86C683.025 287.257 680.151 288.319 677.178 289.021L658.387 293.79L655.537 282.581ZM663.386 266.743C662.745 266.883 662.16 267.21 661.706 267.682C661.293 268.121 660.989 268.651 660.817 269.228C660.641 269.835 660.575 270.469 660.623 271.1C660.653 271.747 660.75 272.389 660.911 273.017C661.101 274.079 661.512 275.09 662.116 275.985C662.72 276.88 663.504 277.638 664.42 278.213C665.345 278.704 666.359 279.008 667.403 279.105C668.447 279.203 669.5 279.092 670.501 278.78L671.779 278.462L671.373 276.892C671.037 275.54 670.625 274.205 670.152 272.861C669.735 271.642 669.183 270.473 668.509 269.374C667.952 268.462 667.194 267.689 666.292 267.114C665.745 266.771 665.112 266.592 664.466 266.596C664.108 266.6 663.75 266.647 663.402 266.738L663.386 266.743ZM15.0366 236.676L19.6887 224.83L52.7759 237.771L52.8673 237.546L42.8132 220.442L48.4214 206.149L59.195 226.28L84.4709 219.591L78.7455 234.169L56.9663 239.156L56.8749 239.374L74.07 246.085L69.4226 257.938L15.0366 236.676ZM646.51 253.056C645.821 251.899 645.234 250.685 644.752 249.428C643.917 247.395 643.444 245.232 643.353 243.036C643.293 241.325 643.673 239.627 644.457 238.104C645.249 236.657 646.357 235.407 647.7 234.447C649.24 233.347 650.919 232.456 652.694 231.799L667.9 226.012L665.699 220.26L674.504 216.905L676.681 222.599L686.131 219.004L690.558 230.608L681.108 234.203L684.329 242.639L675.514 245.993L672.294 237.551L658.535 242.785C657.154 243.2 655.947 244.054 655.097 245.217C654.799 245.841 654.65 246.526 654.661 247.217C654.672 247.909 654.842 248.588 655.16 249.203C655.401 249.812 655.684 250.404 656.008 250.973C656.29 251.506 656.645 251.997 657.061 252.433L648.45 255.874C647.733 254.988 647.089 254.045 646.526 253.054L646.51 253.056ZM634.965 220.878C632.155 218.698 629.874 215.913 628.293 212.73C626.992 210.271 626.113 207.611 625.694 204.862C625.289 202.265 625.407 199.614 626.043 197.064C626.697 194.507 627.903 192.124 629.575 190.08C631.461 187.79 633.806 185.92 636.46 184.59C639.035 183.204 641.861 182.346 644.773 182.066C647.405 181.826 650.058 182.128 652.568 182.953C655.045 183.795 657.328 185.12 659.287 186.852C661.382 188.702 663.115 190.924 664.396 193.407C665.657 195.758 666.454 198.329 666.744 200.98C667.005 203.449 666.724 205.946 665.919 208.296C665.053 210.727 663.7 212.957 661.945 214.851C659.907 217.046 657.492 218.859 654.813 220.202C654.355 220.442 653.9 220.682 653.444 220.921C653.011 221.151 652.565 221.353 652.106 221.527L639.146 196.874C638.264 197.432 637.526 198.187 636.988 199.079C636.461 199.975 636.105 200.959 635.938 201.984C635.77 203.052 635.77 204.139 635.938 205.207C636.103 206.31 636.457 207.376 636.981 208.361C637.748 209.952 638.902 211.325 640.339 212.354C641.576 213.212 642.992 213.781 644.48 214.017L643.646 224.386C640.495 224.01 637.504 222.797 634.981 220.873L634.965 220.878ZM648.982 192.599C647.999 192.602 647.027 192.813 646.132 193.22L653.693 207.644C655.4 206.801 656.727 205.346 657.41 203.57C657.74 202.575 657.846 201.518 657.721 200.477C657.597 199.435 657.245 198.434 656.69 197.543C656.166 196.514 655.459 195.587 654.604 194.809C653.823 194.102 652.922 193.539 651.945 193.145C651.024 192.783 650.044 192.599 649.055 192.602L648.982 192.599ZM76.1675 213.609C73.2209 213.261 70.3799 212.307 67.8219 210.805C65.2564 209.402 63.0006 207.497 61.1871 205.205C59.5575 203.128 58.374 200.737 57.7115 198.183C57.0684 195.655 56.9413 193.024 57.3389 190.447C57.7593 187.681 58.694 185.018 60.0926 182.594C61.3797 180.263 63.0983 178.199 65.1595 176.511C67.0999 174.96 69.3525 173.845 71.7638 173.242C74.2813 172.646 76.894 172.565 79.4439 173.003C82.3953 173.532 85.231 174.576 87.8199 176.087C88.2639 176.344 88.7142 176.593 89.1581 176.849C89.5876 177.087 90.0047 177.349 90.405 177.633L76.6854 201.874C77.6308 202.315 78.6682 202.523 79.711 202.48C80.7485 202.445 81.7695 202.213 82.7202 201.797C83.7144 201.361 84.6331 200.772 85.4435 200.05C86.273 199.304 86.9788 198.431 87.534 197.464C88.4501 195.954 88.9741 194.24 89.0597 192.477C89.1127 190.971 88.8234 189.473 88.2113 188.096L97.3819 183.164C98.7891 186.018 99.397 189.198 99.1443 192.369C98.8413 195.906 97.7407 199.33 95.9242 202.382C94.5619 204.809 92.8009 206.991 90.7143 208.836C88.7489 210.584 86.4526 211.922 83.9624 212.773C82.1068 213.398 80.1622 213.713 78.2041 213.705C77.5433 213.701 76.871 213.666 76.1862 213.602L76.1675 213.609ZM72.406 182.934C71.3895 183.199 70.4434 183.684 69.6358 184.355C68.8283 185.026 68.1784 185.866 67.7328 186.816C67.1447 187.815 66.7455 188.913 66.5563 190.056C66.3853 191.094 66.4028 192.154 66.6055 193.186C66.8082 194.173 67.1981 195.112 67.7563 195.952C68.2874 196.779 68.9933 197.482 69.8233 198.01L77.8361 183.835C76.6587 183.151 75.3221 182.786 73.9598 182.776C73.4433 182.775 72.9289 182.826 72.4224 182.927L72.406 182.934ZM610.845 181.017L618.492 160.038L618.351 159.851L603.357 170.609L595.916 160.277L643.329 126.225L650.77 136.563L621.913 157.279L622.056 157.466L641.897 158.329L650.873 170.791L628.098 168.905L619.994 193.721L610.845 181.017ZM103.663 174.306C101.901 173.607 100.241 172.677 98.7248 171.541L85.6029 161.955L81.9468 166.925L74.3488 161.363L77.9486 156.445L69.7905 150.473L77.1401 140.453L85.3006 146.444L90.644 139.159L98.2443 144.721L92.9009 152.007L104.785 160.699C105.882 161.631 107.252 162.182 108.69 162.269C109.375 162.179 110.029 161.931 110.602 161.546C111.176 161.16 111.653 160.647 111.994 160.047C112.382 159.513 112.729 158.953 113.037 158.369C113.33 157.842 113.551 157.278 113.691 156.692L121.256 162.044C120.903 163.125 120.465 164.177 119.949 165.19C119.352 166.397 118.649 167.549 117.849 168.632C116.599 170.445 115.035 172.02 113.229 173.283C111.833 174.268 110.202 174.87 108.5 175.03C108.204 175.056 107.908 175.068 107.614 175.068C106.267 175.052 104.935 174.792 103.682 174.299L103.663 174.306ZM119.649 155.424C117.725 154.918 115.97 153.914 114.561 152.512C112.683 150.937 111.472 148.712 111.169 146.282C110.968 143.902 111.345 141.509 112.266 139.305C113.293 136.762 114.659 134.369 116.325 132.19C118.032 129.891 119.861 127.685 121.802 125.58L121.35 125.161C120.791 124.566 120.087 124.126 119.306 123.885C118.526 123.644 117.695 123.61 116.897 123.785C115.206 124.223 113.687 125.166 112.547 126.489C111.325 127.811 110.408 129.386 109.864 131.102C109.314 132.724 109.021 134.422 108.995 136.135L99.5896 136.173C99.5429 133.044 100.158 129.941 101.394 127.066C102.614 124.171 104.326 121.509 106.456 119.198C108.307 117.105 110.498 115.338 112.936 113.971C114.903 112.91 117.12 112.4 119.353 112.495C121.719 112.672 124.014 113.376 126.072 114.554C128.731 116.06 131.193 117.888 133.401 119.999L147.643 133.134L139.79 141.639L136.776 138.859L136.616 139.03C137.123 140.939 137.022 142.958 136.328 144.808C135.595 146.897 134.432 148.81 132.913 150.423C131.809 151.599 130.565 152.637 129.211 153.514C127.827 154.433 126.286 155.093 124.666 155.462C123.896 155.644 123.109 155.735 122.318 155.733C121.426 155.733 120.536 155.63 119.667 155.427L119.649 155.424ZM126.351 131.459C125.411 132.477 124.508 133.556 123.644 134.675C122.848 135.689 122.168 136.789 121.615 137.954C121.147 138.917 120.908 139.975 120.916 141.045C120.931 141.552 121.052 142.05 121.273 142.506C121.494 142.962 121.81 143.367 122.198 143.693C122.662 144.151 123.254 144.457 123.895 144.57C124.488 144.684 125.097 144.651 125.674 144.477C126.281 144.295 126.851 144.006 127.354 143.621C127.878 143.239 128.365 142.807 128.807 142.332C129.593 141.592 130.216 140.696 130.638 139.703C131.06 138.71 131.27 137.64 131.257 136.561C131.063 134.455 130.042 132.51 128.416 131.155L127.455 130.261L126.351 131.459ZM582.836 145.915L585.798 143.087L585.644 142.917C583.703 143.305 581.691 143.08 579.885 142.272C577.838 141.42 575.994 140.146 574.472 138.536C573.357 137.363 572.39 136.06 571.591 134.653C570.76 133.22 570.19 131.65 569.911 130.016C569.634 128.35 569.753 126.642 570.255 125.029C570.885 123.146 571.991 121.457 573.469 120.128C575.16 118.358 577.454 117.286 579.899 117.123C582.289 117.07 584.656 117.587 586.806 118.631C589.284 119.815 591.594 121.322 593.675 123.112C595.87 124.957 597.967 126.914 599.958 128.976L600.404 128.55C601.031 128.025 601.514 127.348 601.803 126.584C602.092 125.819 602.178 124.993 602.054 124.186C601.708 122.476 600.85 120.911 599.595 119.697C598.352 118.394 596.836 117.383 595.154 116.737C593.568 116.094 591.892 115.702 590.186 115.573L590.699 106.197C593.832 106.33 596.9 107.13 599.698 108.544C602.519 109.932 605.08 111.797 607.266 114.055C609.243 116.023 610.873 118.31 612.087 120.821C613.042 122.841 613.424 125.084 613.193 127.306C612.87 129.654 612.027 131.901 610.727 133.884C609.057 136.439 607.079 138.778 604.838 140.851L590.846 154.257L582.836 145.915ZM581.847 128.267C581.365 128.71 581.022 129.281 580.853 129.913C580.726 130.497 580.726 131.101 580.853 131.684C581.002 132.302 581.258 132.889 581.613 133.417C581.96 133.963 582.362 134.473 582.813 134.939C583.502 135.77 584.358 136.448 585.325 136.93C586.292 137.412 587.348 137.686 588.428 137.735C589.476 137.708 590.509 137.471 591.465 137.041C592.421 136.61 593.282 135.993 593.996 135.226L594.957 134.325L593.842 133.161C592.87 132.152 591.861 131.181 590.781 130.256C589.821 129.396 588.763 128.65 587.631 128.034C586.696 127.515 585.657 127.212 584.589 127.148H584.448C583.964 127.158 583.488 127.265 583.045 127.46C582.601 127.655 582.201 127.936 581.866 128.286L581.847 128.267ZM119.545 84.4104L129.658 76.4181L143.471 93.8312L143.65 93.6923L145.159 64.1623L158.119 53.9098L155.288 88.2328L193.165 95.8609L179.664 106.54L148.102 99.4247L147.978 99.518L163.61 119.239L153.507 127.239L119.545 84.4104ZM552.285 117.003L556.14 92.5827L552.58 89.8409L539.317 107.007L529.097 99.1395L562.503 55.8918L579.016 68.6078C581.064 70.1837 582.939 71.9729 584.608 73.945C586.201 75.7948 587.44 77.9224 588.259 80.2212C589.046 82.439 589.267 84.8177 588.904 87.1425C588.425 89.8343 587.254 92.3556 585.505 94.459C583.532 97.1944 580.667 99.1578 577.401 100.012C574.096 100.766 570.638 100.484 567.499 99.2041L564.514 126.429L552.285 117.003ZM558.359 82.2225L563.342 86.0569C564.228 86.7344 565.165 87.3448 566.142 87.8829C567.098 88.4104 568.129 88.7904 569.198 89.0095C570.212 89.2135 571.261 89.1464 572.24 88.8153C573.361 88.3966 574.329 87.6488 575.015 86.6703C575.736 85.8374 576.185 84.8049 576.302 83.7107C576.366 82.765 576.187 81.8189 575.782 80.9619C575.342 80.0565 574.754 79.2298 574.045 78.5151C573.335 77.7748 572.573 77.0889 571.76 76.4635L566.161 72.1499L558.359 82.2225ZM175.748 62.9207L186.547 56.3353L206.578 89.1365L195.757 95.7316L175.748 62.9207ZM217.082 80.1565C215.558 79.5235 214.198 78.5516 213.107 77.3145C211.849 75.898 210.788 74.3168 209.957 72.6148L202.655 58.099L197.136 60.8717L192.903 52.4672L198.354 49.7255L193.796 40.7002L204.912 35.1164L209.454 44.1487L217.534 40.0941L221.767 48.5059L213.686 52.5535L220.307 65.7031C220.86 67.0311 221.832 68.1432 223.075 68.8714C223.725 69.1026 224.419 69.1795 225.104 69.0963C225.79 69.0131 226.447 68.7722 227.024 68.3922C227.612 68.0915 228.179 67.7511 228.72 67.3735C229.22 67.038 229.669 66.6347 230.056 66.1753L234.378 74.3762C233.569 75.1813 232.695 75.9219 231.769 76.5907C230.687 77.3945 229.537 78.1017 228.331 78.7044C226.389 79.7497 224.278 80.441 222.093 80.746C221.628 80.7995 221.161 80.8268 220.694 80.8276C219.464 80.8436 218.243 80.6181 217.101 80.1639L217.082 80.1565ZM241.535 67.0933C239.064 66.0913 236.832 64.5834 234.98 62.6668C232.952 60.5369 231.393 58.0061 230.405 55.2376C229.341 52.5223 228.859 49.6142 228.99 46.7012C229.122 44.0416 229.814 41.4398 231.022 39.0658C232.253 36.677 233.95 34.5584 236.014 32.8349C238.205 30.9825 240.707 29.5312 243.403 28.5476C244.702 28.0614 246.042 27.6969 247.408 27.4594C248.747 27.2224 250.1 27.0871 251.458 27.0545C252.745 27.0166 254.034 27.1155 255.299 27.3494C256.438 27.559 257.547 27.9032 258.604 28.375L254.716 38.8908C253.639 38.2567 252.425 37.8917 251.177 37.8269C249.874 37.7286 248.564 37.9083 247.336 38.354C246.151 38.7794 245.083 39.4762 244.216 40.3887C243.405 41.2534 242.776 42.2732 242.37 43.3867C241.956 44.5297 241.751 45.7375 241.763 46.9528C241.778 48.2412 242.023 49.5167 242.484 50.7202C242.928 51.9252 243.572 53.0467 244.39 54.037C245.161 54.9809 246.112 55.7621 247.188 56.3353C248.25 56.8927 249.415 57.2254 250.612 57.3129C251.9 57.3972 253.191 57.196 254.392 56.7235C255.617 56.2625 256.744 55.5745 257.713 54.6958C258.669 53.8764 259.397 52.825 259.827 51.6428L269.41 57.1956C268.34 59.3593 266.802 61.2589 264.908 62.7578C262.8 64.4932 260.411 65.8588 257.845 66.7961C255.144 67.8343 252.286 68.4017 249.393 68.4735H248.948C246.419 68.4925 243.909 68.0255 241.556 67.098L241.535 67.0933ZM261.372 2.76571L273.734 0L279.164 24.1642L279.319 24.1331C279.942 22.2491 281.029 20.5509 282.478 19.1938C284.22 17.5168 286.41 16.3785 288.785 15.9156C290.996 15.3452 293.31 15.3156 295.535 15.8293C297.373 16.2955 299.084 17.1658 300.543 18.3768C301.971 19.6077 303.144 21.1066 303.993 22.7886C304.869 24.5054 305.527 26.3238 305.957 28.2024L311.162 51.3863L298.715 54.176L294.154 33.8415C293.932 32.835 293.631 31.8475 293.252 30.8889C292.922 30.0291 292.435 29.2391 291.813 28.5596C291.243 27.9419 290.526 27.4769 289.729 27.2078C288.799 26.9383 287.813 26.9276 286.877 27.1768C285.911 27.3396 285 27.7354 284.222 28.3297C283.444 28.924 282.823 29.6988 282.413 30.587C281.589 32.502 281.429 34.637 281.96 36.6526L286.505 56.9104L274.137 59.6758L261.372 2.76571ZM172.888 56.0333C171.991 55.8438 171.141 55.4705 170.395 54.9372C169.649 54.4039 169.022 53.7219 168.553 52.9344C168.08 52.1514 167.766 51.2837 167.627 50.3799C167.495 49.4842 167.557 48.5706 167.808 47.7005C168.064 46.8104 168.47 45.9702 169.007 45.2154C169.566 44.4063 170.292 43.7278 171.138 43.2263C171.962 42.724 172.876 42.3837 173.828 42.2244C174.739 42.0629 175.674 42.0818 176.577 42.2797C177.459 42.4713 178.293 42.8354 179.033 43.351C179.815 43.8807 180.47 44.5753 180.953 45.3856C181.447 46.1888 181.766 47.0871 181.888 48.0217C181.997 48.9181 181.936 49.8267 181.71 50.7009C181.471 51.5907 181.058 52.4248 180.496 53.155C179.917 53.9238 179.194 54.5748 178.37 55.0723C177.222 55.8023 175.893 56.1966 174.531 56.2106C173.985 56.2137 173.441 56.1558 172.907 56.038L172.888 56.0333ZM388.121 49.5099L389.645 28.5787C389.722 27.5466 389.71 26.5099 389.607 25.48C389.512 24.5695 389.273 23.6798 388.899 22.8439C388.553 22.0769 388.001 21.4207 387.303 20.9482C386.476 20.4164 385.519 20.1183 384.536 20.0855C383.509 19.9854 382.473 20.1351 381.517 20.5217C380.649 20.8931 379.879 21.4587 379.265 22.1751C378.63 22.936 378.137 23.8045 377.81 24.7393C377.449 25.732 377.228 26.7704 377.156 27.8239L375.639 48.6016L362.921 47.6695L365.721 9.35381L377.959 10.2475L377.58 15.5537L377.727 15.568C378.296 14.7264 378.965 13.9569 379.72 13.2768C380.538 12.519 381.473 11.8954 382.487 11.4291C383.569 10.9268 384.701 10.5413 385.865 10.2788C387.115 10.0013 388.399 9.91246 389.675 10.0153C391.942 10.1171 394.152 10.7561 396.122 11.8796C397.763 12.8518 399.162 14.1825 400.214 15.7716C401.227 17.3588 401.914 19.1304 402.237 20.9842C402.582 22.8807 402.689 24.8126 402.556 26.7356L400.812 50.4326L388.121 49.5099ZM329.833 49.4403C327.285 48.7669 324.895 47.5976 322.8 45.9991C320.713 44.3794 319.004 42.3249 317.792 39.9788C316.448 37.3386 315.668 34.4477 315.504 31.4903C315.257 28.5763 315.599 25.6423 316.51 22.8629C317.333 20.354 318.667 18.0424 320.428 16.0736C322.182 14.1462 324.305 12.5884 326.669 11.4914C329.203 10.3051 331.935 9.6045 334.727 9.42578C337.386 9.20594 340.063 9.49542 342.613 10.2788C344.984 11.0306 347.164 12.2835 349.006 13.9526C350.892 15.7197 352.399 17.849 353.441 20.2125C354.643 22.9533 355.346 25.8862 355.517 28.8735C355.548 29.3936 355.594 29.9062 355.625 30.419C355.666 30.9044 355.676 31.3919 355.655 31.8785L327.841 33.9062C327.998 34.9367 328.402 35.9142 329.018 36.7556C329.626 37.6003 330.39 38.3225 331.268 38.8838C332.177 39.4689 333.173 39.9041 334.221 40.1731C335.304 40.4526 336.425 40.5546 337.542 40.475C339.306 40.3986 341.025 39.8866 342.543 38.9845C343.823 38.1905 344.91 37.1211 345.723 35.8545L354.91 40.7555C353.305 43.4964 350.996 45.7592 348.221 47.31C345.104 49.014 341.643 49.9966 338.095 50.1857C337.437 50.2336 336.781 50.2576 336.138 50.2576C334.016 50.262 331.902 49.9871 329.852 49.4403H329.833ZM335.449 18.1225C334.288 18.1952 333.152 18.4744 332.09 18.9469C331.135 19.3847 330.261 19.9838 329.51 20.718C328.796 21.434 328.225 22.2801 327.83 23.2105C327.437 24.1116 327.243 25.0869 327.262 26.0695L343.518 24.8712C343.414 22.9778 342.61 21.1899 341.263 19.8529C340.6 19.2429 339.822 18.7717 338.973 18.4671C338.125 18.1626 337.225 18.0307 336.325 18.0795C336.076 18.0939 335.772 18.1035 335.467 18.1275L335.449 18.1225Z" fill="#EB673F"/>
</svg>
