<svg width="148" height="121" viewBox="0 0 148 121" fill="none" xmlns="http://www.w3.org/2000/svg">
<path fill-rule="evenodd" clip-rule="evenodd" d="M7.65012 20.3429C6.76712 20.3276 5.88992 20.4883 5.06969 20.8156C4.24946 21.1429 3.50263 21.6303 2.87278 22.2494C2.24292 22.8684 1.74265 23.6066 1.40116 24.4211C1.05967 25.2355 0.883789 26.1098 0.883789 26.9929C0.883789 27.876 1.05967 28.7503 1.40116 29.5648C1.74265 30.3792 2.24292 31.1175 2.87278 31.7365C3.50263 32.3555 4.24946 32.8429 5.06969 33.1702C5.88992 33.4975 6.76712 33.6582 7.65012 33.6429H27.5991C28.4821 33.6582 29.3593 33.4975 30.1795 33.1702C30.9998 32.8429 31.7466 32.3555 32.3765 31.7365C33.0063 31.1175 33.5066 30.3792 33.8481 29.5648C34.1896 28.7503 34.3654 27.876 34.3654 26.9929C34.3654 26.1098 34.1896 25.2355 33.8481 24.4211C33.5066 23.6066 33.0063 22.8684 32.3765 22.2494C31.7466 21.6303 30.9998 21.1429 30.1795 20.8156C29.3593 20.4883 28.4821 20.3276 27.5991 20.3429H7.65012ZM67.5091 20.3429C66.6261 20.3276 65.7489 20.4883 64.9287 20.8156C64.1085 21.1429 63.3616 21.6303 62.7318 22.2494C62.1019 22.8684 61.6017 23.6066 61.2602 24.4211C60.9187 25.2355 60.7428 26.1098 60.7428 26.9929C60.7428 27.876 60.9187 28.7503 61.2602 29.5648C61.6017 30.3792 62.1019 31.1175 62.7318 31.7365C63.3616 32.3555 64.1085 32.8429 64.9287 33.1702C65.7489 33.4975 66.6261 33.6582 67.5091 33.6429H140.67C142.414 33.6127 144.076 32.8988 145.298 31.6549C146.521 30.4111 147.206 28.7369 147.206 26.9929C147.206 25.2489 146.521 23.5747 145.298 22.3309C144.076 21.0871 142.414 20.3732 140.67 20.3429H67.5091Z" fill="url(#paint0_linear)"/>
<path fill-rule="evenodd" clip-rule="evenodd" d="M140.671 87.3429C141.554 87.3276 142.431 87.4883 143.252 87.8156C144.072 88.1429 144.819 88.6303 145.448 89.2494C146.078 89.8684 146.579 90.6066 146.92 91.4211C147.262 92.2355 147.437 93.1098 147.437 93.9929C147.437 94.876 147.262 95.7503 146.92 96.5648C146.579 97.3792 146.078 98.1175 145.448 98.7365C144.819 99.3555 144.072 99.8429 143.252 100.17C142.431 100.498 141.554 100.658 140.671 100.643H120.718C119.835 100.658 118.958 100.498 118.138 100.17C117.317 99.8429 116.571 99.3555 115.941 98.7365C115.311 98.1175 114.811 97.3792 114.469 96.5648C114.128 95.7503 113.952 94.876 113.952 93.9929C113.952 93.1098 114.128 92.2355 114.469 91.4211C114.811 90.6066 115.311 89.8684 115.941 89.2494C116.571 88.6303 117.317 88.1429 118.138 87.8156C118.958 87.4883 119.835 87.3276 120.718 87.3429H140.671ZM80.8111 87.3429C81.6941 87.3276 82.5713 87.4883 83.3915 87.8156C84.2118 88.1429 84.9586 88.6303 85.5885 89.2494C86.2183 89.8684 86.7186 90.6066 87.0601 91.4211C87.4016 92.2355 87.5775 93.1098 87.5775 93.9929C87.5775 94.876 87.4016 95.7503 87.0601 96.5648C86.7186 97.3792 86.2183 98.1175 85.5885 98.7365C84.9586 99.3555 84.2118 99.8429 83.3915 100.17C82.5713 100.498 81.6941 100.658 80.8111 100.643H7.65012C6.76712 100.658 5.88992 100.498 5.06969 100.17C4.24946 99.8429 3.50263 99.3555 2.87278 98.7365C2.24292 98.1175 1.74265 97.3792 1.40116 96.5648C1.05967 95.7503 0.883789 94.876 0.883789 93.9929C0.883789 93.1098 1.05967 92.2355 1.40116 91.4211C1.74265 90.6066 2.24292 89.8684 2.87278 89.2494C3.50263 88.6303 4.24946 88.1429 5.06969 87.8156C5.88992 87.4883 6.76712 87.3276 7.65012 87.3429H80.8111Z" fill="url(#paint1_linear)"/>
<path fill-rule="evenodd" clip-rule="evenodd" d="M100.76 120.108C106.021 120.108 111.163 118.548 115.537 115.626C119.912 112.703 123.321 108.549 125.335 103.689C127.348 98.8291 127.875 93.4812 126.85 88.3215C125.824 83.1618 123.291 78.4222 119.572 74.7018C115.853 70.9814 111.114 68.4473 105.954 67.4201C100.795 66.3928 95.447 66.9184 90.5863 68.9305C85.7257 70.9425 81.5708 74.3507 78.647 78.724C75.7231 83.0973 74.1617 88.2393 74.1602 93.5C74.1591 96.9938 74.8464 100.454 76.1827 103.682C77.519 106.91 79.4781 109.843 81.9483 112.314C84.4184 114.785 87.3511 116.745 90.5789 118.082C93.8067 119.42 97.2663 120.108 100.76 120.108Z" fill="#EB673F"/>
<path d="M47.5522 53.598C52.8128 53.598 57.9553 52.0381 62.3295 49.1156C66.7037 46.1931 70.1131 42.0392 72.1266 37.1792C74.1401 32.3191 74.6673 26.9712 73.6416 21.8115C72.6159 16.6518 70.0833 11.9121 66.364 8.19175C62.6447 4.47135 57.9058 1.93732 52.7465 0.910049C47.5871 -0.117222 42.239 0.408406 37.3783 2.42047C32.5177 4.43253 28.3628 7.84068 25.4389 12.214C22.5151 16.5873 20.9537 21.7293 20.9521 26.99C20.9511 30.4838 21.6384 33.9436 22.9747 37.1718C24.311 40.4 26.2701 43.3333 28.7403 45.8042C31.2104 48.2751 34.1431 50.2351 37.3709 51.5724C40.5987 52.9097 44.0583 53.598 47.5522 53.598Z" fill="#EB673F"/>
<defs>
<linearGradient id="paint0_linear" x1="2.34701" y1="26.9929" x2="383.324" y2="-127.912" gradientUnits="userSpaceOnUse">
<stop stop-color="#4D4846"/>
<stop offset="1" stop-color="#0F0E0E" stop-opacity="0"/>
</linearGradient>
<linearGradient id="paint1_linear" x1="2.20277" y1="93.9929" x2="333.561" y2="93.9929" gradientUnits="userSpaceOnUse">
<stop stop-color="#4D4846"/>
<stop offset="1" stop-color="#0F0E0E" stop-opacity="0"/>
</linearGradient>
</defs>
</svg>
