<svg width="120" height="121" viewBox="0 0 120 121" fill="none" xmlns="http://www.w3.org/2000/svg"><path fill-rule="evenodd" clip-rule="evenodd" d="M51.077 7.36697C55.5397 2.90469 61.5921.397578 67.903.396973h34.25C106.886.396973 111.426 2.27728 114.773 5.62424 118.12 8.9712 120 13.5107 120 18.244V52.497C120 58.8078 117.493 64.8601 113.031 69.323L67.182 115.17C65.5247 116.827 63.5573 118.142 61.3919 119.039 59.2266 119.936 56.9058 120.398 54.562 120.398 52.2182 120.398 49.8974 119.936 47.7321 119.039 45.5667 118.142 43.5993 116.827 41.942 115.17L5.22801 78.455C1.88119 75.108 976562e-9 70.5687 976562e-9 65.8355 976562e-9 61.1023 1.88119 56.5629 5.22801 53.216L51.077 7.36697zM78.358 47.989C79.5346 47.989 80.6848 47.6401 81.6631 46.9864 82.6414 46.3327 83.4039 45.4036 83.8542 44.3166 84.3044 43.2295 84.4222 42.0334 84.1927 40.8794 83.9632 39.7254 83.3966 38.6654 82.5646 37.8334 81.7326 37.0014 80.6726 36.4348 79.5186 36.2053 78.3646 35.9757 77.1685 36.0935 76.0814 36.5438 74.9944 36.9941 74.0653 37.7566 73.4116 38.7349 72.7579 39.7132 72.409 40.8634 72.409 42.04 72.409 43.6177 73.0358 45.1309 74.1514 46.2466 75.2671 47.3622 76.7802 47.989 78.358 47.989z" fill="url(#paint0_linear)"/><path d="M10.4551 47.9899 18.8691 39.5759 80.8211 101.53 72.4081 109.943 10.4551 47.9899z" fill="#eb673f"/><path d="M78.5 51C83.1944 51 87 47.1944 87 42.5 87 37.8056 83.1944 34 78.5 34 73.8056 34 70 37.8056 70 42.5 70 47.1944 73.8056 51 78.5 51z" fill="#eb673f"/><path fill-rule="evenodd" clip-rule="evenodd" d="M78.3577 47.993C79.5343 47.9934 80.6845 47.6449 81.663 46.9916 82.6414 46.3384 83.4043 45.4096 83.8549 44.3229 84.3056 43.2361 84.424 42.0401 84.195 40.8861 83.966 39.7321 83.3999 38.6719 82.5684 37.8395 81.7369 37.0072 80.6773 36.4401 79.5235 36.2099 78.3697 35.9798 77.1736 36.0969 76.0864 36.5465 74.9992 36.9961 74.0697 37.758 73.4154 38.7358 72.7612 39.7136 72.4115 40.8635 72.4107 42.04 72.4102 42.8214 72.5636 43.5952 72.8622 44.3173 73.1608 45.0394 73.5988 45.6956 74.151 46.2484 74.7033 46.8013 75.3591 47.2399 76.0808 47.5392 76.8026 47.8385 77.5763 47.9927 78.3577 47.993zM78.3577 59.893C81.8873 59.893 85.3376 58.8464 88.2724 56.8856 91.2072 54.9248 93.4947 52.1379 94.8456 48.8771 96.1966 45.6164 96.5504 42.0282 95.8623 38.5664 95.1741 35.1046 93.4749 31.9246 90.9796 29.4284 88.4842 26.9322 85.3048 25.2319 81.8432 24.5426 78.3816 23.8533 74.7934 24.2059 71.5321 25.5558 68.2709 26.9057 65.4832 29.1922 63.5214 32.1264 61.5596 35.0605 60.5119 38.5104 60.5107 42.04 60.5107 46.7733 62.391 51.3128 65.738 54.6597 69.085 58.0067 73.6244 59.887 78.3577 59.887V59.893z" fill="#eb673f"/><defs><linearGradient id="paint0_linear" x1="60.0005" y1=".396973" x2="57.2404" y2="302.558" gradientUnits="userSpaceOnUse"><stop stop-color="#4d4846"/><stop offset="1" stop-color="#0f0e0e" stop-opacity="0"/></linearGradient></defs></svg>